<svg width="389" height="398" viewBox="0 0 389 398" fill="none" xmlns="http://www.w3.org/2000/svg">
<path d="M194.5 277.7C208.963 277.7 220.687 270.772 220.687 262.226C220.687 253.68 208.963 246.752 194.5 246.752C180.037 246.752 168.312 253.68 168.312 262.226C168.312 270.772 180.037 277.7 194.5 277.7Z" fill="#E0E0E0"/>
<path d="M292.162 319.053C315.025 319.053 333.56 308.105 333.56 294.6C333.56 281.095 315.025 270.146 292.162 270.146C269.299 270.146 250.765 281.095 250.765 294.6C250.765 308.105 269.299 319.053 292.162 319.053Z" fill="#E0E0E0"/>
<path d="M89.0187 321.695C111.882 321.695 130.416 310.747 130.416 297.242C130.416 283.737 111.882 272.789 89.0187 272.789C66.1556 272.789 47.6213 283.737 47.6213 297.242C47.6213 310.747 66.1556 321.695 89.0187 321.695Z" fill="#E0E0E0"/>
<path d="M312.624 289.553L305.373 288.701L303.498 273.752L312.359 276.443L312.624 289.553Z" fill="#B16668"/>
<path d="M296.737 301.748C296.632 302.042 296.589 302.356 296.611 302.669C296.632 302.981 296.718 303.286 296.862 303.562C297.64 304.486 299.647 305.568 302.385 305.767C305.007 305.958 307.341 305.6 308.874 304.605C309.54 304.253 310.111 303.737 310.535 303.103C310.958 302.47 311.222 301.739 311.301 300.975C311.449 299.455 311.301 297.983 311.994 296.812C312.686 295.642 313.69 294.504 313.915 293.915C314.185 292.898 314.185 291.827 313.915 290.811L296.737 301.748Z" fill="#263238"/>
<path d="M303.902 288.439C303.879 289.016 303.777 289.586 303.599 290.134C303.198 291.313 302.66 292.438 301.996 293.485C301.67 294.042 301.306 294.574 300.907 295.077C300.129 296.04 299.133 296.836 298.293 297.76C297.402 298.631 296.83 299.789 296.675 301.039C296.566 303.141 299.833 303.857 301.553 304.168C303.407 304.499 305.311 304.401 307.123 303.881C308.075 303.627 308.935 303.098 309.6 302.357C310.265 301.616 310.707 300.694 310.873 299.702C310.974 299.113 310.936 298.516 311.006 297.935C311.232 296.593 311.78 295.33 312.6 294.257C313.077 293.639 313.487 292.969 313.822 292.259C314.359 290.962 313.931 289.497 313.589 288.208C313.293 287.085 312.935 285.82 312.546 285.907C312.546 286.488 312.546 286.568 312.165 286.958C311.784 287.348 311.636 288.208 311.091 288.646C311.265 288.16 311.393 287.659 311.472 287.149C311.506 286.945 311.465 286.735 311.356 286.56C311.175 286.395 310.959 286.275 310.725 286.21C309.916 285.933 309.082 285.738 308.236 285.629C307.08 285.494 305.914 285.494 304.758 285.629C304.517 285.673 304.3 285.802 304.144 285.995C304.004 286.207 303.928 286.456 303.926 286.711C303.887 287.014 303.918 287.881 303.902 288.439Z" fill="#455A64"/>
<path d="M301.716 293.931C302.494 293.342 305.24 293.334 306.174 293.437C307.126 293.521 308.041 293.849 308.835 294.393C308.951 294.477 309.093 294.517 309.235 294.506C309.377 294.494 309.511 294.431 309.613 294.329C309.672 294.269 309.717 294.197 309.746 294.118C309.776 294.038 309.788 293.953 309.782 293.869C309.776 293.784 309.752 293.701 309.712 293.627C309.672 293.553 309.617 293.488 309.551 293.437C308.679 292.779 307.643 292.385 306.563 292.299C305.215 292.198 303.86 292.278 302.533 292.538C302.533 292.538 301.49 293.23 301.716 293.931Z" fill="#F5F5F5"/>
<path d="M299.958 296.112C300.923 295.531 303.848 295.61 304.789 295.714C305.723 295.812 306.614 296.161 307.372 296.725C307.489 296.808 307.631 296.847 307.773 296.836C307.914 296.824 308.048 296.762 308.15 296.661C308.209 296.601 308.255 296.529 308.284 296.45C308.313 296.37 308.325 296.285 308.319 296.201C308.313 296.116 308.29 296.034 308.25 295.959C308.21 295.885 308.155 295.82 308.088 295.77C306.812 295.093 305.419 294.677 303.988 294.544C301.654 294.377 301.086 294.854 301.086 294.854C300.818 294.965 300.578 295.135 300.383 295.352C300.188 295.57 300.043 295.83 299.958 296.112Z" fill="#F5F5F5"/>
<path d="M307.481 290.046C306.165 289.892 304.833 289.976 303.545 290.293C303.14 290.524 302.868 291.185 303.132 291.352C304.308 291.027 305.527 290.904 306.742 290.986C307.605 291.074 308.446 291.311 309.232 291.686C309.434 291.782 309.667 291.901 309.87 292.02C309.935 292.063 310.008 292.09 310.084 292.101C310.161 292.112 310.238 292.106 310.312 292.083C310.386 292.06 310.454 292.022 310.512 291.97C310.57 291.918 310.616 291.854 310.648 291.782C310.703 291.664 310.714 291.53 310.678 291.405C310.642 291.28 310.562 291.173 310.453 291.105C309.548 290.539 308.534 290.178 307.481 290.046Z" fill="#F5F5F5"/>
<path d="M285.588 282.755L278.695 280.789V266.533L287.245 266.915L285.588 282.755Z" fill="#B16668"/>
<path d="M264.131 290.389C263.937 291.003 263.973 291.67 264.232 292.259C264.489 292.801 267.282 294.416 271.048 294.154C273.837 293.949 276.522 292.987 278.828 291.368C280.259 290.397 281.753 290.214 283.62 290.11C285.487 290.007 287.93 289.043 288.342 288.152C288.552 287.354 288.531 286.51 288.28 285.724L264.131 290.389Z" fill="#263238"/>
<path d="M279.302 278.369L279.006 278.306C278.843 278.266 278.672 278.266 278.509 278.306C278.328 278.366 278.166 278.476 278.042 278.624C277.674 279.108 277.354 279.628 277.085 280.176C276.307 281.49 274.634 282.564 272.829 283.575C271.6 284.252 270.394 284.777 269.126 285.358C267.858 285.939 266.107 286.321 265.096 287.022C263.618 288.041 263.423 290.596 265.096 291.607C266.543 292.482 270.371 293.43 274.377 292.267C276.556 291.631 278.983 289.25 281.846 289.02C283.667 288.868 287.113 288.351 288.288 286.934C288.724 286.305 288.14 284.315 287.666 282.596C287.144 280.717 286.654 277.82 286.047 277.955C286.053 278.09 286.026 278.223 285.971 278.345C285.915 278.467 285.832 278.573 285.728 278.656C285.503 278.895 285.199 279.046 284.95 279.261C284.526 279.688 284.183 280.193 283.939 280.749C283.84 280.997 283.658 281.2 283.425 281.322C283.114 281.434 282.889 281.243 282.647 281.115C282.306 280.955 281.919 280.927 281.558 281.036C281.596 280.663 281.661 280.293 281.753 279.929C281.787 279.815 281.787 279.693 281.753 279.579C281.709 279.464 281.626 279.368 281.519 279.308C280.853 278.84 280.097 278.52 279.302 278.369Z" fill="#455A64"/>
<path d="M274.556 282.532C274.686 282.275 274.878 282.055 275.113 281.894C275.348 281.732 275.62 281.634 275.902 281.609C276.727 281.45 278.189 282.078 279.1 282.843C279.186 282.914 279.255 283.005 279.299 283.11C279.343 283.214 279.361 283.328 279.352 283.441C279.343 283.554 279.306 283.664 279.246 283.759C279.186 283.855 279.103 283.934 279.006 283.989C278.884 284.06 278.743 284.089 278.603 284.074C278.464 284.058 278.333 283.998 278.228 283.901C277.224 282.975 275.907 282.484 274.556 282.532Z" fill="#F5F5F5"/>
<path d="M271.981 284.005C272.161 283.744 272.4 283.531 272.678 283.384C272.956 283.238 273.263 283.161 273.576 283.161C274.855 283.219 276.084 283.69 277.085 284.506C277.167 284.576 277.231 284.665 277.272 284.766C277.313 284.867 277.33 284.976 277.32 285.085C277.311 285.193 277.276 285.298 277.219 285.39C277.162 285.482 277.084 285.558 276.991 285.613C276.87 285.687 276.728 285.719 276.588 285.703C276.447 285.688 276.316 285.625 276.213 285.525C275.663 284.965 274.997 284.538 274.265 284.275C273.533 284.012 272.753 283.92 271.981 284.005Z" fill="#F5F5F5"/>
<path d="M269.188 285.326C269.393 285.086 269.647 284.894 269.932 284.763C270.216 284.633 270.525 284.567 270.837 284.57C272.069 284.648 273.245 285.121 274.198 285.923C274.28 285.994 274.344 286.083 274.385 286.185C274.426 286.286 274.443 286.396 274.434 286.505C274.425 286.614 274.39 286.72 274.333 286.812C274.276 286.905 274.197 286.982 274.105 287.038C273.984 287.112 273.842 287.144 273.701 287.128C273.561 287.112 273.429 287.05 273.327 286.95C272.807 286.37 272.162 285.922 271.444 285.64C270.726 285.358 269.954 285.251 269.188 285.326Z" fill="#F5F5F5"/>
<path d="M311.037 189.742C311.511 204.445 311.542 236.285 311.542 236.285C311.69 238.115 311.846 241.363 311.978 247.954C312.172 257.506 312.624 281.091 312.624 281.091C312.624 281.091 308.166 283.233 304.066 281.489C304.066 281.489 298.371 248.328 297.204 238.872C296.185 230.617 294.232 211.258 294.232 211.258L291.54 235.831C291.54 235.831 291.54 242.199 291.174 247.819C290.871 252.197 286.716 274.747 286.716 274.747C284.003 275.485 281.137 275.388 278.477 274.469C278.477 274.469 278.104 239.851 278.026 235.831C277.94 231.262 279.092 181.862 279.092 181.862L311.037 189.742Z" fill="#455A64"/>
<path d="M294.247 211.258L293.22 202.924C289.904 202.057 286.768 200.585 283.962 198.578C283.962 198.578 285.938 201.285 291.742 204.15L293.049 211.712L291.571 235.831L294.247 211.258Z" fill="#37474F"/>
<path d="M278.726 148.486C276.626 151.304 265.819 166.476 265.819 166.476L255.838 158.563C253.504 156.693 252.811 154.241 251.348 152.546C249.886 150.85 248.283 150.444 246.642 149.027C245 147.61 244.37 146.536 243.81 147.746C243.249 148.956 245.062 151.065 245.366 151.574C245.669 152.084 247.544 153.302 245.07 153.166C242.596 153.031 237.835 150.142 236.683 149.608C235.532 149.075 235.501 150.532 236.045 151.487C236.59 152.442 236.318 155.101 236.955 156.812C237.593 158.524 238.714 159.574 240.993 160.728C243.117 161.811 248.283 162.488 249.964 163.57C253.651 167.439 260.607 174.658 262.365 175.996C264.785 177.834 267.126 179.53 270.83 175.884C274.533 172.239 285.261 157.934 285.261 157.934L287.479 144.331C283.838 144.196 281.263 145.087 278.726 148.486Z" fill="#B16668"/>
<path d="M265.819 166.475C267.189 167.51 268.612 169.835 268.745 170.877C268.729 169.889 268.513 168.915 268.111 168.017C267.71 167.118 267.131 166.314 266.411 165.656L265.819 166.475Z" fill="#9A4A4D"/>
<path d="M288.334 143.996C288.334 143.996 283.2 143.933 280.943 145.549C278.687 147.165 277.015 149.529 273.35 154.981C270.137 159.757 268.581 162.05 268.581 162.05C270.684 165.233 273.747 167.626 277.302 168.863L286.887 156.717L288.334 143.996Z" fill="#37474F"/>
<path d="M298.27 143.742C301.179 144.028 305.272 144.06 308.15 144.363C310.15 145.206 314.009 148.645 313.721 151.097C312.647 160.259 310.476 175.279 310.476 175.279L311.192 191.199C307.185 195.291 288.436 196.891 278.773 190.347C278.773 190.347 279.084 161.755 279.753 156.915C280.944 148.247 281.986 145.031 286.358 144.267C290.731 143.503 298.27 143.742 298.27 143.742Z" fill="#780014"/>
<path d="M314.748 148.717C316.848 151.535 327.662 166.706 327.662 166.706L337.652 158.794C339.986 156.915 340.678 154.464 342.141 152.776C343.604 151.089 345.206 150.675 346.848 149.258C348.49 147.841 349.12 146.766 349.68 147.968C350.24 149.17 348.427 151.296 348.124 151.805C347.82 152.315 345.945 153.532 348.42 153.397C350.894 153.262 355.647 150.364 356.806 149.831C357.966 149.298 357.981 150.754 357.444 151.71C356.908 152.665 357.164 155.331 356.534 157.043C355.904 158.754 354.776 159.797 352.496 160.959C350.372 162.042 345.206 162.718 343.526 163.801C339.838 167.661 332.883 174.889 331.125 176.218C328.705 178.057 326.363 179.753 322.66 176.115C318.957 172.477 310.492 161.15 310.492 161.15L306.011 144.562C309.644 144.426 312.219 145.318 314.748 148.717Z" fill="#B16668"/>
<path d="M327.663 166.706C326.293 167.741 324.87 170.065 324.737 171.108C324.752 170.119 324.967 169.143 325.369 168.243C325.771 167.343 326.35 166.538 327.071 165.878L327.663 166.706Z" fill="#9A4A4D"/>
<path d="M305.497 144.164C305.497 144.164 310.111 143.869 312.538 145.756C314.724 147.475 316.428 149.736 320.131 155.188C323.345 159.964 324.901 162.257 324.901 162.257C322.793 165.439 319.728 167.831 316.171 169.07L309.644 160.84C306.244 156.43 302.875 149.72 305.497 144.164Z" fill="#37474F"/>
<path d="M298.993 122.186C299.008 124.012 298.494 125.802 297.515 127.329C296.536 128.856 295.137 130.052 293.494 130.765C291.851 131.479 290.038 131.678 288.284 131.337C286.531 130.996 284.915 130.131 283.642 128.851C282.369 127.57 281.496 125.933 281.133 124.145C280.769 122.357 280.933 120.499 281.601 118.806C282.27 117.112 283.415 115.66 284.89 114.633C286.366 113.605 288.106 113.048 289.891 113.032C291.076 113.022 292.251 113.25 293.35 113.704C294.449 114.159 295.45 114.83 296.295 115.68C297.14 116.53 297.814 117.542 298.276 118.659C298.739 119.775 298.983 120.973 298.993 122.186Z" fill="#263238"/>
<path d="M305.63 128.697C305.63 128.697 304.221 135.742 303.646 136.896C303.262 137.613 302.625 138.151 301.864 138.401L301.918 133.449L305.63 128.697Z" fill="#263238"/>
<path d="M303.708 118.644C304.218 118.577 304.736 118.63 305.223 118.8C305.71 118.97 306.153 119.251 306.517 119.623C307.73 120.873 307.092 124.821 305.63 128.697L302.875 129.047L303.708 118.644Z" fill="#263238"/>
<path d="M302.051 129.056C302.603 129.39 303.381 128.26 304.058 127.559C304.735 126.859 306.944 125.808 308.08 128.188C309.216 130.568 307.147 133.855 305.404 134.429C302.393 135.432 301.919 133.449 301.919 133.449L301.794 144.928C298.091 149.887 287.673 149.561 291.968 144.386V140.996C290.627 141.226 289.265 141.308 287.907 141.242C285.682 140.916 284.273 139.133 283.573 136.681C282.461 132.749 282.017 129.565 282.873 121.788C283.807 113.271 293.477 113.096 298.729 116.415C303.98 119.734 302.051 129.056 302.051 129.056Z" fill="#B16668"/>
<path d="M302.058 130.003C302.331 130.003 303.373 128.204 304.058 127.559C304.999 126.66 303.708 118.644 303.708 118.644C304.031 117.933 304.137 117.138 304.012 116.364C303.887 115.59 303.537 114.873 303.008 114.306C301.693 112.849 299.857 111.074 293.944 111.838C289.719 112.387 285.137 113.78 281.41 111.949C281.079 113.191 281.116 114.505 281.518 115.724C281.92 116.944 282.668 118.013 283.666 118.795C283.666 118.795 285.02 119.671 288.56 120.077C291.824 120.296 295.101 120.203 298.347 119.798C299.374 119.647 299.6 120.658 300.176 123.436C300.681 125.864 301.125 129.995 302.058 130.003Z" fill="#263238"/>
<path d="M303.708 119.265L307.03 117.402C306.922 117.172 306.77 116.967 306.582 116.799C306.394 116.631 306.175 116.505 305.937 116.426C305.7 116.348 305.45 116.32 305.201 116.344C304.953 116.368 304.712 116.444 304.494 116.566C304.048 116.826 303.718 117.252 303.572 117.754C303.426 118.257 303.474 118.798 303.708 119.265Z" fill="#263238"/>
<path d="M291.945 140.996C291.945 140.996 296.893 139.929 298.612 138.974C299.626 138.422 300.453 137.571 300.985 136.53C300.734 137.567 300.281 138.541 299.655 139.396C298.402 141.067 291.96 142.341 291.96 142.341L291.945 140.996Z" fill="#9A4A4D"/>
<path d="M291.548 128.244C291.546 128.379 291.57 128.514 291.619 128.64C291.668 128.765 291.741 128.88 291.833 128.977C291.926 129.074 292.036 129.151 292.158 129.204C292.28 129.257 292.411 129.285 292.544 129.286C292.75 129.294 292.955 129.239 293.13 129.126C293.306 129.014 293.444 128.851 293.528 128.657C293.612 128.464 293.637 128.249 293.601 128.041C293.564 127.832 293.467 127.64 293.322 127.488C293.178 127.337 292.992 127.233 292.789 127.191C292.587 127.149 292.376 127.17 292.185 127.251C291.994 127.332 291.831 127.47 291.718 127.647C291.604 127.824 291.545 128.032 291.548 128.244Z" fill="#263238"/>
<path d="M294.496 124.749L292.287 123.722C292.159 124.031 292.152 124.379 292.267 124.694C292.383 125.008 292.613 125.264 292.909 125.41C293.056 125.476 293.213 125.511 293.373 125.514C293.533 125.516 293.692 125.486 293.84 125.424C293.988 125.363 294.123 125.271 294.235 125.155C294.348 125.039 294.437 124.901 294.496 124.749Z" fill="#263238"/>
<path d="M285.044 123.5L283.122 125.044C283.213 125.178 283.33 125.291 283.465 125.377C283.601 125.462 283.752 125.518 283.91 125.542C284.067 125.565 284.228 125.554 284.382 125.511C284.535 125.468 284.679 125.393 284.803 125.291C285.058 125.079 285.225 124.776 285.269 124.444C285.314 124.111 285.233 123.774 285.044 123.5Z" fill="#263238"/>
<path d="M283.884 127.997C283.893 128.187 283.957 128.37 284.067 128.524C284.177 128.677 284.329 128.794 284.503 128.86C284.678 128.926 284.867 128.938 285.048 128.895C285.23 128.851 285.394 128.755 285.522 128.616C285.65 128.478 285.735 128.304 285.767 128.117C285.799 127.929 285.777 127.736 285.703 127.562C285.629 127.387 285.506 127.239 285.35 127.135C285.194 127.031 285.012 126.977 284.826 126.978C284.698 126.981 284.573 127.01 284.456 127.063C284.34 127.116 284.235 127.192 284.147 127.287C284.06 127.381 283.992 127.493 283.946 127.615C283.901 127.737 283.88 127.867 283.884 127.997Z" fill="#263238"/>
<path d="M289.035 127.177L288.475 133.266L285.402 132.056L289.035 127.177Z" fill="#9A4A4D"/>
<path d="M290.723 135.551C290.721 135.745 290.776 135.935 290.88 136.097C290.985 136.259 291.134 136.386 291.308 136.461C291.483 136.536 291.676 136.557 291.862 136.52C292.048 136.483 292.219 136.391 292.354 136.254C292.488 136.117 292.58 135.943 292.618 135.753C292.655 135.563 292.637 135.365 292.565 135.186C292.493 135.007 292.37 134.853 292.212 134.745C292.055 134.637 291.869 134.58 291.68 134.58C291.427 134.58 291.185 134.682 291.006 134.864C290.827 135.046 290.725 135.293 290.723 135.551Z" fill="#9A4A4D"/>
<path d="M315.012 70.7006C316.496 71.0386 317.926 71.5879 319.26 72.3324C320.536 73.0352 321.68 73.9652 322.637 75.0786C323.557 76.1574 324.237 77.4287 324.628 78.8039C325.038 80.2616 325.07 81.8031 324.722 83.2774C324.491 84.4477 324.036 85.5596 323.384 86.549C322.797 87.4002 322.092 88.1591 321.291 88.8017C320.507 89.4242 319.671 89.9755 318.793 90.4494L316.319 91.7867C315.573 92.1854 314.864 92.6544 314.203 93.1876C313.606 93.6514 313.147 94.2775 312.881 94.9945C312.746 95.3143 312.528 95.5897 312.25 95.7905C312.117 95.8948 311.962 95.9668 311.798 96.0013C311.634 96.0358 311.464 96.0317 311.301 95.9895L307.66 95.1935C307.485 95.1558 307.32 95.0829 307.173 94.9791C307.026 94.8752 306.901 94.7425 306.804 94.5886C306.703 94.4445 306.635 94.2778 306.608 94.1022C306.581 93.9265 306.595 93.7468 306.649 93.5777C306.952 92.4197 307.481 91.3366 308.205 90.3937C308.857 89.5615 309.61 88.8178 310.445 88.1808C311.253 87.5764 312.109 87.0438 313.005 86.5888C313.892 86.1351 314.717 85.6973 315.479 85.2674C316.176 84.8906 316.831 84.4368 317.432 83.9142C317.956 83.4629 318.319 82.8473 318.467 82.163C318.601 81.5654 318.592 80.9433 318.44 80.35C318.289 79.7567 317.999 79.2098 317.595 78.7561C316.589 77.6313 315.245 76.8832 313.775 76.6308C311.057 76.0099 308.76 76.9466 306.882 79.4407C306.702 79.7138 306.472 79.9489 306.205 80.1332C306.061 80.2085 305.903 80.2535 305.742 80.2658C305.58 80.2781 305.418 80.2574 305.264 80.2049L301.374 79.3213C301.237 79.2943 301.106 79.2395 300.99 79.1602C300.874 79.0809 300.774 78.9788 300.697 78.8596C300.612 78.7377 300.555 78.598 300.53 78.4507C300.504 78.3035 300.511 78.1522 300.549 78.0079C300.876 76.7845 301.491 75.6614 302.339 74.7363C303.29 73.6613 304.42 72.7667 305.676 72.0936C307.053 71.3543 308.537 70.8489 310.072 70.5971C311.71 70.3023 313.388 70.3375 315.012 70.7006ZM310.904 98.9905C311.075 99.0278 311.237 99.1008 311.379 99.2049C311.52 99.309 311.64 99.4419 311.729 99.5954C311.825 99.744 311.89 99.9109 311.921 100.086C311.952 100.261 311.947 100.441 311.908 100.614L310.974 104.929C310.896 105.273 310.69 105.573 310.4 105.764C310.109 105.956 309.757 106.025 309.418 105.955L305.295 105.024C305.125 104.987 304.965 104.915 304.823 104.812C304.681 104.71 304.561 104.579 304.47 104.427C304.373 104.279 304.307 104.112 304.277 103.937C304.246 103.762 304.251 103.582 304.291 103.408L305.225 99.086C305.303 98.7416 305.509 98.4418 305.8 98.2502C306.09 98.0585 306.442 97.99 306.781 98.0591L310.904 98.9905Z" fill="#780014"/>
<path d="M327.242 111.289C328.271 111.115 329.319 111.094 330.354 111.225C331.35 111.341 332.316 111.637 333.21 112.101C334.063 112.547 334.811 113.177 335.404 113.947C336.032 114.773 336.437 115.753 336.578 116.789C336.74 117.595 336.74 118.427 336.578 119.233C336.417 119.934 336.154 120.608 335.8 121.231C335.454 121.832 335.058 122.401 334.618 122.934L333.365 124.447C332.988 124.899 332.65 125.384 332.354 125.895C332.09 126.35 331.956 126.871 331.965 127.4C331.964 127.648 331.893 127.891 331.763 128.1C331.703 128.2 331.623 128.286 331.527 128.351C331.432 128.415 331.324 128.457 331.21 128.474L328.666 128.904C328.42 128.944 328.169 128.884 327.966 128.737C327.866 128.67 327.783 128.581 327.722 128.476C327.661 128.371 327.625 128.254 327.616 128.132C327.509 127.316 327.57 126.487 327.795 125.696C327.997 124.987 328.292 124.31 328.674 123.683C329.038 123.082 329.452 122.515 329.911 121.987C330.37 121.462 330.782 120.968 331.171 120.491C331.522 120.066 331.827 119.604 332.082 119.113C332.305 118.687 332.384 118.198 332.307 117.72C332.244 117.301 332.082 116.904 331.835 116.563C331.589 116.222 331.265 115.947 330.891 115.762C329.969 115.301 328.922 115.172 327.919 115.396C327.012 115.533 326.168 115.953 325.503 116.598C324.838 117.243 324.383 118.083 324.2 119.002C324.151 119.227 324.061 119.44 323.936 119.631C323.785 119.8 323.576 119.903 323.352 119.917L320.645 120.371C320.453 120.404 320.256 120.361 320.093 120.252C320.007 120.195 319.935 120.12 319.882 120.032C319.828 119.944 319.794 119.845 319.781 119.742C319.687 118.873 319.802 117.993 320.116 117.179C320.454 116.238 320.954 115.367 321.594 114.608C322.292 113.775 323.117 113.063 324.037 112.499C325.019 111.886 326.107 111.475 327.242 111.289ZM331.685 130.544C331.804 130.524 331.926 130.528 332.044 130.556C332.161 130.585 332.272 130.638 332.369 130.711C332.467 130.782 332.549 130.872 332.612 130.976C332.675 131.08 332.717 131.195 332.735 131.316L333.217 134.325C333.237 134.447 333.233 134.572 333.205 134.692C333.177 134.813 333.126 134.926 333.054 135.026C332.986 135.126 332.898 135.211 332.797 135.276C332.695 135.34 332.581 135.382 332.463 135.4L329.584 135.885C329.466 135.905 329.345 135.9 329.229 135.872C329.113 135.843 329.004 135.791 328.907 135.718C328.808 135.649 328.723 135.56 328.659 135.456C328.594 135.351 328.552 135.235 328.534 135.113L328.052 132.096C328.016 131.848 328.078 131.596 328.224 131.394C328.369 131.193 328.587 131.059 328.83 131.022L331.685 130.544Z" fill="#780014"/>
<g opacity="0.2">
<path d="M327.242 111.289C328.271 111.115 329.319 111.094 330.354 111.225C331.35 111.341 332.316 111.637 333.21 112.101C334.063 112.547 334.811 113.177 335.404 113.947C336.032 114.773 336.437 115.753 336.578 116.789C336.74 117.595 336.74 118.427 336.578 119.233C336.417 119.934 336.154 120.608 335.8 121.231C335.454 121.832 335.058 122.401 334.618 122.934L333.365 124.447C332.988 124.899 332.65 125.384 332.354 125.895C332.09 126.35 331.956 126.871 331.965 127.4C331.964 127.648 331.893 127.891 331.763 128.1C331.703 128.2 331.623 128.286 331.527 128.351C331.432 128.415 331.324 128.457 331.21 128.474L328.666 128.904C328.42 128.944 328.169 128.884 327.966 128.737C327.866 128.67 327.783 128.581 327.722 128.476C327.661 128.371 327.625 128.254 327.616 128.132C327.509 127.316 327.57 126.487 327.795 125.696C327.997 124.987 328.292 124.31 328.674 123.683C329.038 123.082 329.452 122.515 329.911 121.987C330.37 121.462 330.782 120.968 331.171 120.491C331.522 120.066 331.827 119.604 332.082 119.113C332.305 118.687 332.384 118.198 332.307 117.72C332.244 117.301 332.082 116.904 331.835 116.563C331.589 116.222 331.265 115.947 330.891 115.762C329.969 115.301 328.922 115.172 327.919 115.396C327.012 115.533 326.168 115.953 325.503 116.598C324.838 117.243 324.383 118.083 324.2 119.002C324.151 119.227 324.061 119.44 323.936 119.631C323.785 119.8 323.576 119.903 323.352 119.917L320.645 120.371C320.453 120.404 320.256 120.361 320.093 120.252C320.007 120.195 319.935 120.12 319.882 120.032C319.828 119.944 319.794 119.845 319.781 119.742C319.687 118.873 319.802 117.993 320.116 117.179C320.454 116.238 320.954 115.367 321.594 114.608C322.292 113.775 323.117 113.063 324.037 112.499C325.019 111.886 326.107 111.475 327.242 111.289ZM331.685 130.544C331.804 130.524 331.926 130.528 332.044 130.556C332.161 130.585 332.272 130.638 332.369 130.711C332.467 130.782 332.549 130.872 332.612 130.976C332.675 131.08 332.717 131.195 332.735 131.316L333.217 134.325C333.237 134.447 333.233 134.572 333.205 134.692C333.177 134.813 333.126 134.926 333.054 135.026C332.986 135.126 332.898 135.211 332.797 135.276C332.695 135.34 332.581 135.382 332.463 135.4L329.584 135.885C329.466 135.905 329.345 135.9 329.229 135.872C329.113 135.843 329.004 135.791 328.907 135.718C328.808 135.649 328.723 135.56 328.659 135.456C328.594 135.351 328.552 135.235 328.534 135.113L328.052 132.096C328.016 131.848 328.078 131.596 328.224 131.394C328.369 131.193 328.587 131.059 328.83 131.022L331.685 130.544Z" fill="black"/>
</g>
<path d="M353.772 119.83C354.003 120.002 354.16 120.26 354.207 120.548C354.255 120.837 354.191 121.133 354.029 121.374L351.975 124.319C351.807 124.556 351.555 124.715 351.273 124.764C350.991 124.813 350.701 124.748 350.466 124.582L347.649 122.536C347.533 122.453 347.435 122.347 347.36 122.223C347.285 122.1 347.235 121.963 347.214 121.82C347.173 121.541 347.237 121.256 347.393 121.024L349.447 118.07C349.613 117.833 349.865 117.673 350.147 117.625C350.421 117.583 350.7 117.651 350.925 117.816L353.772 119.83ZM365.66 99.858C366.676 100.591 367.582 101.47 368.352 102.469C369.095 103.419 369.667 104.497 370.04 105.653C370.397 106.757 370.516 107.928 370.39 109.084C370.244 110.315 369.789 111.486 369.068 112.483C368.53 113.289 367.843 113.978 367.045 114.512C366.335 114.963 365.565 115.304 364.758 115.523C363.975 115.737 363.176 115.881 362.369 115.953L360.082 116.152C359.399 116.216 358.722 116.339 358.059 116.518C357.466 116.679 356.927 117.004 356.503 117.458C356.299 117.661 356.047 117.806 355.772 117.879C355.638 117.912 355.499 117.914 355.364 117.885C355.23 117.856 355.103 117.797 354.994 117.712L352.504 115.905C352.267 115.73 352.105 115.468 352.053 115.173C352.023 115.034 352.025 114.89 352.059 114.752C352.093 114.614 352.157 114.485 352.247 114.377C352.826 113.6 353.554 112.953 354.387 112.475C355.136 112.054 355.937 111.738 356.768 111.535C357.565 111.338 358.377 111.21 359.195 111.153C359.973 111.105 360.751 111.042 361.467 110.97C362.109 110.913 362.743 110.783 363.357 110.58C363.892 110.413 364.358 110.069 364.68 109.601C364.969 109.196 365.157 108.724 365.228 108.228C365.298 107.731 365.249 107.224 365.084 106.751C364.679 105.578 363.901 104.578 362.875 103.91C361.023 102.556 359 102.511 356.806 103.774C356.585 103.919 356.34 104.021 356.083 104.077C355.949 104.087 355.815 104.069 355.688 104.025C355.562 103.982 355.444 103.912 355.344 103.822L352.699 101.896C352.506 101.762 352.372 101.556 352.325 101.323C352.303 101.203 352.305 101.08 352.334 100.962C352.362 100.844 352.415 100.733 352.489 100.638C353.105 99.8239 353.906 99.1762 354.823 98.7516C355.875 98.2536 357.005 97.9491 358.16 97.8521C359.426 97.7465 360.7 97.8486 361.934 98.1546C363.274 98.464 364.541 99.043 365.66 99.858Z" fill="#780014"/>
<g opacity="0.6">
<path d="M353.772 119.83C354.003 120.002 354.16 120.26 354.207 120.548C354.255 120.837 354.191 121.133 354.029 121.374L351.975 124.319C351.807 124.556 351.555 124.715 351.273 124.764C350.991 124.813 350.701 124.748 350.466 124.582L347.649 122.536C347.533 122.453 347.435 122.347 347.36 122.223C347.285 122.1 347.235 121.963 347.214 121.82C347.173 121.541 347.237 121.256 347.393 121.024L349.447 118.07C349.613 117.833 349.865 117.673 350.147 117.625C350.421 117.583 350.7 117.651 350.925 117.816L353.772 119.83ZM365.66 99.858C366.676 100.591 367.582 101.47 368.352 102.469C369.095 103.419 369.667 104.497 370.04 105.653C370.397 106.757 370.516 107.928 370.39 109.084C370.244 110.315 369.789 111.486 369.068 112.483C368.53 113.289 367.843 113.978 367.045 114.512C366.335 114.963 365.565 115.304 364.758 115.523C363.975 115.737 363.176 115.881 362.369 115.953L360.082 116.152C359.399 116.216 358.722 116.339 358.059 116.518C357.466 116.679 356.927 117.004 356.503 117.458C356.299 117.661 356.047 117.806 355.772 117.879C355.638 117.912 355.499 117.914 355.364 117.885C355.23 117.856 355.103 117.797 354.994 117.712L352.504 115.905C352.267 115.73 352.105 115.468 352.053 115.173C352.023 115.034 352.025 114.89 352.059 114.752C352.093 114.614 352.157 114.485 352.247 114.377C352.826 113.6 353.554 112.953 354.387 112.475C355.136 112.054 355.937 111.738 356.768 111.535C357.565 111.338 358.377 111.21 359.195 111.153C359.973 111.105 360.751 111.042 361.467 110.97C362.109 110.913 362.743 110.783 363.357 110.58C363.892 110.413 364.358 110.069 364.68 109.601C364.969 109.196 365.157 108.724 365.228 108.228C365.298 107.731 365.249 107.224 365.084 106.751C364.679 105.578 363.901 104.578 362.875 103.91C361.023 102.556 359 102.511 356.806 103.774C356.585 103.919 356.34 104.021 356.083 104.077C355.949 104.087 355.815 104.069 355.688 104.025C355.562 103.982 355.444 103.912 355.344 103.822L352.699 101.896C352.506 101.762 352.372 101.556 352.325 101.323C352.303 101.203 352.305 101.08 352.334 100.962C352.362 100.844 352.415 100.733 352.489 100.638C353.105 99.8239 353.906 99.1762 354.823 98.7516C355.875 98.2536 357.005 97.9491 358.16 97.8521C359.426 97.7465 360.7 97.8486 361.934 98.1546C363.274 98.464 364.541 99.043 365.66 99.858Z" fill="white"/>
</g>
<path d="M103.069 277.422C102.991 275.034 104.672 251.695 104.672 251.695L93.562 259.942C95.8416 273.856 96.3317 277.143 96.3706 279.42C96.3236 279.61 96.3026 279.805 96.3084 280.001C96.3084 282.707 99.3037 284.164 101.63 285.971C103.607 287.553 105.713 288.959 107.924 290.174C109.612 291.041 113.051 291.121 113.471 290.007C110.639 287.794 106.523 284.482 104.267 281.959C103.194 280.749 103.155 279.794 103.069 277.422Z" fill="#FFA8A7"/>
<path d="M118.303 292.928C118.429 293.299 118.451 293.7 118.367 294.083C118.283 294.467 118.097 294.82 117.828 295.101C115.788 296.606 113.248 297.224 110.764 296.82C107.232 296.351 105.318 295.324 103.91 294.114C102.501 292.904 100.517 291.201 98.9148 290.842C97.6407 290.594 96.4287 290.085 95.3515 289.346C94.877 288.876 94.9392 286.791 94.9392 286.791L118.303 292.928Z" fill="#263238"/>
<path d="M96.3474 278.759C96.2166 278.763 96.0913 278.814 95.9932 278.903C95.8951 278.991 95.8305 279.112 95.8106 279.245C95.7017 279.818 95.585 281.489 95.3516 282.429C94.9905 284.089 94.8751 285.796 95.0093 287.491C95.2038 288.566 97.6156 289.306 99.1638 289.879C100.984 290.69 102.674 291.78 104.174 293.111C106.339 294.767 108.923 295.754 111.62 295.953C114.343 295.953 117.408 295.029 118.116 293.74C118.979 292.148 118.303 291.216 114.265 289.298C113.487 288.94 110.818 287.308 109.9 286.719C107.426 285.127 104.975 282.906 103.832 280.088C103.74 279.744 103.537 279.441 103.256 279.229C103.011 279.121 102.739 279.093 102.478 279.149C101.804 279.25 101.148 279.454 100.533 279.754C99.9962 280.017 99.226 280.327 99.2338 281.036C99.2504 281.281 99.3028 281.522 99.3894 281.752C99.4361 281.903 99.475 282.094 99.3894 282.182C99.3038 282.269 99.1171 282.182 99.0082 282.07C98.6122 281.656 98.2505 281.209 97.9268 280.733C97.7355 280.49 97.519 280.268 97.281 280.072C97.043 279.934 96.8143 279.78 96.5964 279.611C96.3007 279.396 96.363 279.093 96.3474 278.759Z" fill="#455A64"/>
<path d="M104.174 293.151C103.466 292.562 102.719 291.981 101.972 291.471C101.972 291.471 106.718 294.424 108.632 293.063C108.987 292.833 109.247 292.476 109.362 292.062C109.477 291.648 109.438 291.206 109.254 290.819C109.254 290.484 112.273 289.043 113.471 288.9C113.806 289.091 114.086 289.242 114.249 289.322C118.287 291.24 118.964 292.164 118.1 293.764C117.392 295.053 115.175 296.064 111.659 296.064C109.371 296.112 105.808 294.52 104.174 293.151Z" fill="#37474F"/>
<path d="M108.92 289.855C111.433 290.882 110.359 291.36 109.659 291.447C108.959 291.535 104.734 289.059 102.151 286.942C99.5683 284.825 97.7711 282.381 96.7753 281.585C96.4018 281.29 95.9973 280.924 95.6394 280.582C95.7094 280.017 95.7639 279.499 95.8106 279.229C95.8305 279.096 95.8951 278.975 95.9932 278.887C96.0912 278.798 96.2166 278.747 96.3474 278.743C96.3474 279.077 96.3007 279.388 96.5497 279.635C96.7676 279.804 96.9963 279.958 97.2343 280.096C97.4723 280.292 97.6888 280.514 97.88 280.757C98.2038 281.233 98.5655 281.68 98.9615 282.094C101.761 285.314 105.143 287.949 108.92 289.855Z" fill="#263238"/>
<path d="M109.48 291.089C109.422 291.087 109.367 291.065 109.324 291.026C109.299 291.005 109.278 290.98 109.262 290.952C109.247 290.923 109.237 290.891 109.233 290.859C109.229 290.826 109.232 290.793 109.241 290.762C109.25 290.73 109.265 290.701 109.285 290.675C109.877 290.047 110.594 289.555 111.387 289.234C112.18 288.912 113.031 288.769 113.883 288.813C113.95 288.821 114.011 288.855 114.053 288.909C114.096 288.962 114.116 289.031 114.109 289.099C114.101 289.165 114.068 289.226 114.017 289.268C113.967 289.309 113.902 289.329 113.837 289.322C113.068 289.289 112.3 289.421 111.583 289.709C110.867 289.997 110.217 290.434 109.674 290.994C109.651 291.023 109.621 291.047 109.587 291.063C109.554 291.08 109.517 291.089 109.48 291.089Z" fill="#F5F5F5"/>
<path d="M107.294 289.744C107.235 289.746 107.176 289.727 107.13 289.688C107.086 289.64 107.062 289.576 107.062 289.509C107.062 289.443 107.086 289.379 107.13 289.33C107.723 288.704 108.441 288.214 109.234 287.894C110.026 287.574 110.877 287.431 111.728 287.475C111.794 287.483 111.855 287.517 111.896 287.57C111.938 287.623 111.957 287.69 111.95 287.758C111.943 287.825 111.91 287.887 111.858 287.93C111.806 287.972 111.74 287.992 111.674 287.985C110.905 287.95 110.137 288.081 109.42 288.369C108.703 288.657 108.053 289.095 107.512 289.656C107.485 289.688 107.451 289.713 107.413 289.728C107.375 289.743 107.334 289.749 107.294 289.744Z" fill="#F5F5F5"/>
<path d="M105.1 288.399C105.043 288.399 104.988 288.38 104.944 288.343C104.898 288.295 104.872 288.231 104.872 288.164C104.872 288.097 104.898 288.032 104.944 287.985C105.538 287.359 106.255 286.87 107.048 286.55C107.84 286.23 108.691 286.087 109.542 286.13C109.575 286.133 109.607 286.143 109.636 286.158C109.665 286.174 109.691 286.195 109.712 286.221C109.733 286.247 109.749 286.277 109.758 286.309C109.768 286.341 109.771 286.375 109.768 286.409C109.765 286.442 109.756 286.475 109.74 286.505C109.725 286.534 109.704 286.561 109.679 286.582C109.653 286.604 109.624 286.62 109.593 286.63C109.561 286.639 109.528 286.643 109.496 286.64C108.726 286.605 107.958 286.736 107.241 287.024C106.524 287.312 105.874 287.75 105.333 288.311C105.304 288.344 105.268 288.369 105.227 288.385C105.187 288.4 105.143 288.405 105.1 288.399Z" fill="#F5F5F5"/>
<path d="M103.069 286.91C103.013 286.911 102.958 286.891 102.914 286.854C102.89 286.831 102.871 286.803 102.858 286.773C102.845 286.742 102.838 286.709 102.838 286.675C102.838 286.642 102.845 286.608 102.858 286.578C102.871 286.547 102.89 286.519 102.914 286.496C103.506 285.869 104.223 285.379 105.016 285.059C105.809 284.739 106.66 284.597 107.512 284.641C107.576 284.649 107.635 284.683 107.676 284.735C107.717 284.787 107.736 284.854 107.729 284.92C107.722 284.986 107.689 285.047 107.638 285.088C107.587 285.13 107.522 285.15 107.457 285.143C106.688 285.112 105.921 285.244 105.205 285.532C104.488 285.82 103.838 286.256 103.295 286.814C103.268 286.849 103.234 286.876 103.194 286.892C103.155 286.909 103.112 286.915 103.069 286.91Z" fill="#F5F5F5"/>
<path d="M101.085 285.422C101.029 285.419 100.975 285.399 100.93 285.366C100.884 285.318 100.858 285.254 100.858 285.187C100.858 285.12 100.884 285.055 100.93 285.008C101.571 284.324 102.357 283.8 103.227 283.474C104.096 283.149 105.027 283.031 105.948 283.129C105.981 283.131 106.013 283.14 106.042 283.155C106.072 283.17 106.097 283.192 106.118 283.218C106.139 283.245 106.153 283.275 106.162 283.308C106.17 283.34 106.171 283.374 106.166 283.408C106.158 283.474 106.125 283.534 106.074 283.576C106.023 283.618 105.958 283.637 105.893 283.631C105.056 283.546 104.211 283.654 103.42 283.946C102.628 284.237 101.911 284.706 101.319 285.318C101.292 285.354 101.256 285.382 101.215 285.4C101.174 285.418 101.13 285.426 101.085 285.422Z" fill="#F5F5F5"/>
<path d="M82.1412 262.322L70.9302 262.115C71.0936 269.772 72.2839 278.266 72.4862 285.446C72.4862 286.799 72.4862 295.953 72.953 298.739C73.731 302.918 78.5546 302.353 78.8113 299.853C79.0681 297.354 78.5001 286.663 78.5157 285.525C78.469 280.924 80.5774 273.147 81.6899 264.877C81.7366 264.503 82.0867 262.72 82.1412 262.322Z" fill="#FFA8A7"/>
<path d="M80.6318 301.588C80.8401 303.504 80.5725 305.442 79.8538 307.224C79.4981 307.932 78.9239 308.499 78.2206 308.839C77.5172 309.179 76.7239 309.271 75.9638 309.103C74.3067 308.856 72.1205 307.948 71.4514 305.919C70.8179 304.049 70.5948 302.06 70.7979 300.092L80.6318 301.588Z" fill="#263238"/>
<path d="M72.4551 284.57C71.7938 284.689 71.9183 287.993 71.856 291.312C71.786 294.878 70.9069 296.438 70.8213 299.359C70.7201 302.703 71.0391 304.135 72.3773 306.03C73.7154 307.924 77.8933 309.453 79.5816 306.396C80.9586 303.905 80.7719 301.318 80.2973 298.038C79.8227 294.759 79.4493 292.275 79.3248 289.68C79.2003 287.085 79.1459 284.785 78.5468 284.57C78.5468 284.936 78.5468 285.406 78.5468 285.764C78.5468 286.122 78.6013 287.356 78.2279 287.435C78.1703 287.128 78.1365 286.817 78.1267 286.504C78.144 286.215 78.0521 285.93 77.87 285.708C77.6449 285.538 77.3716 285.449 77.092 285.453C76.4256 285.377 75.7554 285.339 75.0847 285.342C74.7502 285.342 74.4079 285.342 74.0811 285.398C73.7937 285.42 73.5121 285.493 73.2486 285.613C73.1711 285.646 73.1013 285.697 73.0437 285.76C72.9861 285.823 72.9419 285.897 72.9141 285.979C72.8907 286.105 72.8907 286.235 72.9141 286.361C72.9414 286.588 72.9414 286.818 72.9141 287.045C72.9141 287.149 72.8441 287.276 72.7429 287.26C72.6418 287.244 72.6262 287.149 72.6185 287.069C72.5718 286.671 72.6185 286.377 72.5718 285.915C72.5718 285.7 72.5718 285.406 72.5718 285.191C72.5718 284.976 72.4629 284.785 72.4551 284.57Z" fill="#455A64"/>
<path d="M70.8757 298.404C70.8757 298.89 70.7746 302.082 71.6537 302.559C72.5329 303.037 72.8752 300.553 72.8752 300.553C72.8752 300.553 74.9369 299.67 78.1734 300.737C78.0645 301.262 78.7024 302.902 79.5193 302.456C80.3362 302.01 80.2973 298.372 80.2973 298.325C80.7408 301.509 80.8808 303.976 79.5193 306.396C77.8311 309.453 73.6376 307.909 72.315 306.03C70.9924 304.151 70.6735 302.703 70.759 299.359C70.7979 299.025 70.8524 298.715 70.8757 298.404Z" fill="#37474F"/>
<path d="M73.1319 300.737C73.2331 301.931 72.0505 301.652 71.8327 299.941C71.6148 298.229 72.1283 294.178 71.8327 291.28C71.8949 287.961 71.7704 284.657 72.4317 284.538C72.4279 284.578 72.4279 284.618 72.4317 284.657L72.5095 286.337C72.4942 286.576 72.4942 286.815 72.5095 287.053C72.7274 289.489 72.8596 294.217 72.8674 296.462C72.8811 297.891 72.9694 299.318 73.1319 300.737Z" fill="#263238"/>
<path d="M77.7999 300.737C77.9524 299.328 78.0277 297.911 78.0256 296.494C78.0256 294.265 78.1656 289.593 78.3834 287.141C78.4677 286.687 78.5017 286.225 78.4846 285.764C78.4846 285.43 78.4846 284.968 78.4846 284.649C78.4846 284.649 78.4846 284.602 78.4846 284.57C78.9202 284.737 79.0759 286.05 79.1692 287.706C79.1692 288.669 79.1692 289.863 79.0836 291.312C78.788 294.209 79.3015 298.317 79.0836 299.996C78.8658 301.676 77.7221 301.931 77.7999 300.737Z" fill="#263238"/>
<path d="M78.2588 300.824H78.1732C76.4922 300.23 74.665 300.23 72.984 300.824C72.9533 300.836 72.9206 300.842 72.8878 300.841C72.855 300.84 72.8227 300.833 72.7927 300.819C72.7627 300.805 72.7357 300.786 72.7131 300.761C72.6905 300.737 72.6728 300.708 72.6611 300.677C72.6493 300.645 72.6437 300.612 72.6446 300.578C72.6455 300.545 72.6528 300.512 72.6662 300.481C72.6796 300.45 72.6987 300.423 72.7225 300.4C72.7463 300.377 72.7744 300.359 72.805 300.346C74.5986 299.691 76.5586 299.691 78.3522 300.346C78.3827 300.358 78.4107 300.376 78.4345 300.398C78.4582 300.421 78.4772 300.449 78.4903 300.479C78.5034 300.51 78.5103 300.542 78.5106 300.576C78.5109 300.609 78.5047 300.642 78.4922 300.673C78.4731 300.719 78.4405 300.759 78.3988 300.786C78.357 300.813 78.3082 300.826 78.2588 300.824Z" fill="#F5F5F5"/>
<path d="M78.5779 298.181C78.5498 298.188 78.5204 298.188 78.4923 298.181C76.6022 297.581 74.5785 297.581 72.6884 298.181C72.6573 298.193 72.6243 298.197 72.5913 298.196C72.5583 298.194 72.526 298.185 72.4963 298.17C72.4666 298.155 72.4401 298.135 72.4184 298.109C72.3966 298.084 72.3799 298.054 72.3694 298.022C72.3585 297.991 72.3539 297.958 72.3559 297.924C72.3579 297.891 72.3664 297.859 72.3809 297.829C72.3955 297.799 72.4157 297.773 72.4405 297.751C72.4652 297.73 72.494 297.714 72.525 297.704C74.5218 297.053 76.6667 297.053 78.6635 297.704C78.7181 297.725 78.7639 297.764 78.7929 297.816C78.8219 297.868 78.8321 297.928 78.822 297.987C78.8118 298.046 78.7818 298.099 78.7372 298.137C78.6926 298.176 78.6362 298.197 78.5779 298.197V298.181Z" fill="#F5F5F5"/>
<path d="M72.5873 295.682C72.5397 295.681 72.4933 295.666 72.4535 295.639C72.4137 295.612 72.3819 295.575 72.3617 295.531C72.3353 295.47 72.3336 295.4 72.3569 295.338C72.3802 295.275 72.4266 295.224 72.4861 295.197C74.4515 294.406 76.634 294.392 78.609 295.157C78.6396 295.168 78.6676 295.186 78.6913 295.209C78.7151 295.231 78.734 295.259 78.7471 295.289C78.7602 295.32 78.7671 295.353 78.7674 295.386C78.7678 295.419 78.7615 295.452 78.749 295.483C78.7248 295.545 78.6778 295.595 78.6181 295.621C78.5585 295.648 78.491 295.65 78.4301 295.626C78.4301 295.626 75.3803 294.401 72.6962 295.626C72.6645 295.653 72.6272 295.672 72.5873 295.682Z" fill="#F5F5F5"/>
<path d="M72.5327 293.342C72.4858 293.342 72.4396 293.329 72.3997 293.304C72.3598 293.278 72.3277 293.242 72.3071 293.199C72.2802 293.138 72.2774 293.07 72.2992 293.007C72.321 292.945 72.3657 292.894 72.4238 292.864C73.3992 292.409 74.4566 292.168 75.5284 292.156C76.6002 292.143 77.6627 292.36 78.6478 292.793C78.6773 292.806 78.7038 292.826 78.7258 292.85C78.7477 292.875 78.7646 292.903 78.7755 292.934C78.7864 292.966 78.791 292.999 78.7892 293.032C78.7873 293.065 78.7789 293.097 78.7645 293.127C78.7512 293.157 78.732 293.184 78.7082 293.207C78.6844 293.229 78.6564 293.246 78.6259 293.258C78.5954 293.269 78.563 293.273 78.5307 293.272C78.4984 293.27 78.4668 293.261 78.4378 293.246C77.5135 292.855 76.5212 292.659 75.5209 292.671C74.5206 292.684 73.5331 292.904 72.6183 293.318C72.5913 293.331 72.5624 293.339 72.5327 293.342Z" fill="#F5F5F5"/>
<path d="M72.4783 290.723C72.4213 290.724 72.3657 290.705 72.3209 290.669C72.2761 290.633 72.2446 290.582 72.2319 290.525C72.2191 290.468 72.2258 290.409 72.2509 290.356C72.2759 290.304 72.3177 290.262 72.3694 290.237C75.3335 288.741 78.5311 290.174 78.6634 290.237C78.6943 290.249 78.7224 290.268 78.7459 290.292C78.7693 290.316 78.7875 290.344 78.7992 290.376C78.811 290.407 78.8161 290.441 78.8141 290.475C78.8122 290.509 78.8032 290.542 78.7879 290.572C78.7607 290.633 78.7112 290.68 78.65 290.704C78.5889 290.728 78.521 290.726 78.4611 290.699C78.4611 290.699 75.3491 289.306 72.595 290.699C72.559 290.718 72.5186 290.726 72.4783 290.723Z" fill="#F5F5F5"/>
<path d="M74.6179 187.856C70.6657 199.056 71.3581 206.084 72.035 217.825C72.6574 228.587 73.6454 238.068 73.6454 238.068C73.4898 239.978 70.8913 243.703 70.5334 252.141C70.4187 258.082 70.6786 264.025 71.3114 269.932C71.3114 269.932 76.4851 271.866 80.8575 269.932C80.8575 269.932 85.331 249.721 86.5524 239.843C87.6105 231.222 89.4622 220.205 89.4622 220.205L93.3522 239.803C92.5918 242.437 92.2015 245.168 92.1929 247.914C92.1929 252.523 94.2858 265.339 94.2858 265.339C94.2858 265.339 100.082 267.257 103.754 263.922C103.754 263.922 105.209 245.478 105.722 238.45C106.407 229.073 105.411 203.37 103.209 190.212L74.6179 187.856Z" fill="#455A64"/>
<path d="M89.5088 220.174L91.127 205.432C91.127 205.432 98.3702 204.445 101.653 201.284C100.712 202.792 99.4561 204.067 97.9768 205.021C96.4975 205.975 94.8307 206.582 93.0954 206.801L90.7614 220.524L93.4066 239.771L89.5088 220.174Z" fill="#37474F"/>
<path d="M107.418 176.927C103.894 173.217 97.5299 164.828 97.5299 164.828L93.9355 152.092C94.7389 152.134 95.544 152.134 96.3473 152.092C100.237 152.354 101.381 152.697 103.801 155.403C105.722 157.56 113.051 167.797 115.595 171.243L122.356 162.432C123.982 159.924 123.717 157.114 124.558 155.069C125.398 153.023 126.759 152.123 127.849 150.293C128.938 148.462 129.195 147.236 130.089 148.183C130.984 149.13 129.949 151.678 129.817 152.259C129.685 152.84 128.315 154.567 130.595 153.668C132.874 152.768 136.391 148.51 137.293 147.642C138.196 146.774 138.678 148.12 138.476 149.186C138.274 150.253 139.254 152.657 138.896 154.416C138.673 156.185 137.813 157.806 136.484 158.961C134.843 160.649 130.828 162.726 129.257 164.947C127.685 167.168 124.332 174.069 122.255 178.224C119.648 183.51 117.431 185.253 114.475 183.47C111.518 181.687 108.718 178.304 107.418 176.927Z" fill="#FFA8A7"/>
<path d="M95.0793 151.956C97.0685 151.753 99.0767 152.025 100.945 152.752C103.054 153.723 104.485 155.809 106.547 158.635C108.609 161.46 112.289 166.404 112.289 166.404C112.289 166.404 111.293 170.694 104.726 174.547L94.0056 163.251L95.0793 151.956Z" fill="#37474F"/>
<path d="M115.595 171.235C114.313 172.473 113.453 174.1 113.144 175.876C113.144 175.876 112.366 173.321 115.019 170.447L115.595 171.235Z" fill="#F28F8F"/>
<path d="M102.844 174.571C107.628 170.543 106.049 165.297 104.306 161.763C100.813 154.703 97.1799 151.925 95.6628 151.948L86.1478 152.044C81.6043 152.681 78.0877 152.362 76.9908 152.625C74.19 153.302 74.1277 155.658 74.0188 158.706C73.9021 162.05 72.2294 161.484 73.0774 167.009C74.0776 169.062 74.9557 171.175 75.7071 173.337C76.2205 175.247 77.6676 178.288 76.8974 181.377C76.6018 182.571 75.8082 183.765 74.6179 187.036C73.2682 190.713 72.2652 194.514 71.6226 198.387C71.6226 198.387 74.4 197.726 77.5587 194.288C77.5587 194.288 81.8766 200.202 92.2629 199.605C103.038 198.984 103.987 193.237 103.987 193.237L102.338 182.889C102.587 178.71 102.696 177.198 102.844 174.571Z" fill="#780014"/>
<path opacity="0.1" d="M96.6273 173.528C96.6273 173.528 92.7373 176.712 88.1705 175.184C86.8983 174.793 85.745 174.076 84.8203 173.101C83.8956 172.126 83.2303 170.924 82.8879 169.612C82.8879 169.612 82.4989 174.905 88.2405 176.608C89.7764 177.085 91.4215 177.043 92.9321 176.488C94.4427 175.933 95.7385 174.895 96.6273 173.528Z" fill="black"/>
<path d="M69.3896 147.403C67.9814 146.353 60.3959 156.74 63.9436 159.343C67.4912 161.946 71.2723 154.567 70.5099 151.081C69.7474 147.594 69.3896 147.403 69.3896 147.403Z" fill="#37474F"/>
<path d="M62.5044 142.245C64.4027 139.555 65.6942 137.525 67.4291 135.216C68.4094 133.903 69.0396 132.972 69.9809 131.626C70.6345 130.703 71.0157 129.923 71.747 129.628C72.5634 129.261 73.2931 128.718 73.8865 128.036C74.2499 127.606 74.5851 127.151 74.8901 126.675C75.9867 125.122 77.2969 123.738 78.7801 122.568C80.3361 121.334 82.0399 120.379 83.6271 119.201C84.5684 118.5 85.5798 117.346 84.4051 116.303C84.04 116.002 83.6065 115.799 83.1447 115.714C80.3128 115.133 77.8621 116.176 75.108 116.948C73.9104 117.282 72.7399 117.711 71.607 118.23C71.0446 118.463 70.5199 118.783 70.051 119.177C69.3995 119.874 68.8728 120.682 68.495 121.565C67.2891 123.834 64.745 125.855 62.9634 127.631C60.8706 129.716 59.0034 131.611 56.6149 133.927C54.4676 135.996 52.3592 137.907 50.3909 140.168C48.7649 142.03 49.3951 143.463 49.6129 143.949C51.0133 146.766 52.5382 147.761 54.3743 149.521C54.9811 150.094 55.5957 150.659 56.2103 151.224C58.591 153.421 60.9717 155.475 63.4458 157.592C66.091 159.821 67.1801 160.903 69.5375 163.068C71.0251 164.466 72.2648 166.117 73.2019 167.948C77.2864 168.64 81.3008 162.249 77.7998 154.774C77.224 153.565 76.3531 152.529 75.2713 151.765C70.9612 148.621 62.5044 142.245 62.5044 142.245Z" fill="#FFA8A7"/>
<path d="M62.5043 142.245C61.2301 143.9 59.518 145.146 57.5718 145.835C57.5718 145.835 60.1781 146.472 63.6791 143.137L62.5043 142.245Z" fill="#F28F8F"/>
<path d="M77.3175 152.561C76.3606 151.885 74.0344 150.444 69.3897 147.403C69.3897 147.403 70.1055 148.939 68.9774 152.8C67.8493 156.661 65.4686 159.104 63.9749 159.383C63.9749 159.383 66.5734 161.484 68.9696 163.856C71.3659 166.228 73.3342 167.908 74.719 170.662C74.719 170.662 78.1422 169.763 78.9202 163.825C79.4648 159.661 79.1381 154.774 77.3175 152.561Z" fill="#455A64"/>
<path d="M103.303 133.441C103.987 131.963 104.288 130.329 104.178 128.697C104.067 127.064 103.549 125.489 102.673 124.12C99.724 119.83 94.7526 117.752 89.2599 117.816H87.5561C80.1417 117.943 73.4042 124.455 73.272 131.786C73.272 136.944 73.272 141.712 76.0494 145.23C78.6091 148.502 82.6002 149.576 85.9689 150.102C92.4108 151.105 99.6462 150.34 102.571 145.851C102.571 145.851 98.6815 146.647 99.1716 142.524C99.2416 141.871 98.6348 141.155 97.5689 140.414C98.3155 139.091 99.1941 137.851 100.191 136.713C101.288 135.591 102.556 134.962 103.303 133.441Z" fill="#263238"/>
<path d="M101.381 137.206C101.342 144.888 98.9381 146.822 97.7322 147.395C96.5263 147.968 94.1612 147.666 91.8661 147.324L91.9439 151.932C91.9439 151.932 94.628 154.71 94.4724 156.828C94.3168 158.945 90.3646 159.216 87.3693 157.234C85.7193 156.116 84.2226 154.777 82.9191 153.254C82.6703 152.959 82.53 152.585 82.5223 152.195L82.3356 141.362C82.3356 141.362 81.1064 142.739 78.8657 141.226C78.3817 140.924 77.9644 140.521 77.6405 140.045C77.3165 139.568 77.093 139.028 76.984 138.458C76.875 137.889 76.8829 137.302 77.0073 136.736C77.1317 136.169 77.3698 135.636 77.7065 135.169C78.023 134.854 78.4032 134.614 78.8203 134.466C79.2373 134.317 79.6811 134.265 80.1202 134.311C80.5594 134.357 80.9833 134.501 81.362 134.734C81.7408 134.966 82.0651 135.28 82.3123 135.654C82.9969 136.96 82.9347 137.883 83.8683 137.732C84.8019 137.581 84.8408 136.546 84.903 135.805C84.9652 135.065 84.903 134.826 84.9964 133.855C87.2137 133.37 89.5088 130.21 89.7655 127.901C91.2676 128.657 92.9231 129.039 94.5969 129.016C97.0787 128.84 98.3624 128.331 99.5839 126.5C99.8749 126.919 100.108 127.377 100.276 127.861C100.622 128.842 100.882 129.851 101.054 130.878C101.331 132.975 101.441 135.091 101.381 137.206Z" fill="#FFA8A7"/>
<path d="M91.8661 147.324C89.4465 147.037 84.4595 145.668 83.6504 143.678C83.9774 144.688 84.5992 145.572 85.432 146.209C86.9413 147.483 91.8894 148.86 91.8894 148.86L91.8661 147.324Z" fill="#F28F8F"/>
<path d="M94.3013 143.184C94.3059 143.385 94.2523 143.582 94.1472 143.751C94.0422 143.92 93.8904 144.053 93.7113 144.134C93.5321 144.214 93.3336 144.239 93.1408 144.204C92.9481 144.169 92.7699 144.076 92.6288 143.937C92.4877 143.798 92.39 143.62 92.3482 143.424C92.3064 143.228 92.3224 143.024 92.394 142.838C92.4657 142.652 92.5898 142.491 92.7507 142.377C92.9116 142.263 93.102 142.201 93.2977 142.197C93.5584 142.193 93.8102 142.294 93.9982 142.479C94.1862 142.664 94.2952 142.918 94.3013 143.184Z" fill="#B16668"/>
<path d="M93.033 135.622C93.0458 135.764 93.0312 135.906 92.99 136.042C92.9487 136.177 92.8817 136.303 92.7927 136.411C92.7038 136.52 92.5946 136.61 92.4716 136.675C92.3486 136.741 92.2142 136.781 92.0761 136.793C91.8633 136.816 91.6486 136.773 91.4595 136.671C91.2705 136.569 91.1156 136.411 91.0149 136.217C90.9141 136.024 90.8721 135.805 90.8941 135.587C90.9162 135.369 91.0013 135.163 91.1387 134.995C91.276 134.827 91.4592 134.705 91.6648 134.645C91.8704 134.584 92.089 134.588 92.2926 134.655C92.4961 134.723 92.6754 134.851 92.8073 135.023C92.9393 135.195 93.0178 135.404 93.033 135.622Z" fill="#263238"/>
<path d="M100.051 135.169C100.07 135.428 99.9886 135.685 99.824 135.883C99.6594 136.081 99.4249 136.205 99.1716 136.227C99.044 136.243 98.9145 136.231 98.7919 136.191C98.6693 136.152 98.5566 136.085 98.4613 135.997C98.3661 135.908 98.2906 135.8 98.2399 135.679C98.1893 135.558 98.1648 135.428 98.168 135.296C98.1551 135.167 98.1676 135.037 98.2047 134.913C98.2418 134.789 98.3028 134.674 98.384 134.575C98.4652 134.475 98.565 134.394 98.6775 134.334C98.7901 134.275 98.9131 134.239 99.0393 134.229C99.2947 134.219 99.5441 134.311 99.7333 134.487C99.9226 134.663 100.037 134.908 100.051 135.169Z" fill="#263238"/>
<path d="M95.2036 134.174L95.9505 140.589L99.1636 139.22L95.2036 134.174Z" fill="#F28F8F"/>
<path d="M89.2832 132.852L91.1504 131.037C91.3829 131.302 91.507 131.648 91.4968 132.004C91.4867 132.359 91.3431 132.697 91.0959 132.948C90.9728 133.067 90.8271 133.16 90.6679 133.22C90.5086 133.28 90.3391 133.307 90.1695 133.298C90 133.289 89.834 133.245 89.6817 133.168C89.5293 133.092 89.3937 132.984 89.2832 132.852Z" fill="#263238"/>
<path d="M98.6269 130.448L100.696 132.04C100.601 132.184 100.478 132.306 100.335 132.4C100.192 132.493 100.031 132.555 99.8638 132.583C99.6962 132.61 99.5249 132.603 99.3603 132.56C99.1958 132.517 99.0415 132.441 98.9069 132.335C98.6359 132.115 98.4564 131.798 98.4044 131.448C98.3525 131.098 98.4319 130.741 98.6269 130.448Z" fill="#263238"/>
<path d="M68.7986 72.1414C70.2904 71.8504 71.8154 71.7807 73.3266 71.9344C74.7708 72.064 76.1805 72.4576 77.4889 73.0966C78.7442 73.7097 79.8539 74.5952 80.7409 75.6915C81.6762 76.8649 82.2981 78.2664 82.5459 79.7591C82.7791 80.9305 82.7791 82.1379 82.5459 83.3093C82.3367 84.3288 81.9801 85.3107 81.4878 86.2226C81.0099 87.11 80.4553 87.9518 79.8306 88.738C79.2082 89.534 78.617 90.2663 78.0646 90.9747C77.5363 91.6415 77.0676 92.3555 76.6642 93.108C76.2934 93.7762 76.1128 94.5372 76.1429 95.305C76.1475 95.6619 76.0589 96.0137 75.8862 96.3239C75.8047 96.4705 75.6929 96.5971 75.5585 96.6947C75.424 96.7924 75.2703 96.8587 75.1082 96.889L71.4438 97.5975C71.2698 97.6329 71.0905 97.6321 70.9167 97.5952C70.743 97.5583 70.5783 97.486 70.4324 97.3825C70.2806 97.2936 70.1524 97.1681 70.0588 97.0169C69.9652 96.8656 69.9092 96.6933 69.8956 96.5149C69.7169 95.3372 69.7752 94.1346 70.0667 92.9807C70.3434 91.9525 70.7487 90.9653 71.2726 90.0434C71.7792 89.1655 72.3597 88.3345 73.0076 87.5599C73.6533 86.7639 74.2368 86.0475 74.7736 85.347C75.2672 84.7179 75.6948 84.0376 76.0496 83.3172C76.3547 82.6921 76.4504 81.9816 76.3219 81.2954C76.2185 80.6905 75.9725 80.1206 75.6051 79.6351C75.2376 79.1496 74.76 78.7632 74.2135 78.5094C72.8579 77.8791 71.3353 77.7306 69.8878 78.0875C67.1596 78.6182 65.4091 80.4065 64.6363 83.4525C64.5683 83.7736 64.4473 84.0805 64.2784 84.36C64.0627 84.6151 63.7588 84.7749 63.4304 84.8057L59.5404 85.5619C59.2717 85.6109 58.9948 85.557 58.7624 85.4107C58.6402 85.3281 58.5363 85.2203 58.4572 85.0942C58.3782 84.9681 58.3258 84.8264 58.3034 84.6784C58.1354 83.4227 58.2689 82.1441 58.6924 80.9531C59.1328 79.5775 59.8071 78.2921 60.6841 77.1562C61.6674 75.9124 62.8388 74.8375 64.1539 73.9722C65.5713 73.0592 67.1489 72.4374 68.7986 72.1414ZM75.9017 99.8024C76.2477 99.7412 76.6033 99.8199 76.8936 100.022C77.1839 100.224 77.3862 100.533 77.4577 100.885L78.2357 105.231C78.2712 105.405 78.2709 105.585 78.2347 105.759C78.1986 105.933 78.1274 106.098 78.0257 106.242C77.9301 106.39 77.8065 106.517 77.6622 106.616C77.5179 106.714 77.3558 106.782 77.1854 106.815L73.0387 107.611C72.8672 107.648 72.6902 107.647 72.5188 107.61C72.3474 107.573 72.1853 107.5 72.0429 107.396C71.8981 107.298 71.774 107.172 71.6778 107.024C71.5816 106.877 71.5153 106.711 71.4827 106.537L70.7047 102.19C70.6722 102.016 70.6747 101.836 70.7122 101.662C70.7496 101.488 70.8212 101.324 70.9225 101.179C71.0157 101.029 71.1386 100.901 71.2833 100.802C71.428 100.703 71.5914 100.637 71.7628 100.606L75.9017 99.8024Z" fill="#780014"/>
<path d="M108.336 90.0753C109.254 90.5959 110.092 91.2501 110.826 92.0176C111.539 92.7367 112.116 93.584 112.53 94.517C112.926 95.4094 113.131 96.3785 113.129 97.3587C113.128 98.4036 112.86 99.4299 112.351 100.336C111.97 101.062 111.454 101.705 110.834 102.23C110.278 102.672 109.662 103.029 109.005 103.289C108.367 103.544 107.709 103.741 107.037 103.878L105.139 104.26C104.569 104.372 104.012 104.54 103.474 104.762C102.99 104.945 102.566 105.265 102.252 105.685C102.099 105.878 101.898 106.024 101.669 106.107C101.561 106.148 101.446 106.164 101.332 106.155C101.218 106.145 101.107 106.11 101.008 106.051L98.7592 104.762C98.5405 104.639 98.3783 104.433 98.3079 104.188C98.2697 104.072 98.2582 103.949 98.2744 103.827C98.2906 103.705 98.334 103.589 98.4013 103.488C98.8156 102.784 99.3663 102.175 100.02 101.697C100.612 101.274 101.255 100.931 101.933 100.678C102.584 100.441 103.253 100.26 103.933 100.137C104.61 100.017 105.24 99.898 105.831 99.7706C106.365 99.6565 106.886 99.4886 107.387 99.2691C107.82 99.0739 108.18 98.7419 108.414 98.3219C108.618 97.9525 108.732 97.538 108.746 97.1138C108.759 96.6896 108.672 96.2684 108.492 95.8861C108.048 94.9382 107.305 94.1702 106.384 93.7051C105.59 93.2357 104.674 93.0282 103.76 93.1108C102.847 93.1935 101.981 93.5622 101.28 94.1668C101.106 94.311 100.909 94.4216 100.696 94.4931C100.474 94.531 100.245 94.4797 100.058 94.3499L97.6622 92.9807C97.4926 92.8832 97.3649 92.7241 97.3043 92.535C97.274 92.4361 97.2646 92.3317 97.2767 92.2288C97.2887 92.1259 97.322 92.0268 97.3743 91.938C97.8285 91.198 98.4503 90.5809 99.1871 90.139C100.026 89.6211 100.948 89.26 101.91 89.0724C102.963 88.8611 104.043 88.8262 105.108 88.9689C106.243 89.1219 107.34 89.4976 108.336 90.0753ZM100.136 107.946C100.242 108.005 100.335 108.086 100.41 108.183C100.484 108.28 100.54 108.392 100.572 108.511C100.606 108.628 100.617 108.751 100.604 108.873C100.59 108.995 100.553 109.113 100.494 109.219L99.0392 111.886C98.9212 112.103 98.724 112.263 98.4907 112.332C98.2574 112.4 98.0071 112.372 97.7944 112.252L95.2504 110.795C95.1433 110.738 95.0496 110.658 94.9757 110.561C94.9018 110.463 94.8495 110.35 94.8225 110.23C94.7855 110.113 94.7726 109.99 94.7847 109.868C94.7967 109.746 94.8334 109.628 94.8925 109.522L96.3474 106.855C96.4064 106.748 96.4856 106.654 96.5805 106.579C96.6753 106.504 96.7839 106.449 96.8997 106.417C97.0142 106.38 97.1349 106.368 97.2542 106.382C97.3735 106.395 97.4887 106.435 97.5922 106.497L100.136 107.946Z" fill="#780014"/>
<g opacity="0.2">
<path d="M108.336 90.0753C109.254 90.5959 110.092 91.2501 110.826 92.0176C111.539 92.7367 112.116 93.584 112.53 94.517C112.926 95.4094 113.131 96.3785 113.129 97.3587C113.128 98.4036 112.86 99.4299 112.351 100.336C111.97 101.062 111.454 101.705 110.834 102.23C110.278 102.672 109.662 103.029 109.005 103.289C108.367 103.544 107.709 103.741 107.037 103.878L105.139 104.26C104.569 104.372 104.012 104.54 103.474 104.762C102.99 104.945 102.566 105.265 102.252 105.685C102.099 105.878 101.898 106.024 101.669 106.107C101.561 106.148 101.446 106.164 101.332 106.155C101.218 106.145 101.107 106.11 101.008 106.051L98.7592 104.762C98.5405 104.639 98.3783 104.433 98.3079 104.188C98.2697 104.072 98.2582 103.949 98.2744 103.827C98.2906 103.705 98.334 103.589 98.4013 103.488C98.8156 102.784 99.3663 102.175 100.02 101.697C100.612 101.274 101.255 100.931 101.933 100.678C102.584 100.441 103.253 100.26 103.933 100.137C104.61 100.017 105.24 99.898 105.831 99.7706C106.365 99.6565 106.886 99.4886 107.387 99.2691C107.82 99.0739 108.18 98.7419 108.414 98.3219C108.618 97.9525 108.732 97.538 108.746 97.1138C108.759 96.6896 108.672 96.2684 108.492 95.8861C108.048 94.9382 107.305 94.1702 106.384 93.7051C105.59 93.2357 104.674 93.0282 103.76 93.1108C102.847 93.1935 101.981 93.5622 101.28 94.1668C101.106 94.311 100.909 94.4216 100.696 94.4931C100.474 94.531 100.245 94.4797 100.058 94.3499L97.6622 92.9807C97.4926 92.8832 97.3649 92.7241 97.3043 92.535C97.274 92.4361 97.2646 92.3317 97.2767 92.2288C97.2887 92.1259 97.322 92.0268 97.3743 91.938C97.8285 91.198 98.4503 90.5809 99.1871 90.139C100.026 89.6211 100.948 89.26 101.91 89.0724C102.963 88.8611 104.043 88.8262 105.108 88.9689C106.243 89.1219 107.34 89.4976 108.336 90.0753ZM100.136 107.946C100.242 108.005 100.335 108.086 100.41 108.183C100.484 108.28 100.54 108.392 100.572 108.511C100.606 108.628 100.617 108.751 100.604 108.873C100.59 108.995 100.553 109.113 100.494 109.219L99.0392 111.886C98.9212 112.103 98.724 112.263 98.4907 112.332C98.2574 112.4 98.0071 112.372 97.7944 112.252L95.2504 110.795C95.1433 110.738 95.0496 110.658 94.9757 110.561C94.9018 110.463 94.8495 110.35 94.8225 110.23C94.7855 110.113 94.7726 109.99 94.7847 109.868C94.7967 109.746 94.8334 109.628 94.8925 109.522L96.3474 106.855C96.4064 106.748 96.4856 106.654 96.5805 106.579C96.6753 106.504 96.7839 106.449 96.8997 106.417C97.0142 106.38 97.1349 106.368 97.2542 106.382C97.3735 106.395 97.4887 106.435 97.5922 106.497L100.136 107.946Z" fill="black"/>
</g>
<path d="M53.5341 119.304C53.6377 119.204 53.7601 119.126 53.8937 119.076C54.0274 119.025 54.1698 119.003 54.3121 119.01C54.4581 119.012 54.6023 119.044 54.7359 119.104C54.8696 119.164 54.99 119.251 55.0901 119.36L57.4864 122.019C57.585 122.127 57.6616 122.255 57.7119 122.393C57.7621 122.532 57.785 122.68 57.7792 122.828C57.7735 122.976 57.7391 123.121 57.6782 123.256C57.6172 123.39 57.5309 123.511 57.4241 123.611L54.8879 125.999C54.7819 126.1 54.6574 126.178 54.5217 126.229C54.3859 126.281 54.2415 126.304 54.0969 126.298C53.9523 126.292 53.8102 126.257 53.6789 126.195C53.5476 126.133 53.4296 126.044 53.3319 125.935L50.9356 123.276C50.8361 123.169 50.7586 123.041 50.7077 122.902C50.6569 122.763 50.6336 122.615 50.6394 122.467C50.6452 122.319 50.6799 122.173 50.7415 122.039C50.803 121.904 50.8902 121.784 50.9979 121.684L53.5341 119.304ZM36.8849 103.265C37.7947 102.395 38.8217 101.663 39.9347 101.092C40.9915 100.545 42.1348 100.195 43.3112 100.057C44.4406 99.9296 45.5835 100.049 46.6644 100.407C47.8128 100.808 48.8396 101.508 49.6441 102.437C50.3174 103.137 50.8465 103.968 51.2001 104.881C51.4855 105.682 51.6533 106.521 51.6981 107.372C51.7425 108.201 51.7164 109.032 51.6203 109.856C51.5191 110.652 51.4258 111.448 51.3402 112.188C51.2557 112.885 51.2323 113.588 51.2702 114.29C51.296 114.92 51.4956 115.53 51.8459 116.049C51.9967 116.287 52.0826 116.561 52.0948 116.845C52.1016 116.984 52.0771 117.124 52.0231 117.252C51.9692 117.38 51.8873 117.494 51.7836 117.585L49.543 119.71C49.3305 119.907 49.0517 120.013 48.765 120.005C48.6227 120.01 48.4813 119.98 48.3527 119.918C48.224 119.856 48.112 119.763 48.0259 119.647C47.4034 118.906 46.9325 118.045 46.6411 117.115C46.3974 116.28 46.2614 115.416 46.2365 114.544C46.2122 113.703 46.2591 112.862 46.3765 112.029C46.4932 111.233 46.5866 110.437 46.6644 109.721C46.7341 109.062 46.7341 108.397 46.6644 107.739C46.6136 107.171 46.3812 106.637 46.0031 106.218C45.6741 105.845 45.2614 105.56 44.8006 105.386C44.3398 105.213 43.8446 105.157 43.3579 105.223C42.1574 105.382 41.0417 105.942 40.1837 106.815C38.5136 108.407 38.0545 110.426 38.8066 112.873C38.8989 113.128 38.9463 113.397 38.9466 113.669C38.9274 113.803 38.8824 113.931 38.8143 114.048C38.7462 114.164 38.6563 114.265 38.5499 114.345L36.1614 116.606C35.9945 116.771 35.771 116.862 35.539 116.861C35.4202 116.859 35.3031 116.831 35.1958 116.778C35.0884 116.726 34.9932 116.651 34.9166 116.558C34.2552 115.775 33.7929 114.837 33.5707 113.828C33.3067 112.673 33.2461 111.479 33.3917 110.302C33.5515 109.011 33.914 107.756 34.4654 106.584C35.0526 105.327 35.8745 104.199 36.8849 103.265Z" fill="#780014"/>
<g opacity="0.6">
<path d="M53.5341 119.304C53.6377 119.204 53.7601 119.126 53.8937 119.076C54.0274 119.025 54.1698 119.003 54.3121 119.01C54.4581 119.012 54.6023 119.044 54.7359 119.104C54.8696 119.164 54.99 119.251 55.0901 119.36L57.4864 122.019C57.585 122.127 57.6616 122.255 57.7119 122.393C57.7621 122.532 57.785 122.68 57.7792 122.828C57.7735 122.976 57.7391 123.121 57.6782 123.256C57.6172 123.39 57.5309 123.511 57.4241 123.611L54.8879 125.999C54.7819 126.1 54.6574 126.178 54.5217 126.229C54.3859 126.281 54.2415 126.304 54.0969 126.298C53.9523 126.292 53.8102 126.257 53.6789 126.195C53.5476 126.133 53.4296 126.044 53.3319 125.935L50.9356 123.276C50.8361 123.169 50.7586 123.041 50.7077 122.902C50.6569 122.763 50.6336 122.615 50.6394 122.467C50.6452 122.319 50.6799 122.173 50.7415 122.039C50.803 121.904 50.8902 121.784 50.9979 121.684L53.5341 119.304ZM36.8849 103.265C37.7947 102.395 38.8217 101.663 39.9347 101.092C40.9915 100.545 42.1348 100.195 43.3112 100.057C44.4406 99.9296 45.5835 100.049 46.6644 100.407C47.8128 100.808 48.8396 101.508 49.6441 102.437C50.3174 103.137 50.8465 103.968 51.2001 104.881C51.4855 105.682 51.6533 106.521 51.6981 107.372C51.7425 108.201 51.7164 109.032 51.6203 109.856C51.5191 110.652 51.4258 111.448 51.3402 112.188C51.2557 112.885 51.2323 113.588 51.2702 114.29C51.296 114.92 51.4956 115.53 51.8459 116.049C51.9967 116.287 52.0826 116.561 52.0948 116.845C52.1016 116.984 52.0771 117.124 52.0231 117.252C51.9692 117.38 51.8873 117.494 51.7836 117.585L49.543 119.71C49.3305 119.907 49.0517 120.013 48.765 120.005C48.6227 120.01 48.4813 119.98 48.3527 119.918C48.224 119.856 48.112 119.763 48.0259 119.647C47.4034 118.906 46.9325 118.045 46.6411 117.115C46.3974 116.28 46.2614 115.416 46.2365 114.544C46.2122 113.703 46.2591 112.862 46.3765 112.029C46.4932 111.233 46.5866 110.437 46.6644 109.721C46.7341 109.062 46.7341 108.397 46.6644 107.739C46.6136 107.171 46.3812 106.637 46.0031 106.218C45.6741 105.845 45.2614 105.56 44.8006 105.386C44.3398 105.213 43.8446 105.157 43.3579 105.223C42.1574 105.382 41.0417 105.942 40.1837 106.815C38.5136 108.407 38.0545 110.426 38.8066 112.873C38.8989 113.128 38.9463 113.397 38.9466 113.669C38.9274 113.803 38.8824 113.931 38.8143 114.048C38.7462 114.164 38.6563 114.265 38.5499 114.345L36.1614 116.606C35.9945 116.771 35.771 116.862 35.539 116.861C35.4202 116.859 35.3031 116.831 35.1958 116.778C35.0884 116.726 34.9932 116.651 34.9166 116.558C34.2552 115.775 33.7929 114.837 33.5707 113.828C33.3067 112.673 33.2461 111.479 33.3917 110.302C33.5515 109.011 33.914 107.756 34.4654 106.584C35.0526 105.327 35.8745 104.199 36.8849 103.265Z" fill="white"/>
</g>
<path d="M211.958 174.841C209.741 173.544 200.405 168.02 197.231 166.141C196.6 165.775 196.204 165.536 196.173 165.512C194.594 164.612 192.75 164.329 190.983 164.716C189.467 165.031 188.014 165.61 186.689 166.428C186.471 166.555 186.253 166.706 186.043 166.85C182.456 169.166 179.376 172.812 176.808 177.826C174.194 182.711 172.791 188.178 172.724 193.746C172.724 199.021 174.098 202.723 176.847 204.851C177.125 205.063 177.416 205.257 177.718 205.432C180.294 206.928 193.208 214.586 193.496 214.753H193.566C193.249 214.575 192.944 214.373 192.656 214.148C189.902 212.025 188.527 208.327 188.533 203.052C188.6 197.483 190.003 192.016 192.617 187.132C195.33 181.825 198.621 178.023 202.49 175.725C206.172 173.549 209.352 173.265 212.028 174.873L211.958 174.841Z" fill="#780014"/>
<path opacity="0.4" d="M212.028 174.889C209.352 173.297 206.173 173.578 202.49 175.733C198.896 177.856 195.797 181.305 193.193 186.081L177.384 176.712C179.827 172.247 182.713 168.959 186.035 166.818C186.245 166.682 186.463 166.523 186.681 166.396C188.005 165.577 189.458 165.001 190.976 164.692C192.742 164.301 194.588 164.584 196.165 165.488L197.223 166.117C200.397 167.988 209.733 173.512 211.951 174.81L212.028 174.889Z" fill="black"/>
<path opacity="0.3" d="M193.566 214.729H193.496C193.208 214.562 180.27 206.904 177.718 205.408C177.416 205.233 177.125 205.039 176.847 204.827C174.098 202.704 172.724 199.005 172.724 193.73C172.789 188.162 174.192 182.695 176.808 177.81C176.995 177.436 177.189 177.07 177.392 176.72L193.193 186.057C192.998 186.407 192.804 186.773 192.617 187.14C190.003 192.024 188.6 197.491 188.533 203.06C188.533 208.334 189.907 212.033 192.656 214.156C192.945 214.37 193.249 214.561 193.566 214.729Z" fill="black"/>
<path d="M205.065 38.2478C212.736 33.7106 219.266 31.7816 224.655 32.4609C226.848 32.7289 228.966 33.4492 230.879 34.5782C230.826 34.5493 230.774 34.5174 230.724 34.4827C228.872 33.4161 217.715 26.8331 215.164 25.2969C213.217 24.1328 211.055 23.3955 208.815 23.1317C203.421 22.4578 196.888 24.3841 189.217 28.9107C177.288 35.9526 167.693 46.3006 160.431 59.9547C153.17 73.6087 149.578 87.5467 149.656 101.769L165.457 111.106C165.348 96.8732 168.94 82.9326 176.233 69.2838C183.525 55.6351 193.136 45.2897 205.065 38.2478Z" fill="#780014"/>
<path opacity="0.2" d="M230.755 34.4908C228.869 33.4163 226.798 32.7269 224.655 32.461C219.272 31.7817 212.742 33.7107 205.065 38.2479C193.136 45.2846 183.541 55.6326 176.279 69.2919C175.976 69.8571 175.68 70.4302 175.392 70.9954L159.552 61.6424C159.84 61.0772 160.136 60.5041 160.439 59.9389C167.732 46.2955 177.327 35.9475 189.225 28.8949C196.907 24.363 203.439 22.4367 208.823 23.116C211.063 23.3824 213.225 24.1224 215.171 25.289C217.747 26.8412 228.903 33.4321 230.755 34.4908Z" fill="black"/>
<path opacity="0.3" d="M175.354 70.9794C168.658 84.0816 165.361 97.4517 165.465 111.09L149.664 101.753C149.565 88.1093 152.862 74.7392 159.552 61.6423L175.354 70.9794Z" fill="black"/>
<path d="M215.802 64.7071C212.933 63.1469 209.103 63.7572 204.31 66.5379C204.149 69.4552 203.561 72.3314 202.568 75.071C201.37 78.3717 197.884 85.1802 192.111 95.4964C186.131 106.163 181.806 116.349 179.134 126.055C176.485 135.638 175.139 145.548 175.135 155.507L175.213 160.466L185.996 166.834L191.022 169.803L190.937 164.836V164.772C190.954 154.846 192.299 144.969 194.936 135.416C197.607 125.71 201.935 115.526 207.92 104.865C213.688 94.5491 217.171 87.738 218.369 84.432C219.565 81.1636 220.177 77.7014 220.174 74.2113C220.174 69.4619 218.716 66.2938 215.802 64.7071Z" fill="#780014"/>
<path opacity="0.3" d="M216.821 88.0059C215.037 91.8055 212.07 97.4146 207.92 104.833C201.93 115.5 197.602 125.686 194.936 135.392C192.296 144.952 190.951 154.838 190.937 164.772V164.9L191.022 169.867L185.996 166.905L175.213 160.537L175.135 155.57C175.14 145.612 176.486 135.701 179.134 126.118C181.806 116.413 186.131 106.226 192.111 95.56C196.261 88.1306 199.233 82.5241 201.027 78.7405L216.821 88.0059Z" fill="black"/>
<path opacity="0.4" d="M220.174 74.2113C220.176 77.6903 219.567 81.1412 218.377 84.4001C218.042 85.3314 217.521 86.5334 216.821 88.006L201.027 78.6769C201.717 77.2016 202.236 75.9997 202.583 75.071C203.577 72.3314 204.164 69.4552 204.326 66.5379C209.119 63.7572 212.949 63.1469 215.817 64.7071C218.685 66.2672 220.138 69.4353 220.174 74.2113Z" fill="black"/>
<path d="M186.852 98.4494L165.465 111.09C165.356 96.8574 168.948 82.9168 176.24 69.268C183.533 55.6193 193.128 45.2713 205.026 38.224C212.697 33.6868 219.227 31.7579 224.616 32.4371C230.005 33.1164 234.318 36.1385 237.555 41.5036C240.796 46.8686 242.417 53.5603 242.417 61.5787C242.385 66.2339 241.863 70.8721 240.861 75.4132C239.649 80.8452 238.012 86.169 235.967 91.3332C234.66 94.7082 231.53 100.938 226.577 110.023C221.842 118.684 218.875 124.577 217.677 127.702C216.347 131.413 215.36 135.242 214.728 139.141C213.786 144.968 213.266 150.859 213.172 156.764L191.053 169.835L190.968 164.868C190.972 154.909 192.318 144.998 194.967 135.416C197.638 125.71 201.966 115.526 207.952 104.865C213.719 94.549 217.202 87.7379 218.4 84.4318C219.586 81.1614 220.187 77.6994 220.174 74.2112C220.174 69.4352 218.719 66.2671 215.809 64.707C212.9 63.1468 208.994 63.7995 204.093 66.6651C199.082 69.6262 194.972 74.0679 191.761 79.9902C188.622 85.6178 186.932 91.9699 186.852 98.4494Z" fill="#780014"/>
<path d="M202.451 175.781C206.419 173.43 209.806 173.284 212.612 175.343C215.418 177.402 216.821 181.066 216.821 186.336C216.736 191.935 215.307 197.427 212.659 202.327C209.889 207.714 206.541 211.566 202.615 213.885C198.688 216.204 195.353 216.3 192.609 214.172C189.861 212.049 188.486 208.348 188.486 203.068C188.554 197.499 189.956 192.032 192.571 187.148C195.294 181.852 198.587 178.063 202.451 175.781Z" fill="#780014"/>
</svg>
