<svg width="220" height="220" viewBox="0 0 220 220" fill="none" xmlns="http://www.w3.org/2000/svg">
<path d="M81.5553 54.2536C80.419 53.4771 79.0403 53.2134 77.722 53.5205C76.4037 53.8276 75.2534 54.6804 74.5238 55.8916L74.3682 56.1557L74.0711 56.6539L73.7174 57.2124C73.4839 57.5974 73.2434 57.9672 73.01 58.3597C72.5148 59.1145 72.0126 59.8693 71.4891 60.6241C70.4757 62.0839 69.387 63.4825 68.228 64.8133C67.1541 66.0619 65.9696 67.1969 64.691 68.2023C64.3868 68.4438 64.0826 68.6627 63.7785 68.8741C63.538 68.391 63.2974 67.8098 63.0711 67.1984C62.4555 65.4511 61.9451 63.6636 61.5431 61.8469C60.6801 58.0729 60.0151 54.0423 59.3855 50.1098V50.0192C59.2872 49.3673 58.969 48.776 58.4909 48.3567C58.0128 47.9374 57.4077 47.7187 56.7892 47.7419C56.1707 47.7651 55.5814 48.0285 55.132 48.4825C54.6827 48.9366 54.4042 49.5502 54.3489 50.2079C53.9407 54.487 53.8934 58.7966 54.2074 63.0848C54.3578 65.348 54.6795 67.5946 55.1695 69.8025C55.4489 71.0594 55.8397 72.2852 56.3367 73.4633C56.6405 74.1777 57.0027 74.8621 57.419 75.5087C57.9677 76.3659 58.6523 77.1143 59.4421 77.7203C60.518 78.5514 61.7945 79.036 63.1206 79.1167C63.7704 79.1582 64.4225 79.1049 65.0589 78.9582C65.3445 78.8961 65.6258 78.8129 65.9007 78.7091L66.2827 78.5657L66.5019 78.4827C67.6527 78.0225 68.7649 77.4595 69.8267 76.7995C71.793 75.5575 73.6225 74.084 75.2807 72.4065C76.8547 70.8231 78.3116 69.1122 79.6383 67.289C80.2891 66.3908 80.9187 65.4775 81.5129 64.5415C81.81 64.066 82.1 63.5905 82.383 63.0999L82.8003 62.3451L83.246 61.5148C83.8877 60.3033 84.07 58.8756 83.7556 57.525C83.4411 56.1745 82.6537 55.0038 81.5553 54.2536Z" fill="#CE7A63"/>
<path d="M58.7705 51.2873L62.7178 46.8868L54.9365 44.7432C54.9365 44.7432 51.6329 48.7285 54.696 52.2232L58.7705 51.2873Z" fill="#CE7A63"/>
<path d="M59.379 55.6047L54.3141 55.9519C54.1327 55.9689 53.95 55.945 53.7778 55.8818C53.6056 55.8187 53.4477 55.7177 53.3144 55.5854C53.181 55.4531 53.0752 55.2924 53.0037 55.1137C52.9322 54.935 52.8966 54.7423 52.8993 54.548V52.0949C52.9031 51.6942 53.0464 51.3092 53.3013 51.0149C53.5562 50.7206 53.9046 50.5379 54.2787 50.5023L59.3508 50.1551C59.5296 50.1425 59.7089 50.1697 59.8773 50.2349C60.0458 50.3001 60.1997 50.4019 60.3294 50.5339C60.459 50.6658 60.5616 50.8251 60.6306 51.0016C60.6996 51.178 60.7335 51.3678 60.7302 51.559V54.0121C60.7287 54.4086 60.5899 54.7906 60.3405 55.0845C60.0911 55.3785 59.7487 55.5638 59.379 55.6047Z" fill="#263238"/>
<path d="M61.9536 42.3882L54.9363 42.7505V44.7432L62.7176 46.8868L61.9536 42.3882Z" fill="#CE7A63"/>
<path d="M74.2767 56.2163C74.0362 63.2812 75.6915 79.5697 87.597 112.486L124.834 109.596C123.943 104.138 116.119 80.6038 114.931 54.6237C114.775 51.3554 111.868 48.5853 108.508 48.3966C106.385 48.2985 103.952 48.2456 101.589 48.3362C96.1276 48.4748 90.6771 48.9334 85.2626 49.7099C82.7856 50.1657 80.3342 50.768 77.9198 51.5139C76.9167 51.7699 76.0187 52.3671 75.3616 53.2153C74.7044 54.0636 74.3236 55.1169 74.2767 56.2163Z" fill="#780014"/>
<path opacity="0.3" d="M94.996 69.5157C94.9121 69.5166 94.8306 69.4849 94.7669 69.4266C94.7031 69.3683 94.6614 69.2873 94.6494 69.1986C94.6329 69.1006 94.6533 68.9995 94.7063 68.9175C94.7593 68.8355 94.8406 68.7792 94.9324 68.7609L101.299 67.5532C101.393 67.5352 101.489 67.5577 101.568 67.6157C101.646 67.6737 101.699 67.7626 101.716 67.8627C101.733 67.9627 101.712 68.0659 101.658 68.1494C101.603 68.2329 101.52 68.29 101.426 68.308L95.0597 69.5157H94.996Z" fill="white"/>
<path opacity="0.3" d="M95.1094 71.1007C95.0156 71.1087 94.9227 71.0766 94.8511 71.0115C94.7794 70.9464 94.735 70.8536 94.7274 70.7535C94.7199 70.6534 94.75 70.5542 94.811 70.4778C94.8721 70.4014 94.959 70.3539 95.0529 70.3459L101.419 69.1382C101.465 69.1296 101.512 69.1308 101.557 69.1418C101.602 69.1528 101.645 69.1733 101.682 69.2022C101.72 69.231 101.752 69.2676 101.776 69.3098C101.8 69.3519 101.816 69.3988 101.823 69.4477C101.839 69.5457 101.819 69.6468 101.766 69.7288C101.713 69.8108 101.631 69.8671 101.54 69.8855L95.1731 71.0932L95.1094 71.1007Z" fill="white"/>
<path opacity="0.3" d="M95.2084 72.7458C95.1245 72.7467 95.043 72.7151 94.9793 72.6568C94.9155 72.5985 94.8738 72.5175 94.8618 72.4288C94.8453 72.3307 94.8657 72.2297 94.9187 72.1477C94.9717 72.0657 95.053 72.0094 95.1448 71.991L101.511 70.7909C101.603 70.7732 101.698 70.7951 101.775 70.8516C101.852 70.9082 101.904 70.9949 101.922 71.0928C101.936 71.1917 101.914 71.2927 101.86 71.3744C101.806 71.4562 101.724 71.5122 101.632 71.5306L95.265 72.7383L95.2084 72.7458Z" fill="white"/>
<path opacity="0.3" d="M120.717 110.222C120.634 110.223 120.553 110.192 120.49 110.136C120.426 110.079 120.384 110 120.37 109.912C120.165 108.644 119.578 106.395 118.764 103.285C116.182 93.3218 111.358 74.7915 110.431 54.8875C110.427 54.7874 110.459 54.6894 110.522 54.6151C110.585 54.5408 110.674 54.4962 110.767 54.4912C110.861 54.4862 110.953 54.5212 111.023 54.5884C111.092 54.6556 111.134 54.7496 111.139 54.8497C112.065 74.6707 116.869 93.1482 119.451 103.081C120.264 106.214 120.865 108.478 121.064 109.784C121.08 109.882 121.06 109.983 121.007 110.065C120.954 110.147 120.872 110.203 120.781 110.222H120.717Z" fill="white"/>
<path opacity="0.4" d="M115.334 60.9034C111.846 59.2127 108.507 58.1635 108.967 60.9034C110.131 67.0947 113.102 72.7335 117.456 77.0108C116.558 71.9235 115.815 66.504 115.334 60.9034Z" fill="black"/>
<path d="M136.131 51.4758L139.152 46.2677L130.805 44.5769C130.805 44.5769 128.35 49.2642 132.219 52.8797L136.131 51.4758Z" fill="#CE7A63"/>
<path d="M138.267 42.0786L131.151 42.2069L130.804 44.5393L139.152 46.23L138.267 42.0786Z" fill="#CE7A63"/>
<path d="M19.8212 70.6705C14.162 70.6705 9.57104 59.6882 9.57104 46.1396C9.57104 32.591 14.162 21.6162 19.8212 21.6162H23.6624V70.6781L19.8212 70.6705Z" fill="#780014"/>
<path d="M23.662 70.663C29.323 70.663 33.9122 59.6835 33.9122 46.1396C33.9122 32.5957 29.323 21.6162 23.662 21.6162C18.001 21.6162 13.4119 32.5957 13.4119 46.1396C13.4119 59.6835 18.001 70.663 23.662 70.663Z" fill="#780014"/>
<path opacity="0.2" d="M23.662 70.663C29.323 70.663 33.9122 59.6835 33.9122 46.1396C33.9122 32.5957 29.323 21.6162 23.662 21.6162C18.001 21.6162 13.4119 32.5957 13.4119 46.1396C13.4119 59.6835 18.001 70.663 23.662 70.663Z" fill="black"/>
<path d="M25.8271 70.6705C20.1679 70.6705 15.5769 59.6882 15.5769 46.1396C15.5769 32.591 20.1679 21.6162 25.8271 21.6162H29.6682V70.6781L25.8271 70.6705Z" fill="#780014"/>
<path d="M29.6679 70.663C35.3289 70.663 39.918 59.6835 39.918 46.1396C39.918 32.5957 35.3289 21.6162 29.6679 21.6162C24.0069 21.6162 19.4177 32.5957 19.4177 46.1396C19.4177 59.6835 24.0069 70.663 29.6679 70.663Z" fill="#780014"/>
<path opacity="0.2" d="M29.6679 70.663C35.3289 70.663 39.918 59.6835 39.918 46.1396C39.918 32.5957 35.3289 21.6162 29.6679 21.6162C24.0069 21.6162 19.4177 32.5957 19.4177 46.1396C19.4177 59.6835 24.0069 70.663 29.6679 70.663Z" fill="black"/>
<path opacity="0.2" d="M30.5452 46.8867L39.5079 52.9854C39.7639 50.8955 39.8986 48.7906 39.9111 46.6829L30.5452 46.8867Z" fill="black"/>
<path d="M163.564 47.483H31.1251C30.7912 47.483 30.4709 47.3414 30.2348 47.0895C29.9986 46.8375 29.866 46.4958 29.866 46.1394C29.866 45.7831 29.9986 45.4414 30.2348 45.1894C30.4709 44.9375 30.7912 44.7959 31.1251 44.7959H163.564C163.897 44.7979 164.216 44.9401 164.452 45.1916C164.688 45.4431 164.821 45.7837 164.823 46.1394C164.821 46.4952 164.688 46.8357 164.452 47.0873C164.216 47.3388 163.897 47.481 163.564 47.483Z" fill="#263238"/>
<path opacity="0.9" d="M101.561 48.336C96.0992 48.4746 90.6488 48.9332 85.2342 49.7097C84.6117 49.8154 83.9892 49.9437 83.3879 50.072C81.7963 53.7857 83.6567 59.3032 88.6651 65.5303L90.1365 67.3569L91.0349 65.1454C94.2394 57.303 98.1088 51.9515 102.219 49.672L104.737 48.2983C103.683 48.2832 102.615 48.2983 101.561 48.336Z" fill="white"/>
<path d="M96.1353 30.2661C96.1919 35.5497 97.1611 45.1734 101.561 48.336C96.9701 50.8721 92.8742 56.7595 89.7334 64.5415C85.0434 58.7145 82.7939 52.9327 85.2344 49.7097C90.8016 47.8303 89.7546 43.543 87.8871 39.5879L96.1353 30.2661Z" fill="#CE7A63"/>
<path opacity="0.2" d="M92.7746 34.0701L87.8865 39.5801C88.3319 40.4844 88.7012 41.429 88.99 42.403C91.1617 41.8973 93.7296 39.2102 93.482 36.8704C93.4107 35.8982 93.1709 34.9487 92.7746 34.0701Z" fill="black"/>
<path d="M79.5748 15.51C77.6719 16.6271 76.0802 24.7034 80.5439 27.8208C85.0076 30.9381 83.8191 13.0343 79.5748 15.51Z" fill="#263238"/>
<path d="M98.0239 21.9181C97.6348 29.3 97.7621 33.6401 94.2888 37.5047C89.0612 43.3242 80.5158 40.154 78.8252 32.8325C77.3113 26.2431 78.2027 15.2759 84.9512 12.1736C86.4169 11.473 88.0278 11.1896 89.6267 11.351C91.2256 11.5123 92.7581 12.113 94.0747 13.0944C95.3913 14.0758 96.4471 15.4044 97.1392 16.9508C97.8313 18.4972 98.1361 20.2086 98.0239 21.9181Z" fill="#CE7A63"/>
<path d="M80.5442 16.974C74.2837 14.2945 69.2258 6.19551 72.5647 1.82523C76.9789 -4.00182 81.8953 5.68224 96.1139 9.14677C107.616 11.9395 103.365 22.6275 99.5448 26.9147C97.0972 27.6091 94.8123 28.1677 94.8123 28.1677C94.8123 28.1677 92.2869 21.7821 94.7699 17.8118C92.0888 18.7176 84.831 18.8082 80.5442 16.974Z" fill="#263238"/>
<path d="M71.5105 10.928C71.5105 10.928 76.052 17.0871 94.7696 17.8117C86.5073 20.2875 75.8963 18.8081 71.5105 10.928Z" fill="#263238"/>
<path d="M85.6447 32.9908C85.6046 32.9851 85.5682 32.9631 85.5431 32.9293C85.518 32.8955 85.5063 32.8526 85.5103 32.8097C85.5139 32.7629 85.5344 32.7195 85.5673 32.6886C85.6003 32.6576 85.6433 32.6415 85.6871 32.6436C86.3893 32.6964 87.0934 32.5746 87.744 32.2878C88.3946 32.0009 88.9739 31.5569 89.4363 30.9906C89.4493 30.9722 89.4656 30.9568 89.4842 30.9452C89.5028 30.9336 89.5234 30.9259 89.5447 30.9228C89.5661 30.9196 89.5878 30.921 89.6086 30.9268C89.6295 30.9326 89.6491 30.9427 89.6662 30.9566C89.6834 30.9705 89.6979 30.9879 89.7088 31.0077C89.7197 31.0275 89.7268 31.0495 89.7298 31.0722C89.7327 31.095 89.7315 31.1182 89.726 31.1404C89.7206 31.1627 89.7111 31.1836 89.6981 31.2019C89.2044 31.8189 88.5815 32.3031 87.8797 32.6152C87.1779 32.9273 86.4171 33.0586 85.6589 32.9984L85.6447 32.9908Z" fill="#263238"/>
<path d="M101.186 29.9717C100.266 31.5662 98.799 32.7145 97.0973 33.1721C94.8478 33.7533 95.152 31.9644 95.8735 29.7529C96.5243 27.7526 97.168 24.6806 99.4105 25.0807C101.653 25.4807 102.297 28.0093 101.186 29.9717Z" fill="#CE7A63"/>
<path d="M87.5474 24.2274C87.5474 24.8313 87.2574 25.3219 86.8896 25.3294C86.5217 25.337 86.2175 24.8615 86.2175 24.2576C86.2175 23.6538 86.5076 23.1707 86.8754 23.1556C87.2433 23.1405 87.5474 23.6311 87.5474 24.2274Z" fill="#263238"/>
<path d="M81.011 24.3788C81.011 24.9826 80.721 25.4733 80.3531 25.4884C79.9853 25.5035 79.6458 25.0128 79.6458 24.4165C79.6458 23.8202 79.9358 23.3221 80.3036 23.307C80.6715 23.2919 81.011 23.7825 81.011 24.3788Z" fill="#263238"/>
<path d="M83.2111 24.6353C83.2111 24.6353 81.9448 28.1224 80.5442 29.8283C81.5487 30.802 83.2394 30.3038 83.2394 30.3038L83.2111 24.6353Z" fill="#BA4D3C"/>
<path d="M90.3697 21.1028C90.3259 21.1062 90.2819 21.0999 90.2405 21.0844C90.1991 21.0688 90.1612 21.0442 90.1291 21.0122C89.8428 20.6944 89.4887 20.4551 89.0971 20.3145C88.7055 20.1739 88.2878 20.1362 87.8796 20.2046C87.8378 20.2157 87.7942 20.2176 87.7517 20.2102C87.7091 20.2028 87.6684 20.1862 87.632 20.1615C87.5956 20.1368 87.5643 20.1045 87.54 20.0665C87.5157 20.0285 87.4989 19.9856 87.4906 19.9404C87.4736 19.8485 87.4906 19.7531 87.5381 19.6743C87.5855 19.5955 87.6598 19.5394 87.7452 19.5177C88.2561 19.4269 88.7799 19.4687 89.2724 19.6395C89.7649 19.8103 90.2116 20.1051 90.5748 20.499C90.6362 20.5654 90.6705 20.6548 90.6705 20.7481C90.6705 20.8413 90.6362 20.9308 90.5748 20.9971C90.521 21.0582 90.4479 21.0958 90.3697 21.1028Z" fill="#263238"/>
<path d="M80.848 20.9063C80.8547 20.9437 80.8547 20.9821 80.848 21.0195C80.8499 21.066 80.8429 21.1125 80.8273 21.156C80.8118 21.1994 80.788 21.239 80.7575 21.2723C80.727 21.3056 80.6904 21.3318 80.65 21.3493C80.6096 21.3669 80.5662 21.3754 80.5226 21.3743C79.9945 21.3935 79.4696 21.2799 78.9904 21.0425C78.5111 20.8052 78.0909 20.4508 77.7638 20.0081C77.7386 19.9708 77.7208 19.9285 77.7115 19.8836C77.7021 19.8388 77.7014 19.7924 77.7093 19.7472C77.7172 19.702 77.7337 19.6591 77.7576 19.6209C77.7816 19.5827 77.8125 19.5501 77.8486 19.525C77.921 19.4725 78.0099 19.4526 78.096 19.4695C78.1821 19.4865 78.2584 19.539 78.3085 19.6156C78.5734 19.9616 78.91 20.2371 79.2918 20.4205C79.6736 20.6039 80.0901 20.6901 80.5085 20.6723C80.5809 20.6685 80.6526 20.6891 80.7135 20.7311C80.7744 20.773 80.8214 20.8343 80.848 20.9063Z" fill="#263238"/>
<path d="M137.228 57.7859C136.977 55.594 136.587 53.4227 136.061 51.2871C135.903 50.6636 135.542 50.1204 135.043 49.755C134.544 49.3896 133.939 49.2259 133.337 49.2931C132.735 49.3603 132.175 49.6542 131.758 50.1219C131.34 50.5897 131.093 51.2008 131.059 51.8457V51.9589C130.958 55.8767 130.575 59.7804 129.913 63.6356C129.75 64.4776 129.535 65.3071 129.27 66.1189C129.111 66.5891 128.915 67.0437 128.682 67.4775L128.569 67.4172C127.279 66.7899 126.077 65.9745 124.997 64.9943C123.697 63.8177 122.466 62.5574 121.311 61.2203C120.116 59.8314 118.934 58.3747 117.774 56.8575C117.208 56.1027 116.657 55.3479 116.098 54.5931L115.284 53.4308L114.527 52.3288L114.407 52.1476C113.626 50.9969 112.453 50.2185 111.141 49.979C109.828 49.7395 108.48 50.058 107.385 50.8663C106.29 51.6746 105.535 52.9084 105.282 54.3034C105.029 55.6983 105.298 57.1436 106.032 58.3294C106.378 58.8955 106.647 59.3182 106.951 59.7937C107.255 60.2692 107.56 60.707 107.871 61.1599C108.486 62.0581 109.137 62.9261 109.795 63.7941C111.125 65.5397 112.542 67.2077 114.039 68.7909C114.81 69.591 115.603 70.376 116.437 71.1383C117.272 71.9007 118.17 72.6479 119.104 73.3348C121.126 74.9049 123.384 76.0945 125.782 76.8521C127.692 77.4919 129.749 77.4227 131.618 76.6559C132.625 76.2065 133.536 75.5411 134.292 74.701C134.9 74.0265 135.417 73.2643 135.827 72.4366C136.454 71.1398 136.888 69.7469 137.115 68.3078C137.324 67.0939 137.452 65.8654 137.497 64.632C137.583 62.3459 137.493 60.0562 137.228 57.7859Z" fill="#CE7A63"/>
<path d="M99.2404 111.58L87.6038 112.486C87.6038 112.486 46.8153 122.585 48.3858 145.516C49.4398 160.914 55.5729 185.822 59.7819 201.545H69.3317C68.7587 185.822 69.7915 161.676 65.7948 145.939C71.9774 144.724 93.2134 136.625 100.712 133.953C102.518 130.47 103.34 126.504 103.078 122.534C102.817 118.564 101.484 114.759 99.2404 111.58Z" fill="#263238"/>
<path opacity="0.4" d="M85.7081 125.68C77.6792 132.186 76.5686 140.361 77.6792 142.286C81.2161 141.063 85.0219 139.682 88.6084 138.368C88.6296 133.787 89.0046 123.016 85.7081 125.68Z" fill="black"/>
<path d="M114.619 110.388L99.2405 111.58L114.619 110.395V110.388Z" fill="#263238"/>
<path d="M124.834 109.595L99.2404 111.581C99.2404 111.581 80.1408 127.326 80.7704 134.979C80.9458 138.007 81.5394 140.99 82.5318 143.833C87.6745 158.431 97.9388 185 104.206 201.53H113.919C111.04 184.554 107.92 157.261 101.568 144.92C108.288 141.72 117.477 137.674 123.808 132.519C130.911 126.775 124.834 109.595 124.834 109.595Z" fill="#263238"/>
<path d="M63.8212 216.022L69.7916 216.135C69.7916 216.135 69.6431 210.217 69.3318 201.53H59.782C62.0881 210.172 63.8212 216.022 63.8212 216.022Z" fill="#CE7A63"/>
<path d="M62.3285 211.267L70.1099 211.327C70.2497 211.327 70.3849 211.38 70.4913 211.477C70.5976 211.574 70.668 211.708 70.6899 211.856L71.6591 218.649C71.6804 218.818 71.6673 218.99 71.6207 219.154C71.5742 219.317 71.4952 219.468 71.3893 219.597C71.2833 219.725 71.1527 219.827 71.0064 219.897C70.8601 219.966 70.7015 220.001 70.5414 220C67.7118 219.924 63.6584 219.713 60.1215 219.683C55.9761 219.683 56.0822 219.864 51.2224 219.826C48.2867 219.826 47.6854 216.618 48.9234 216.347C54.5825 215.086 55.488 214.98 60.5388 211.818C61.0754 211.459 61.6954 211.269 62.3285 211.267Z" fill="#263238"/>
<path d="M109.703 216.022L116.282 216.135C116.282 216.135 115.376 210.164 113.919 201.53H104.192C107.467 210.157 109.703 216.022 109.703 216.022Z" fill="#CE7A63"/>
<path d="M108.196 211.267L115.977 211.327C116.119 211.33 116.256 211.384 116.367 211.479C116.477 211.575 116.554 211.707 116.586 211.855L117.951 218.649C117.985 218.813 117.984 218.984 117.947 219.148C117.911 219.311 117.84 219.464 117.74 219.595C117.639 219.725 117.513 219.829 117.369 219.899C117.225 219.969 117.069 220.004 116.911 220C114.081 219.924 110.014 219.713 106.47 219.683C102.324 219.683 105.706 219.864 100.846 219.826C97.9103 219.826 97.1251 216.671 98.3489 216.346C102.926 215.109 104.581 213.84 106.434 211.818C106.678 211.604 106.959 211.444 107.262 211.35C107.565 211.255 107.883 211.227 108.196 211.267Z" fill="#263238"/>
<path d="M165.028 70.6705C159.369 70.6705 154.778 59.6882 154.778 46.1396C154.778 32.591 159.369 21.6162 165.028 21.6162H168.869V70.6781L165.028 70.6705Z" fill="#780014"/>
<path opacity="0.2" d="M165.028 70.6705C159.369 70.6705 154.778 59.6882 154.778 46.1396C154.778 32.591 159.369 21.6162 165.028 21.6162H168.869V70.6781L165.028 70.6705Z" fill="black"/>
<path d="M168.869 70.663C174.53 70.663 179.119 59.6835 179.119 46.1396C179.119 32.5957 174.53 21.6162 168.869 21.6162C163.208 21.6162 158.619 32.5957 158.619 46.1396C158.619 59.6835 163.208 70.663 168.869 70.663Z" fill="#780014"/>
<path d="M171.034 70.6705C165.375 70.6705 160.784 59.6882 160.784 46.1396C160.784 32.591 165.375 21.6162 171.034 21.6162H174.875V70.6781L171.034 70.6705Z" fill="#780014"/>
<path opacity="0.2" d="M171.034 70.6705C165.375 70.6705 160.784 59.6882 160.784 46.1396C160.784 32.591 165.375 21.6162 171.034 21.6162H174.875V70.6781L171.034 70.6705Z" fill="black"/>
<path d="M185.988 35.7686C185.054 30.7039 183.448 26.5223 181.347 23.6918L181.899 23.2239C184.078 26.1676 185.726 30.4624 186.688 35.6479L185.988 35.7686Z" fill="#780014"/>
<path d="M187.602 46.1393H186.894C186.895 44.1376 186.799 42.1372 186.604 40.1463L187.312 40.0632C187.51 42.0817 187.606 44.1099 187.602 46.1393Z" fill="#780014"/>
<path d="M174.875 70.663C180.536 70.663 185.125 59.6835 185.125 46.1396C185.125 32.5957 180.536 21.6162 174.875 21.6162C169.214 21.6162 164.625 32.5957 164.625 46.1396C164.625 59.6835 169.214 70.663 174.875 70.663Z" fill="#780014"/>
<path d="M176.071 59.5373C172.98 59.5373 170.469 53.4989 170.469 46.1396C170.469 38.7803 172.98 32.7495 176.071 32.7495H178.193V59.5373H176.071Z" fill="#780014"/>
<path opacity="0.2" d="M178.165 59.5373H176.043C172.958 59.5373 170.447 53.4989 170.447 46.1472C170.447 38.7954 172.958 32.7495 176.043 32.7495H178.165C175.073 32.7495 172.569 38.7426 172.569 46.1472C172.569 53.5518 175.073 59.5373 178.165 59.5373Z" fill="black"/>
<path opacity="0.1" d="M178.165 59.5298C181.255 59.5298 183.76 53.5348 183.76 46.1396C183.76 38.7445 181.255 32.7495 178.165 32.7495C175.074 32.7495 172.569 38.7445 172.569 46.1396C172.569 53.5348 175.074 59.5298 178.165 59.5298Z" fill="white"/>
<path d="M216.427 145.826L196.981 217.713H200.554L220 145.826H216.427Z" fill="#263238"/>
<path d="M157.134 217.713H160.706L180.152 145.826H176.573L157.134 217.713Z" fill="#263238"/>
<path d="M153.936 211.553C150.139 211.553 146.497 209.944 143.812 207.079C141.127 204.214 139.619 200.328 139.619 196.276C139.619 192.225 141.127 188.339 143.812 185.474C146.497 182.609 150.139 180.999 153.936 180.999H156.115V211.553H153.936Z" fill="#780014"/>
<path opacity="0.2" d="M153.936 211.553C150.139 211.553 146.497 209.944 143.812 207.079C141.127 204.214 139.619 200.328 139.619 196.276C139.619 192.225 141.127 188.339 143.812 185.474C146.497 182.609 150.139 180.999 153.936 180.999H156.115V211.553H153.936Z" fill="black"/>
<path d="M156.115 211.553C164.022 211.553 170.433 204.714 170.433 196.276C170.433 187.839 164.022 180.999 156.115 180.999C148.208 180.999 141.797 187.839 141.797 196.276C141.797 204.714 148.208 211.553 156.115 211.553Z" fill="#780014"/>
<path opacity="0.1" d="M153.936 180.999H156.115C159.912 180.999 163.554 182.609 166.239 185.474C168.924 188.339 170.433 192.225 170.433 196.276C170.433 200.328 168.924 204.214 166.239 207.079C163.554 209.944 159.912 211.553 156.115 211.553H153.936C150.139 211.553 146.497 209.944 143.812 207.079C141.127 204.214 139.619 200.328 139.619 196.276C139.619 192.225 141.127 188.339 143.812 185.474C146.497 182.609 150.139 180.999 153.936 180.999Z" fill="black"/>
<path d="M157.693 211.553C153.895 211.553 150.254 209.944 147.569 207.079C144.883 204.214 143.375 200.328 143.375 196.276C143.375 192.225 144.883 188.339 147.569 185.474C150.254 182.609 153.895 180.999 157.693 180.999H159.871V211.553H157.693Z" fill="#780014"/>
<path opacity="0.2" d="M157.693 211.553C153.895 211.553 150.254 209.944 147.569 207.079C144.883 204.214 143.375 200.328 143.375 196.276C143.375 192.225 144.883 188.339 147.569 185.474C150.254 182.609 153.895 180.999 157.693 180.999H159.871V211.553H157.693Z" fill="black"/>
<path d="M159.871 211.553C167.779 211.553 174.189 204.714 174.189 196.276C174.189 187.839 167.779 180.999 159.871 180.999C151.964 180.999 145.554 187.839 145.554 196.276C145.554 204.714 151.964 211.553 159.871 211.553Z" fill="#780014"/>
<path opacity="0.1" d="M157.693 180.999H159.871C163.669 180.999 167.31 182.609 169.996 185.474C172.681 188.339 174.189 192.225 174.189 196.276C174.189 200.328 172.681 204.214 169.996 207.079C167.31 209.944 163.669 211.553 159.871 211.553H157.693C153.895 211.553 150.254 209.944 147.569 207.079C144.883 204.214 143.375 200.328 143.375 196.276C143.375 192.225 144.883 188.339 147.569 185.474C150.254 182.609 153.895 180.999 157.693 180.999Z" fill="black"/>
<path d="M162.128 199.846H186.604C186.674 199.846 186.743 199.831 186.808 199.802C186.873 199.773 186.932 199.731 186.981 199.677C187.031 199.624 187.07 199.561 187.096 199.491C187.122 199.422 187.135 199.347 187.134 199.272V193.279C187.135 193.204 187.122 193.13 187.096 193.06C187.07 192.991 187.031 192.927 186.981 192.874C186.932 192.821 186.873 192.778 186.808 192.749C186.743 192.72 186.674 192.706 186.604 192.706H162.128C161.688 192.706 161.253 192.798 160.847 192.977C160.441 193.157 160.072 193.42 159.762 193.751C159.451 194.083 159.205 194.476 159.036 194.91C158.868 195.343 158.782 195.807 158.782 196.276C158.782 197.223 159.134 198.131 159.762 198.8C160.389 199.47 161.24 199.846 162.128 199.846Z" fill="#263238"/>
<path d="M190.792 211.553C186.995 211.553 183.353 209.944 180.668 207.079C177.983 204.214 176.474 200.328 176.474 196.276C176.474 192.225 177.983 188.339 180.668 185.474C183.353 182.609 186.995 180.999 190.792 180.999H192.971V211.553H190.792Z" fill="#780014"/>
<path opacity="0.2" d="M190.792 211.553C186.995 211.553 183.353 209.944 180.668 207.079C177.983 204.214 176.474 200.328 176.474 196.276C176.474 192.225 177.983 188.339 180.668 185.474C183.353 182.609 186.995 180.999 190.792 180.999H192.971V211.553H190.792Z" fill="black"/>
<path d="M192.971 211.553C200.878 211.553 207.288 204.714 207.288 196.276C207.288 187.839 200.878 180.999 192.971 180.999C185.063 180.999 178.653 187.839 178.653 196.276C178.653 204.714 185.063 211.553 192.971 211.553Z" fill="#780014"/>
<path d="M194.541 211.553C190.744 211.553 187.102 209.944 184.417 207.079C181.732 204.214 180.223 200.328 180.223 196.276C180.223 192.225 181.732 188.339 184.417 185.474C187.102 182.609 190.744 180.999 194.541 180.999H196.72V211.553H194.541Z" fill="#780014"/>
<path opacity="0.2" d="M194.541 211.553C190.744 211.553 187.102 209.944 184.417 207.079C181.732 204.214 180.223 200.328 180.223 196.276C180.223 192.225 181.732 188.339 184.417 185.474C187.102 182.609 190.744 180.999 194.541 180.999H196.72V211.553H194.541Z" fill="black"/>
<path d="M196.72 211.553C204.627 211.553 211.037 204.714 211.037 196.276C211.037 187.839 204.627 180.999 196.72 180.999C188.812 180.999 182.402 187.839 182.402 196.276C182.402 204.714 188.812 211.553 196.72 211.553Z" fill="#780014"/>
<path opacity="0.2" d="M195.722 204.232C193.745 204.232 191.848 203.394 190.45 201.902C189.052 200.41 188.266 198.386 188.266 196.276C188.266 194.166 189.052 192.143 190.45 190.651C191.848 189.159 193.745 188.321 195.722 188.321H197.724V204.232H195.722Z" fill="black"/>
<path d="M197.724 204.232C201.842 204.232 205.18 200.67 205.18 196.276C205.18 191.882 201.842 188.321 197.724 188.321C193.606 188.321 190.268 191.882 190.268 196.276C190.268 200.67 193.606 204.232 197.724 204.232Z" fill="#780014"/>
<path d="M167.25 176.84C165.558 176.883 163.876 176.564 162.302 175.903C160.728 175.242 159.293 174.251 158.083 172.99C156.873 171.729 155.911 170.222 155.254 168.558C154.598 166.895 154.259 165.108 154.259 163.303C154.259 161.498 154.598 159.711 155.254 158.047C155.911 156.383 156.873 154.877 158.083 153.615C159.293 152.354 160.728 151.364 162.302 150.703C163.876 150.042 165.558 149.723 167.25 149.765H169.181V176.84H167.25Z" fill="#780014"/>
<path opacity="0.2" d="M167.25 176.84C165.558 176.883 163.876 176.564 162.302 175.903C160.728 175.242 159.293 174.251 158.083 172.99C156.873 171.729 155.911 170.222 155.254 168.558C154.598 166.895 154.259 165.108 154.259 163.303C154.259 161.498 154.598 159.711 155.254 158.047C155.911 156.383 156.873 154.877 158.083 153.615C159.293 152.354 160.728 151.364 162.302 150.703C163.876 150.042 165.558 149.723 167.25 149.765H169.181V176.84H167.25Z" fill="black"/>
<path d="M181.847 163.484C181.952 156.01 176.359 149.861 169.355 149.748C162.351 149.636 156.588 155.604 156.482 163.077C156.377 170.551 161.97 176.7 168.974 176.813C175.978 176.925 181.742 170.957 181.847 163.484Z" fill="#780014"/>
<path opacity="0.1" d="M167.25 149.765H169.181C172.494 149.849 175.645 151.312 177.96 153.842C180.276 156.371 181.572 159.767 181.572 163.303C181.572 166.839 180.276 170.234 177.96 172.764C175.645 175.294 172.494 176.757 169.181 176.84H167.25C165.558 176.883 163.876 176.564 162.302 175.903C160.728 175.242 159.293 174.251 158.083 172.99C156.873 171.729 155.911 170.222 155.254 168.558C154.598 166.895 154.259 165.108 154.259 163.303C154.259 161.498 154.598 159.711 155.254 158.047C155.911 156.383 156.873 154.877 158.083 153.615C159.293 152.354 160.728 151.364 162.302 150.703C163.876 150.042 165.558 149.723 167.25 149.765Z" fill="black"/>
<path d="M170.574 176.84C167.261 176.757 164.11 175.294 161.795 172.764C159.479 170.234 158.183 166.839 158.183 163.303C158.183 159.767 159.479 156.371 161.795 153.841C164.11 151.312 167.261 149.849 170.574 149.765H172.505V176.84H170.574Z" fill="#780014"/>
<path opacity="0.2" d="M170.574 176.84C167.261 176.757 164.11 175.294 161.795 172.764C159.479 170.234 158.183 166.839 158.183 163.303C158.183 159.767 159.479 156.371 161.795 153.841C164.11 151.312 167.261 149.849 170.574 149.765H172.505V176.84H170.574Z" fill="black"/>
<path d="M185.172 163.492C185.278 156.018 179.685 149.869 172.681 149.757C165.676 149.645 159.913 155.612 159.808 163.086C159.703 170.559 165.296 176.709 172.3 176.821C179.304 176.933 185.067 170.965 185.172 163.492Z" fill="#780014"/>
<path opacity="0.1" d="M170.574 149.765H172.505C174.197 149.723 175.879 150.042 177.453 150.703C179.027 151.364 180.462 152.354 181.672 153.615C182.882 154.877 183.844 156.383 184.501 158.047C185.157 159.711 185.496 161.498 185.496 163.303C185.496 165.108 185.157 166.895 184.501 168.558C183.844 170.222 182.882 171.729 181.672 172.99C180.462 174.251 179.027 175.242 177.453 175.903C175.879 176.564 174.197 176.883 172.505 176.84H170.574C167.261 176.757 164.11 175.294 161.795 172.764C159.479 170.234 158.183 166.839 158.183 163.303C158.183 159.767 159.479 156.371 161.795 153.842C164.11 151.312 167.261 149.849 170.574 149.765Z" fill="black"/>
<path d="M196.196 166.439H174.486C173.706 166.439 172.957 166.108 172.405 165.519C171.854 164.93 171.543 164.132 171.543 163.299C171.543 162.466 171.854 161.668 172.405 161.079C172.957 160.49 173.706 160.159 174.486 160.159H196.196C196.32 160.159 196.439 160.212 196.526 160.305C196.614 160.398 196.663 160.525 196.663 160.657V165.941C196.663 166.073 196.614 166.2 196.526 166.293C196.439 166.386 196.32 166.439 196.196 166.439Z" fill="#263238"/>
<path d="M199.903 176.84C198.212 176.883 196.529 176.564 194.955 175.903C193.381 175.242 191.946 174.251 190.736 172.99C189.526 171.729 188.564 170.222 187.908 168.558C187.251 166.895 186.913 165.108 186.913 163.303C186.913 161.498 187.251 159.711 187.908 158.047C188.564 156.383 189.526 154.877 190.736 153.615C191.946 152.354 193.381 151.364 194.955 150.703C196.529 150.042 198.212 149.723 199.903 149.765H201.813V176.84H199.903Z" fill="#780014"/>
<path opacity="0.2" d="M199.903 176.84C198.212 176.883 196.529 176.564 194.955 175.903C193.381 175.242 191.946 174.251 190.736 172.99C189.526 171.729 188.564 170.222 187.908 168.558C187.251 166.895 186.913 165.108 186.913 163.303C186.913 161.498 187.251 159.711 187.908 158.047C188.564 156.383 189.526 154.877 190.736 153.615C191.946 152.354 193.381 151.364 194.955 150.703C196.529 150.042 198.212 149.723 199.903 149.765H201.813V176.84H199.903Z" fill="black"/>
<path d="M201.834 176.84C208.839 176.84 214.518 170.781 214.518 163.306C214.518 155.832 208.839 149.773 201.834 149.773C194.829 149.773 189.15 155.832 189.15 163.306C189.15 170.781 194.829 176.84 201.834 176.84Z" fill="#780014"/>
<path d="M203.227 176.84C199.915 176.757 196.764 175.294 194.448 172.764C192.133 170.234 190.836 166.839 190.836 163.303C190.836 159.767 192.133 156.371 194.448 153.841C196.764 151.312 199.915 149.849 203.227 149.765H205.159V176.84H203.227Z" fill="#780014"/>
<path opacity="0.2" d="M203.227 176.84C199.915 176.757 196.764 175.294 194.448 172.764C192.133 170.234 190.836 166.839 190.836 163.303C190.836 159.767 192.133 156.371 194.448 153.841C196.764 151.312 199.915 149.849 203.227 149.765H205.159V176.84H203.227Z" fill="black"/>
<path d="M205.152 176.84C212.157 176.84 217.835 170.781 217.835 163.306C217.835 155.832 212.157 149.773 205.152 149.773C198.147 149.773 192.468 155.832 192.468 163.306C192.468 170.781 198.147 176.84 205.152 176.84Z" fill="#780014"/>
<path opacity="0.2" d="M204.268 170.349C203.382 170.379 202.5 170.22 201.674 169.88C200.847 169.54 200.093 169.026 199.457 168.368C198.82 167.711 198.314 166.924 197.968 166.054C197.622 165.183 197.444 164.248 197.444 163.302C197.444 162.357 197.622 161.422 197.968 160.551C198.314 159.681 198.82 158.894 199.457 158.237C200.093 157.579 200.847 157.065 201.674 156.725C202.5 156.385 203.382 156.226 204.268 156.256H206.057V170.349H204.268Z" fill="black"/>
<path d="M207.139 169.209C210.788 169.131 213.687 165.912 213.614 162.019C213.541 158.125 210.524 155.032 206.875 155.11C203.226 155.188 200.327 158.407 200.4 162.301C200.473 166.194 203.49 169.287 207.139 169.209Z" fill="#780014"/>
<path d="M18.8592 184.471C18.8592 179.528 14.6148 175.512 9.42958 175.512C4.24437 175.512 3.40781e-06 179.528 3.40781e-06 184.471C0.0105145 186.466 0.693523 188.39 1.92412 189.891C2.17176 190.207 2.35034 190.578 2.44692 190.977C2.5435 191.376 2.55567 191.793 2.48253 192.198C2.40939 192.602 2.25278 192.985 2.02406 193.317C1.79534 193.649 1.50023 193.922 1.16013 194.118C0.808422 194.323 0.515034 194.625 0.310865 194.993C0.106696 195.361 -0.000697375 195.781 3.40781e-06 196.209V216.181C3.40781e-06 216.717 0.199744 217.232 0.555279 217.611C0.910814 217.99 1.39302 218.203 1.89582 218.203H16.9633C17.4661 218.203 17.9484 217.99 18.3039 217.611C18.6594 217.232 18.8592 216.717 18.8592 216.181V196.209C18.8599 195.78 18.7518 195.359 18.5463 194.991C18.3407 194.623 18.0455 194.321 17.692 194.118C17.3519 193.922 17.0568 193.649 16.828 193.317C16.5993 192.985 16.4427 192.602 16.3696 192.198C16.2964 191.793 16.3086 191.376 16.4052 190.977C16.5017 190.578 16.6803 190.207 16.928 189.891C18.1611 188.391 18.8467 186.467 18.8592 184.471Z" fill="#780014"/>
<path opacity="0.2" d="M18.8592 184.471C18.8592 179.528 14.6148 175.512 9.42958 175.512C4.24437 175.512 3.40781e-06 179.528 3.40781e-06 184.471C0.0105145 186.466 0.693523 188.39 1.92412 189.891C2.17176 190.207 2.35034 190.578 2.44692 190.977C2.5435 191.376 2.55567 191.793 2.48253 192.198C2.40939 192.602 2.25278 192.985 2.02406 193.317C1.79534 193.649 1.50023 193.922 1.16013 194.118C0.808422 194.323 0.515034 194.625 0.310865 194.993C0.106696 195.361 -0.000697375 195.781 3.40781e-06 196.209V216.181C3.40781e-06 216.717 0.199744 217.232 0.555279 217.611C0.910814 217.99 1.39302 218.203 1.89582 218.203H16.9633C17.4661 218.203 17.9484 217.99 18.3039 217.611C18.6594 217.232 18.8592 216.717 18.8592 216.181V196.209C18.8599 195.78 18.7518 195.359 18.5463 194.991C18.3407 194.623 18.0455 194.321 17.692 194.118C17.3519 193.922 17.0568 193.649 16.828 193.317C16.5993 192.985 16.4427 192.602 16.3696 192.198C16.2964 191.793 16.3086 191.376 16.4052 190.977C16.5017 190.578 16.6803 190.207 16.928 189.891C18.1611 188.391 18.8467 186.467 18.8592 184.471Z" fill="white"/>
<path d="M13.3695 177.241H5.482C5.05359 177.239 4.64337 177.056 4.3411 176.732C4.03883 176.408 3.86914 175.969 3.86914 175.512C3.871 175.056 4.04152 174.62 4.34359 174.298C4.64566 173.975 5.05482 173.793 5.482 173.791H13.3695C13.7979 173.791 14.2088 173.972 14.5124 174.295C14.816 174.617 14.9875 175.055 14.9894 175.512C14.9875 175.97 14.8163 176.409 14.5129 176.732C14.2095 177.056 13.7985 177.239 13.3695 177.241Z" fill="#263238"/>
<path d="M10.9718 170.432H7.88755C7.32496 170.432 6.8689 170.919 6.8689 171.519V174.425C6.8689 175.025 7.32496 175.512 7.88755 175.512H10.9718C11.5344 175.512 11.9904 175.025 11.9904 174.425V171.519C11.9904 170.919 11.5344 170.432 10.9718 170.432Z" fill="#263238"/>
</svg>
