<svg width="210" height="220" viewBox="0 0 210 220" fill="none" xmlns="http://www.w3.org/2000/svg">
<path d="M176.091 107.635C175.68 107.45 175.225 107.353 174.764 107.353C174.303 107.353 173.848 107.45 173.437 107.635C173.285 107.695 173.154 107.789 173.058 107.909C172.961 108.029 172.903 108.17 172.889 108.317L173.437 140.416C173.451 140.516 173.494 140.611 173.561 140.692C173.629 140.774 173.719 140.838 173.823 140.879C174.113 141.009 174.434 141.077 174.759 141.077C175.084 141.077 175.404 141.009 175.695 140.879C175.799 140.838 175.888 140.774 175.956 140.692C176.024 140.611 176.067 140.516 176.081 140.416L176.628 108.317C176.615 108.171 176.558 108.031 176.463 107.911C176.369 107.792 176.241 107.696 176.091 107.635ZM155.622 105.92C155.211 105.735 154.756 105.638 154.295 105.638C153.834 105.638 153.379 105.735 152.968 105.92C152.826 105.981 152.707 106.078 152.629 106.2C152.551 106.322 152.516 106.462 152.53 106.602L148.879 132.053C148.913 132.156 148.973 132.25 149.053 132.331C149.133 132.411 149.232 132.474 149.343 132.516C149.634 132.646 149.954 132.713 150.279 132.713C150.604 132.713 150.925 132.646 151.215 132.516C151.313 132.474 151.394 132.408 151.449 132.326C151.505 132.243 151.532 132.149 151.528 132.053L156.295 106.597C156.251 106.445 156.167 106.304 156.05 106.187C155.933 106.069 155.786 105.978 155.622 105.92ZM196.545 106.602C196.557 106.461 196.521 106.321 196.442 106.2C196.363 106.078 196.244 105.981 196.101 105.92C195.69 105.735 195.235 105.638 194.774 105.638C194.313 105.638 193.858 105.735 193.447 105.92C193.286 105.98 193.142 106.072 193.028 106.189C192.914 106.307 192.832 106.446 192.79 106.597L197.561 132.053C197.558 132.149 197.585 132.243 197.641 132.326C197.696 132.408 197.777 132.474 197.874 132.516C198.165 132.646 198.485 132.713 198.81 132.713C199.136 132.713 199.456 132.646 199.747 132.516C199.858 132.475 199.958 132.412 200.038 132.332C200.119 132.251 200.178 132.156 200.211 132.053L196.545 106.602Z" fill="#455A64"/>
<path d="M208.377 102.721H208.346C208.346 98.3034 205.097 93.89 198.531 90.5197C185.405 83.7838 164.112 83.7838 150.996 90.5197C144.431 93.89 141.176 98.3034 141.182 102.721H141.15V105.09C141.229 109.448 144.514 113.792 150.996 117.116C164.123 123.856 185.416 123.856 198.531 117.116C205.014 113.792 208.299 109.448 208.377 105.09V102.721Z" fill="#780014"/>
<path opacity="0.6" d="M208.377 102.721H208.346C208.346 98.3034 205.097 93.89 198.531 90.5197C185.405 83.7838 164.112 83.7838 150.996 90.5197C144.431 93.89 141.176 98.3034 141.182 102.721H141.15V105.09C141.229 109.448 144.514 113.792 150.996 117.116C164.123 123.856 185.416 123.856 198.531 117.116C205.014 113.792 208.299 109.448 208.377 105.09V102.721Z" fill="white"/>
<path d="M150.991 90.5149C137.865 97.2555 137.865 108.178 150.991 114.914C164.117 121.65 185.41 121.654 198.526 114.914C211.642 108.173 211.658 97.2555 198.526 90.5149C185.395 83.7743 164.123 83.7789 150.991 90.5149Z" fill="#780014"/>
<path opacity="0.8" d="M150.991 90.5149C137.865 97.2555 137.865 108.178 150.991 114.914C164.117 121.65 185.41 121.654 198.526 114.914C211.642 108.173 211.658 97.2555 198.526 90.5149C185.395 83.7743 164.123 83.7789 150.991 90.5149Z" fill="white"/>
<path opacity="0.3" d="M154.913 97.2322C151.695 98.8825 151.695 101.557 154.913 103.212C158.131 104.867 163.346 104.863 166.563 103.212C169.781 101.562 169.781 98.8825 166.563 97.2322C163.346 95.5818 158.12 95.5818 154.913 97.2322Z" fill="#780014"/>
<path d="M153.949 96.9493C153.949 96.0221 154.621 95.1459 155.962 94.4598C158.647 93.0691 163.002 93.0691 165.693 94.4598C167.028 95.1459 167.701 96.0453 167.706 96.9493V99.6381C167.706 100.565 167.033 101.441 165.693 102.132C163.002 103.523 158.647 103.523 155.962 102.132C154.621 101.441 153.949 100.542 153.949 99.6381V96.9493Z" fill="#780014"/>
<path d="M153.949 96.9493C153.949 96.0221 154.621 95.1459 155.962 94.4598C158.647 93.0691 163.002 93.0691 165.693 94.4598C167.028 95.1459 167.701 96.0453 167.706 96.9493V99.6381C167.706 100.565 167.033 101.441 165.693 102.132C163.002 103.523 158.647 103.523 155.962 102.132C154.621 101.441 153.949 100.542 153.949 99.6381V96.9493Z" fill="#780014"/>
<path opacity="0.2" d="M153.949 96.9493C153.949 96.0221 154.621 95.1459 155.962 94.4598C158.647 93.0691 163.002 93.0691 165.693 94.4598C167.028 95.1459 167.701 96.0453 167.706 96.9493V99.6381C167.706 100.565 167.033 101.441 165.693 102.132C163.002 103.523 158.647 103.523 155.962 102.132C154.621 101.441 153.949 100.542 153.949 99.6381V96.9493Z" fill="white"/>
<path d="M165.666 99.476C162.976 100.867 158.621 100.867 155.935 99.476C153.249 98.0853 153.249 95.86 155.935 94.4832C158.621 93.1063 162.976 93.0924 165.666 94.4832C168.357 95.8739 168.352 98.0853 165.666 99.476Z" fill="#780014"/>
<path opacity="0.15" d="M165.666 99.476C162.976 100.867 158.621 100.867 155.935 99.476C153.249 98.0853 153.249 95.86 155.935 94.4832C158.621 93.1063 162.976 93.0924 165.666 94.4832C168.357 95.8739 168.352 98.0853 165.666 99.476Z" fill="black"/>
<path opacity="0.4" d="M155.831 102.077L155.935 102.132C158.621 103.523 162.975 103.523 165.661 102.132C166.351 101.809 166.932 101.329 167.345 100.742V98.062C166.931 98.6488 166.35 99.1284 165.661 99.4528L165.426 99.564C165.35 100.233 165.047 100.865 164.557 101.377C164.067 101.888 163.413 102.255 162.683 102.429C160.415 102.962 158.015 102.838 155.831 102.077Z" fill="#780014"/>
<path opacity="0.1" d="M166.464 98.9518C166.817 98.6928 167.114 98.3786 167.34 98.0247V100.704C167.114 101.058 166.817 101.372 166.464 101.631V98.9518Z" fill="black"/>
<path d="M155.028 94.2605C155.028 93.6903 155.549 93.0923 156.488 92.6148C157.827 92.0202 159.304 91.7107 160.801 91.7107C162.298 91.7107 163.774 92.0202 165.113 92.6148C166.042 93.0784 166.574 93.6903 166.574 94.2605V96.954C166.574 97.5242 166.052 98.1222 165.113 98.5997C163.774 99.1943 162.298 99.5038 160.801 99.5038C159.304 99.5038 157.827 99.1943 156.488 98.5997C155.56 98.1361 155.028 97.5242 155.028 96.954V94.2605Z" fill="#263238"/>
<path d="M155.028 94.2605V96.954C155.028 97.5242 155.549 98.1222 156.488 98.5997C157.827 99.1943 159.304 99.5038 160.801 99.5038C162.298 99.5038 163.774 99.1943 165.113 98.5997C166.042 98.1361 166.574 97.5242 166.574 96.954V94.2605C166.574 94.8261 166.052 95.4287 165.113 95.9062C163.773 96.4977 162.297 96.8054 160.801 96.8054C159.304 96.8054 157.828 96.4977 156.488 95.9062C155.56 95.4287 155.028 94.84 155.028 94.2605ZM166.428 97.2692C166.459 97.2182 166.485 97.1626 166.511 97.1116C166.496 97.204 166.468 97.2943 166.428 97.3805V97.2692ZM166.428 96.9679C166.459 96.9169 166.485 96.8659 166.511 96.8149C166.495 96.907 166.467 96.9972 166.428 97.0838V96.9679ZM166.428 96.6712L166.511 96.5135C166.496 96.6058 166.467 96.6961 166.428 96.7824V96.6712ZM166.428 96.3698C166.459 96.3186 166.486 96.266 166.511 96.2122C166.496 96.306 166.468 96.3978 166.428 96.4857V96.3698ZM166.428 96.0731L166.511 95.9155C166.496 96.0078 166.467 96.0981 166.428 96.1844V96.0731ZM166.428 95.7718C166.459 95.7208 166.485 95.6652 166.511 95.6142C166.496 95.7065 166.467 95.7967 166.428 95.8831V95.7718ZM166.428 95.4705C166.459 95.4195 166.485 95.3685 166.511 95.3175C166.495 95.4096 166.467 95.4998 166.428 95.5864V95.4705ZM166.428 95.1738C166.459 95.1228 166.485 95.0671 166.511 95.0162C166.496 95.1084 166.467 95.1987 166.428 95.285V95.1738ZM166.428 94.8724C166.459 94.8212 166.486 94.7686 166.511 94.7148C166.496 94.8086 166.468 94.9004 166.428 94.9883V94.8724ZM165.875 97.8672C166.049 97.7303 166.203 97.5746 166.334 97.4036V97.5473C166.208 97.7356 166.054 97.9072 165.875 98.0573V97.8672ZM165.875 97.5659C166.049 97.4291 166.203 97.2733 166.334 97.1023V97.246C166.209 97.4335 166.055 97.6038 165.875 97.7513V97.5659ZM165.875 97.2692C166.049 97.1323 166.203 96.9765 166.334 96.8056V96.9493C166.209 97.1368 166.055 97.3071 165.875 97.4546V97.2692ZM165.875 96.9679C166.049 96.8309 166.203 96.6752 166.334 96.5043V96.648C166.21 96.837 166.055 97.0088 165.875 97.1579V96.9679ZM165.875 96.6712C166.048 96.5332 166.202 96.3776 166.334 96.2076V96.3513C166.209 96.5388 166.055 96.7091 165.875 96.8566V96.6712ZM165.875 96.3698C166.049 96.2329 166.203 96.0772 166.334 95.9062V96.05C166.208 96.2382 166.054 96.4098 165.875 96.5599V96.3698ZM165.875 96.0685C166.049 95.9317 166.203 95.7759 166.334 95.6049V95.7672C166.209 95.9547 166.055 96.1249 165.875 96.2725V96.0685ZM165.875 95.7718C166.049 95.6349 166.203 95.4791 166.334 95.3082V95.4519C166.209 95.6394 166.055 95.8097 165.875 95.9572V95.7718ZM165.875 95.4705C166.049 95.3335 166.203 95.1778 166.334 95.0069V95.1506C166.21 95.3396 166.055 95.5114 165.875 95.6605V95.4705ZM165.051 98.3772L165.134 98.3354C165.362 98.2195 165.579 98.0861 165.781 97.9368V98.1315C165.566 98.2952 165.334 98.4397 165.087 98.5626H165.051V98.3772ZM165.051 98.0758L165.134 98.0388C165.362 97.9228 165.579 97.7894 165.781 97.6401V97.8301C165.565 97.994 165.333 98.1398 165.087 98.2659H165.051V98.0758ZM165.051 97.7791L165.134 97.7374C165.362 97.6214 165.579 97.488 165.781 97.3387V97.5288C165.567 97.6941 165.334 97.8401 165.087 97.9646H165.051V97.7791ZM165.051 97.4778L165.134 97.4361C165.364 97.3216 165.58 97.1881 165.781 97.0374V97.2321C165.565 97.3959 165.333 97.5418 165.087 97.6679H165.051V97.4778ZM165.051 97.1765L165.134 97.1394C165.362 97.0234 165.579 96.89 165.781 96.7407V96.9308C165.567 97.0961 165.334 97.2421 165.087 97.3665H165.051V97.1765ZM165.051 96.8798L165.134 96.8381C165.362 96.7221 165.579 96.5887 165.781 96.4394V96.6341C165.565 96.7963 165.333 96.9407 165.087 97.0652H165.051V96.8798ZM165.051 96.5784L165.134 96.5414C165.362 96.4254 165.579 96.292 165.781 96.1427V96.3327C165.565 96.4966 165.333 96.6424 165.087 96.7685H165.051V96.5784ZM165.051 96.2817L165.134 96.24C165.362 96.124 165.579 95.9906 165.781 95.8413V96.0314C165.567 96.1967 165.334 96.3427 165.087 96.4672H165.051V96.2817ZM165.051 95.9804L165.134 95.9387C165.362 95.8242 165.579 95.6924 165.781 95.5446V95.7347C165.565 95.8985 165.333 96.0444 165.087 96.1705H165.051V95.9804ZM164.336 98.6739C164.548 98.6006 164.755 98.517 164.957 98.4235V98.6275C164.756 98.7241 164.549 98.8108 164.336 98.8871V98.6739ZM164.336 98.3772C164.548 98.3024 164.756 98.2173 164.957 98.1222V98.3262C164.757 98.4247 164.549 98.5115 164.336 98.5858V98.3772ZM164.336 98.0758C164.549 98.003 164.757 97.9178 164.957 97.8209V98.0295C164.756 98.1261 164.549 98.2128 164.336 98.2891V98.0758ZM164.336 97.7791C164.548 97.7044 164.756 97.6192 164.957 97.5242V97.7281C164.756 97.8248 164.549 97.9114 164.336 97.9878V97.7791ZM164.336 97.4778C164.548 97.403 164.756 97.3179 164.957 97.2228V97.4314C164.756 97.5281 164.549 97.6147 164.336 97.6911V97.4778ZM164.336 97.1811C164.555 97.1023 164.764 97.0142 164.957 96.9261V97.1301C164.756 97.2268 164.549 97.3134 164.336 97.3897V97.1811ZM164.336 96.8798C164.548 96.805 164.756 96.7199 164.957 96.6248V96.8288C164.757 96.9273 164.549 97.0141 164.336 97.0884V96.8798ZM164.336 96.5784C164.549 96.5056 164.757 96.4204 164.957 96.3235V96.5321C164.756 96.6287 164.549 96.7154 164.336 96.7917V96.5784ZM164.336 96.2817C164.548 96.207 164.756 96.1218 164.957 96.0268V96.2308C164.756 96.3274 164.549 96.4141 164.336 96.4904V96.2817ZM163.544 98.9149C163.789 98.8547 164.024 98.7851 164.248 98.711V98.9196C164.024 98.9984 163.789 99.0679 163.544 99.1328V98.9149ZM163.544 98.6182C163.789 98.5533 164.024 98.4884 164.248 98.4096V98.6229C164.024 98.6971 163.789 98.7712 163.544 98.8315V98.6182ZM163.544 98.3169C163.782 98.2585 164.017 98.1889 164.248 98.1083V98.3215C164.017 98.4022 163.782 98.4718 163.544 98.5302V98.3169ZM163.544 98.0156C163.789 97.9553 164.024 97.8858 164.248 97.8116V98.0202C164.024 98.099 163.789 98.1686 163.544 98.2335V98.0156ZM163.544 97.7189C163.782 97.6605 164.017 97.5909 164.248 97.5103V97.7235C164.017 97.8041 163.782 97.8738 163.544 97.9321V97.7189ZM163.544 97.4175C163.789 97.3573 164.024 97.2877 164.248 97.2136V97.4222C164.024 97.501 163.789 97.5705 163.544 97.6354V97.4175ZM163.544 97.1208C163.789 97.0559 164.024 96.991 164.248 96.9122V97.1255C164.024 97.1997 163.789 97.2738 163.544 97.3341V97.1208ZM163.544 96.8195C163.782 96.7612 164.017 96.6915 164.248 96.6109V96.8241C164.017 96.9048 163.782 96.9744 163.544 97.0328V96.8195ZM163.544 96.5182C163.789 96.4579 164.024 96.3884 164.248 96.3142V96.5228C164.024 96.6016 163.789 96.6712 163.544 96.7361V96.5182ZM162.683 99.0911C162.947 99.0509 163.203 98.9999 163.45 98.9381V99.156C163.203 99.2147 162.947 99.2657 162.683 99.309V99.0911ZM162.683 98.7944C162.947 98.7511 163.203 98.7001 163.45 98.6414V98.8547C163.203 98.9134 162.947 98.9644 162.683 99.0077V98.7944ZM162.683 98.4931C162.947 98.4529 163.203 98.4019 163.45 98.3401V98.5487C163.205 98.609 162.928 98.6646 162.683 98.7063V98.4931ZM162.683 98.1964C162.947 98.15 163.203 98.099 163.45 98.0434V98.2566C163.203 98.3154 162.947 98.3664 162.683 98.4096V98.1964ZM162.683 97.895C162.947 97.8518 163.203 97.8008 163.45 97.7421V97.9553C163.205 98.0156 162.928 98.0666 162.683 98.1129V97.895ZM162.683 97.5937C162.947 97.5535 163.203 97.5025 163.45 97.4407V97.6586C163.203 97.7173 162.947 97.7683 162.683 97.8116V97.5937ZM162.683 97.297C162.947 97.2568 163.203 97.2058 163.45 97.144V97.3573C163.203 97.416 162.947 97.467 162.683 97.5103V97.297ZM162.683 96.9957C162.947 96.9524 163.203 96.9014 163.45 96.8427V97.0559C163.205 97.1162 162.928 97.1718 162.683 97.2136V96.9957ZM162.683 96.699C162.947 96.6526 163.203 96.6016 163.45 96.546V96.7592C163.203 96.8211 162.947 96.8721 162.683 96.9122V96.699ZM161.781 99.2024C162.057 99.2024 162.329 99.1514 162.595 99.1096V99.3229C162.33 99.3662 162.059 99.3986 161.781 99.4203V99.2024ZM161.781 98.9057C162.059 98.8809 162.33 98.8485 162.595 98.8083V99.0123C162.329 99.054 162.073 99.0865 161.781 99.105V98.9057ZM161.781 98.6043C162.057 98.5812 162.329 98.5487 162.595 98.5116V98.7249C162.33 98.765 162.059 98.7975 161.781 98.8222V98.6043ZM161.781 98.303C162.057 98.303 162.329 98.252 162.595 98.2103V98.4282C162.329 98.4653 162.073 98.4977 161.781 98.5209V98.303ZM161.781 98.0063C162.059 97.9816 162.33 97.9491 162.595 97.9089V98.1268C162.33 98.1701 162.059 98.2026 161.781 98.2242V98.0063ZM161.781 97.705C162.057 97.6818 162.329 97.654 162.595 97.6122V97.8255C162.33 97.8657 162.059 97.8981 161.781 97.9229V97.705ZM161.781 97.4083C162.059 97.3866 162.33 97.3542 162.595 97.3109V97.5288C162.329 97.5705 162.073 97.603 161.781 97.6215V97.4083ZM161.781 97.1069C162.057 97.1069 162.329 97.0513 162.595 97.0142V97.2275C162.33 97.2707 162.059 97.3032 161.781 97.3248V97.1069ZM161.781 96.8056C162.057 96.8056 162.329 96.7546 162.595 96.7129V96.9308C162.329 96.9725 162.073 97.0003 161.781 97.0235V96.8056ZM160.848 99.2441C161.129 99.2441 161.411 99.2441 161.687 99.2116V99.4295C161.411 99.4295 161.129 99.462 160.848 99.462V99.2441ZM160.848 98.9428C161.129 98.9428 161.411 98.9428 161.687 98.9103V99.1282C161.411 99.1514 161.129 99.1606 160.848 99.1606V98.9428ZM160.848 98.6461C161.129 98.6461 161.411 98.6461 161.687 98.6136V98.8315C161.411 98.8315 161.129 98.8593 160.848 98.8639V98.6461ZM160.848 98.3447C161.129 98.3447 161.411 98.3447 161.687 98.3123V98.5487C161.411 98.5487 161.129 98.5812 160.848 98.5812V98.3447ZM160.848 98.0434C161.129 98.0434 161.411 98.0434 161.687 98.0109V98.2288C161.411 98.252 161.129 98.2613 160.848 98.2613V98.0434ZM160.848 97.7467C161.129 97.7467 161.411 97.7467 161.687 97.7142V97.9321C161.411 97.9321 161.129 97.9646 160.848 97.9646V97.7467ZM160.848 97.4454C161.129 97.4454 161.411 97.4454 161.687 97.4129V97.6215C161.411 97.6215 161.129 97.654 160.848 97.654V97.4454ZM160.848 97.1487C161.129 97.1487 161.411 97.1487 161.687 97.1162V97.3341C161.411 97.3341 161.129 97.3619 160.848 97.3665V97.1487ZM160.848 96.8473C161.129 96.8473 161.411 96.8473 161.687 96.8149V97.0328C161.411 97.0328 161.129 97.0652 160.848 97.0652V96.8473ZM159.909 99.2116C160.19 99.2116 160.472 99.2441 160.754 99.2441V99.4759C160.472 99.4759 160.19 99.4759 159.909 99.4434V99.2116ZM159.909 98.9103C160.19 98.9335 160.472 98.9428 160.754 98.9428V99.1606C160.472 99.1606 160.19 99.1606 159.909 99.1282V98.9103ZM159.909 98.6136C160.19 98.6136 160.472 98.6414 160.754 98.6461V98.8639C160.472 98.8639 160.19 98.8639 159.909 98.8315V98.6136ZM159.909 98.3123C160.19 98.3123 160.472 98.3447 160.754 98.3447V98.5487C160.472 98.5487 160.19 98.5487 159.909 98.5162V98.3123ZM159.909 98.0109C160.19 98.0109 160.472 98.0434 160.754 98.0434V98.2613C160.472 98.2613 160.19 98.2613 159.909 98.2288V98.0109ZM159.909 97.7142C160.19 97.7142 160.472 97.7467 160.754 97.7467V97.9646C160.472 97.9646 160.19 97.9646 159.909 97.9321V97.7142ZM159.909 97.4129C160.19 97.4129 160.472 97.4454 160.754 97.4454V97.6632C160.472 97.6632 160.19 97.6632 159.909 97.6308V97.4129ZM159.909 97.1162C160.19 97.1162 160.472 97.144 160.754 97.1487V97.3665C160.472 97.3665 160.19 97.3666 159.909 97.3341V97.1162ZM159.909 96.8149C160.19 96.8381 160.472 96.8473 160.754 96.8473V97.0652C160.472 97.0652 160.19 97.0652 159.909 97.0328V96.8149ZM159.007 99.1328C159.273 99.1745 159.528 99.2024 159.82 99.2255V99.4434C159.546 99.4218 159.274 99.3893 159.007 99.3461V99.1328ZM159.007 98.8315C159.271 98.8717 159.542 98.9041 159.82 98.9288V99.1421C159.544 99.1421 159.273 99.0911 159.007 99.0494V98.8315ZM159.007 98.5348C159.273 98.5719 159.528 98.6043 159.82 98.6275V98.8454C159.546 98.8207 159.274 98.7882 159.007 98.748V98.5348ZM159.007 98.2335C159.273 98.2752 159.528 98.3076 159.82 98.3262V98.5441C159.544 98.5209 159.273 98.4884 159.007 98.4513V98.2335ZM159.007 97.9321C159.271 97.9723 159.542 98.0048 159.82 98.0295V98.2474C159.546 98.2226 159.274 98.1902 159.007 98.15V97.9321ZM159.007 97.6354C159.273 97.6772 159.528 97.705 159.82 97.7281V97.946C159.546 97.9213 159.274 97.8889 159.007 97.8487V97.6354ZM159.007 97.3341C159.271 97.3743 159.542 97.4067 159.82 97.4314V97.6215C159.544 97.6215 159.273 97.5705 159.007 97.5288V97.3341ZM159.007 97.0374C159.273 97.0745 159.528 97.1069 159.82 97.1301V97.348C159.546 97.3233 159.274 97.2908 159.007 97.2507V97.0374ZM159.007 96.7361C159.273 96.7778 159.528 96.8102 159.82 96.8288V97.0467C159.544 97.0235 159.273 96.9957 159.007 96.954V96.7361ZM158.146 98.9613C158.396 99.02 158.652 99.071 158.913 99.1143V99.3322C158.652 99.292 158.396 99.241 158.146 99.1792V98.9613ZM158.146 98.6646C158.396 98.7264 158.652 98.7774 158.913 98.8176V99.0123C158.652 98.9721 158.396 98.9211 158.146 98.8593V98.6646ZM158.146 98.3633C158.396 98.422 158.652 98.473 158.913 98.5162V98.7341C158.652 98.6924 158.391 98.6368 158.146 98.5765V98.3633ZM158.146 98.0666C158.396 98.1222 158.652 98.1732 158.913 98.2196V98.4328C158.652 98.3926 158.396 98.3416 158.146 98.2798V98.0666ZM158.146 97.7652C158.396 97.824 158.652 97.875 158.913 97.9182V98.1361C158.652 98.0897 158.391 98.0388 158.146 97.9785V97.7652ZM158.146 97.4639C158.396 97.5226 158.652 97.5736 158.913 97.6169V97.8348C158.652 97.7915 158.396 97.7405 158.146 97.6818V97.4639ZM158.146 97.1672C158.396 97.2259 158.652 97.2769 158.913 97.3202V97.5334C158.652 97.4933 158.396 97.4423 158.146 97.3805V97.1672ZM158.146 96.8659C158.396 96.9246 158.652 96.9756 158.913 97.0189V97.2367C158.652 97.195 158.391 97.1394 158.146 97.0791V96.8659ZM158.146 96.5692C158.396 96.6248 158.652 96.6758 158.913 96.7222V96.9354C158.652 96.8921 158.396 96.8411 158.146 96.7824V96.5692ZM157.353 98.7341C157.578 98.8083 157.812 98.8778 158.058 98.9381V99.156C157.812 99.0911 157.578 99.0216 157.353 98.9428V98.7341ZM157.353 98.4328C157.578 98.5116 157.812 98.5765 158.058 98.6414V98.8547C157.812 98.7944 157.578 98.7202 157.353 98.6461V98.4328ZM157.353 98.1315C157.584 98.2121 157.819 98.2817 158.058 98.3401V98.5487C157.819 98.4903 157.584 98.4207 157.353 98.3401V98.1315ZM157.353 97.8348C157.578 97.909 157.812 97.9785 158.058 98.0388V98.2566C157.812 98.1917 157.578 98.1222 157.353 98.0434V97.8348ZM157.353 97.5334C157.584 97.6141 157.819 97.6837 158.058 97.7421V97.9553C157.819 97.8969 157.584 97.8273 157.353 97.7467V97.5334ZM157.353 97.2367C157.578 97.3109 157.812 97.3805 158.058 97.4407V97.6215C157.812 97.5566 157.578 97.4871 157.353 97.4083V97.2367ZM157.353 96.9354C157.578 97.0142 157.812 97.0791 158.058 97.144V97.3573C157.812 97.297 157.578 97.2228 157.353 97.1487V96.9354ZM157.353 96.6341C157.584 96.7147 157.819 96.7843 158.058 96.8427V97.0559C157.819 96.9976 157.584 96.9279 157.353 96.8473V96.6341ZM157.353 96.3374C157.578 96.4116 157.812 96.4811 158.058 96.5414V96.7592C157.812 96.6943 157.578 96.6248 157.353 96.546V96.3374ZM156.639 98.4467C156.841 98.5394 157.048 98.6229 157.26 98.6971V98.9103C157.048 98.8331 156.841 98.7464 156.639 98.6507V98.4467ZM156.639 98.1454C156.841 98.2396 157.048 98.3247 157.26 98.4004V98.609C157.047 98.5337 156.84 98.447 156.639 98.3494V98.1454ZM156.639 97.844C156.84 97.9401 157.047 98.0253 157.26 98.099V98.3123C157.048 98.2351 156.841 98.1484 156.639 98.0527V97.844ZM156.639 97.5473C156.841 97.6416 157.048 97.7267 157.26 97.8023V98.0109C157.048 97.9337 156.841 97.8471 156.639 97.7513V97.5473ZM156.639 97.246C156.841 97.3402 157.048 97.4253 157.26 97.501V97.7142C157.048 97.637 156.841 97.5504 156.639 97.4546V97.246ZM156.639 96.9493C156.841 97.042 157.048 97.1255 157.26 97.1997V97.4129C157.048 97.3357 156.841 97.249 156.639 97.1533V96.9493ZM156.639 96.648C156.841 96.7422 157.048 96.8273 157.26 96.903V97.1116C157.047 97.0363 156.84 96.9496 156.639 96.852V96.648ZM156.639 96.3467C156.84 96.4427 157.047 96.5279 157.26 96.6016V96.8149C157.048 96.7377 156.841 96.651 156.639 96.5553V96.3467ZM156.639 96.05C156.841 96.1442 157.048 96.2293 157.26 96.3049V96.5135C157.048 96.4363 156.841 96.3497 156.639 96.2539V96.05ZM155.82 97.9599C156.022 98.1092 156.239 98.2426 156.467 98.3586L156.55 98.4004V98.6043H156.509C156.265 98.4798 156.034 98.3355 155.82 98.1732V97.9599ZM155.82 97.6632C156.022 97.8125 156.239 97.9459 156.467 98.0619L156.55 98.099V98.3076H156.509C156.265 98.1816 156.034 98.0357 155.82 97.8719V97.6632ZM155.82 97.3619C156.022 97.5112 156.239 97.6446 156.467 97.7606L156.55 97.8023V98.0063H156.509C156.263 97.8818 156.033 97.7359 155.82 97.5705V97.3619ZM155.82 97.0606C156.021 97.2113 156.238 97.3448 156.467 97.4593L156.55 97.501V97.7096H156.509C156.265 97.5835 156.034 97.4377 155.82 97.2738V97.0606ZM155.82 96.7639C156.022 96.9132 156.239 97.0466 156.467 97.1626C156.493 97.1777 156.521 97.1901 156.55 97.1997V97.4083H156.509C156.263 97.2838 156.033 97.1378 155.82 96.9725V96.7639ZM155.82 96.4625C156.022 96.6118 156.239 96.7452 156.467 96.8612L156.55 96.903V97.1069H156.509C156.265 96.9824 156.034 96.8381 155.82 96.6758V96.4625ZM155.82 96.1659C156.022 96.3151 156.239 96.4485 156.467 96.5645L156.55 96.6016V96.8102H156.509C156.265 96.6842 156.034 96.5383 155.82 96.3745V96.1659ZM155.82 95.8645C156.022 96.0138 156.239 96.1472 156.467 96.2632L156.55 96.3049V96.5089H156.509C156.263 96.3844 156.033 96.2385 155.82 96.0731V95.8645ZM155.82 95.5678C156.023 95.7156 156.239 95.8474 156.467 95.9619L156.55 96.0036V96.2122H156.509C156.265 96.0862 156.034 95.9403 155.82 95.7764V95.5678ZM155.262 97.4222C155.395 97.5932 155.551 97.7489 155.726 97.8858V98.0758C155.544 97.927 155.388 97.7552 155.262 97.5659V97.4222ZM155.262 97.1255C155.395 97.2966 155.551 97.4523 155.726 97.5891V97.7791C155.543 97.6329 155.387 97.4625 155.262 97.2738V97.1255ZM155.262 96.8241C155.395 96.9951 155.551 97.1509 155.726 97.2877V97.4732C155.543 97.3269 155.387 97.1565 155.262 96.9679V96.8241ZM155.262 96.5228C155.395 96.6938 155.551 96.8495 155.726 96.9864V97.1579C155.543 97.0101 155.387 96.8381 155.262 96.648V96.5228ZM155.262 96.2261C155.396 96.3961 155.552 96.5517 155.726 96.6897V96.8751C155.543 96.7289 155.387 96.5585 155.262 96.3698V96.2261ZM155.262 95.9248C155.395 96.0958 155.551 96.2515 155.726 96.3884V96.5784C155.544 96.4296 155.388 96.2578 155.262 96.0685V95.9248ZM155.262 95.6281C155.395 95.7992 155.551 95.9549 155.726 96.0917V96.2817C155.543 96.1355 155.387 95.9651 155.262 95.7764V95.6281ZM155.262 95.3268C155.395 95.4977 155.551 95.6535 155.726 95.7903V95.9758C155.543 95.8295 155.387 95.6591 155.262 95.4705V95.3268ZM155.174 95.0069C155.135 94.9184 155.105 94.8268 155.085 94.7334C155.111 94.7873 155.141 94.8399 155.174 94.891V95.0069ZM155.174 95.3036C155.135 95.2167 155.105 95.1266 155.085 95.0347C155.111 95.0857 155.142 95.1413 155.174 95.1923V95.3036ZM155.174 95.6049C155.135 95.5178 155.106 95.4278 155.085 95.336C155.111 95.387 155.142 95.438 155.174 95.489V95.6049ZM155.174 95.9016C155.135 95.8147 155.105 95.7247 155.085 95.6327C155.111 95.6837 155.142 95.7394 155.174 95.7903V95.9016ZM155.174 96.2029C155.135 96.1158 155.106 96.0258 155.085 95.9341C155.111 95.9851 155.142 96.036 155.174 96.087V96.2029ZM155.174 96.4996C155.134 96.4129 155.104 96.3228 155.085 96.2308C155.111 96.2846 155.141 96.3373 155.174 96.3884V96.4996ZM155.174 96.801C155.135 96.714 155.105 96.624 155.085 96.5321L155.174 96.6897V96.801ZM155.174 97.1023C155.135 97.0152 155.106 96.9252 155.085 96.8334C155.111 96.8844 155.142 96.9354 155.174 96.9864V97.1023ZM155.174 97.399C155.135 97.3121 155.105 97.222 155.085 97.1301L155.174 97.2877V97.399ZM155.726 95.489V95.6791C155.543 95.5312 155.387 95.3593 155.262 95.1691V95.0254C155.396 95.1899 155.552 95.3393 155.726 95.4705V95.489Z" fill="#455A64"/>
<path d="M153.948 87.1538C153.948 85.8789 155.487 84.3351 157.385 83.7C159.622 83.0603 162.027 83.0603 164.264 83.7C166.167 84.3351 167.706 85.8789 167.706 87.1538V94.2606C167.706 95.1646 167.033 96.0686 165.693 96.7547C163.002 98.1455 158.647 98.1455 155.961 96.7547C154.621 96.0686 153.948 95.1646 153.948 94.2606V89.4624V87.1538Z" fill="#780014"/>
<path opacity="0.2" d="M153.948 87.1538C153.948 85.8789 155.487 84.3351 157.385 83.7C159.622 83.0603 162.027 83.0603 164.264 83.7C166.167 84.3351 167.706 85.8789 167.706 87.1538V94.2606C167.706 95.1646 167.033 96.0686 165.693 96.7547C163.002 98.1455 158.647 98.1455 155.961 96.7547C154.621 96.0686 153.948 95.1646 153.948 94.2606V89.4624V87.1538Z" fill="white"/>
<path opacity="0.35" d="M165.421 89.8055C162.865 91.2704 158.725 91.2704 156.169 89.8055C153.614 88.3406 153.609 85.967 156.169 84.502C158.73 83.0371 162.871 83.0371 165.426 84.502C167.981 85.967 167.981 88.3498 165.421 89.8055Z" fill="white"/>
<path opacity="0.4" d="M165.129 89.3928C162.735 90.7604 158.871 90.7604 156.472 89.3928C154.073 88.0252 154.083 85.7999 156.472 84.4324C158.86 83.0648 162.73 83.0416 165.129 84.4324C167.528 85.8231 167.507 88.0205 165.129 89.3928Z" fill="white"/>
<path opacity="0.4" d="M156.457 96.9958L157.437 96.866C159.438 96.5948 161.291 95.7644 162.726 94.4951C164.162 93.2258 165.106 91.5833 165.421 89.8055C166.704 89.0731 167.34 88.1088 167.34 87.1492V95.3454C166.929 95.9332 166.35 96.4131 165.661 96.7362C163.142 98.0482 159.163 98.1316 156.457 96.9958Z" fill="#780014"/>
<path opacity="0.1" d="M166.464 89.0267C167.01 88.52 167.322 87.8503 167.34 87.1492V95.3454C167.114 95.6992 166.817 96.0133 166.464 96.2726V89.0267Z" fill="black"/>
<path d="M159.309 87.0053V86.7596H159.382C159.476 86.6186 159.611 86.5031 159.773 86.4258C160.122 86.2704 160.507 86.1895 160.897 86.1895C161.288 86.1895 161.672 86.2704 162.021 86.4258C162.183 86.5031 162.319 86.6186 162.412 86.7596H162.485V87.0053C162.472 87.1291 162.423 87.2476 162.341 87.3487C162.259 87.4497 162.149 87.5296 162.021 87.5801C161.672 87.7355 161.288 87.8164 160.897 87.8164C160.507 87.8164 160.122 87.7355 159.773 87.5801C159.646 87.5296 159.535 87.4497 159.454 87.3487C159.372 87.2476 159.322 87.1291 159.309 87.0053Z" fill="#37474F"/>
<path d="M162.021 87.3391C162.158 87.2993 162.277 87.2221 162.362 87.1184C162.446 87.0147 162.492 86.89 162.492 86.762C162.492 86.634 162.446 86.5092 162.362 86.4055C162.277 86.3019 162.158 86.2246 162.021 86.1848C161.672 86.0294 161.288 85.9485 160.897 85.9485C160.507 85.9485 160.122 86.0294 159.774 86.1848C159.637 86.2246 159.518 86.3019 159.433 86.4055C159.348 86.5092 159.303 86.634 159.303 86.762C159.303 86.89 159.348 87.0147 159.433 87.1184C159.518 87.2221 159.637 87.2993 159.774 87.3391C160.122 87.4946 160.507 87.5755 160.897 87.5755C161.288 87.5755 161.672 87.4946 162.021 87.3391Z" fill="#455A64"/>
<path d="M160.905 87.2047C161.105 87.2074 161.303 87.1643 161.479 87.0796C161.719 86.959 161.802 86.7643 161.687 86.616C161.682 86.608 161.675 86.6011 161.667 86.5955C161.659 86.59 161.65 86.5859 161.64 86.5835C161.63 86.5812 161.62 86.5806 161.609 86.5817C161.599 86.5829 161.589 86.5859 161.58 86.5905C161.572 86.595 161.564 86.6011 161.558 86.6084C161.551 86.6156 161.547 86.6239 161.544 86.6327C161.541 86.6415 161.541 86.6507 161.542 86.6598C161.543 86.6688 161.547 86.6776 161.552 86.6855C161.62 86.7875 161.552 86.8988 161.401 86.9822C161.249 87.0544 161.08 87.0922 160.908 87.0922C160.736 87.0922 160.566 87.0544 160.415 86.9822C160.295 86.9219 160.232 86.8478 160.232 86.7736C160.239 86.7268 160.259 86.6824 160.291 86.6449C160.323 86.6074 160.366 86.5782 160.415 86.5603C160.629 86.4597 160.876 86.4285 161.114 86.4722C161.134 86.475 161.154 86.4707 161.171 86.4603C161.187 86.4499 161.199 86.4343 161.202 86.4166C161.205 86.4075 161.205 86.398 161.203 86.3888C161.201 86.3796 161.197 86.3708 161.191 86.3631C161.185 86.3553 161.178 86.3486 161.169 86.3435C161.16 86.3383 161.15 86.3348 161.14 86.3332C160.866 86.2858 160.583 86.3234 160.337 86.4398C160.26 86.4644 160.194 86.5094 160.147 86.5687C160.1 86.628 160.075 86.6988 160.075 86.7713C160.075 86.8438 160.1 86.9145 160.147 86.9738C160.194 87.0331 160.26 87.0782 160.337 87.1027C160.513 87.1798 160.709 87.215 160.905 87.2047Z" fill="#780014"/>
<path d="M161.057 86.7412H161.098L161.698 86.4306C161.716 86.4218 161.729 86.4072 161.735 86.3899C161.741 86.3726 161.739 86.3539 161.729 86.3379C161.724 86.3295 161.718 86.322 161.709 86.316C161.701 86.31 161.692 86.3056 161.681 86.303C161.671 86.3004 161.66 86.2997 161.65 86.3009C161.639 86.3021 161.629 86.3052 161.62 86.3101L161.02 86.6207C161.002 86.6295 160.989 86.6441 160.983 86.6614C160.977 86.6787 160.979 86.6974 160.989 86.7134C160.997 86.7224 161.007 86.7296 161.019 86.7344C161.031 86.7393 161.044 86.7416 161.057 86.7412Z" fill="#780014"/>
<path d="M158.334 86.0318V85.8C158.361 85.7547 158.403 85.7176 158.454 85.6934C158.563 85.6455 158.684 85.6206 158.806 85.6206C158.928 85.6206 159.048 85.6455 159.158 85.6934C159.209 85.7176 159.25 85.7547 159.278 85.8V86.0318C159.274 86.0702 159.259 86.107 159.234 86.1387C159.209 86.1704 159.176 86.1959 159.137 86.2126C159.027 86.2605 158.907 86.2853 158.785 86.2853C158.663 86.2853 158.542 86.2605 158.433 86.2126C158.402 86.1912 158.377 86.1638 158.36 86.1325C158.342 86.1011 158.334 86.0667 158.334 86.0318Z" fill="#37474F"/>
<path d="M159.163 85.9666C159.356 85.8646 159.356 85.7024 159.163 85.605C159.054 85.5546 158.934 85.5283 158.811 85.5283C158.688 85.5283 158.568 85.5546 158.459 85.605C158.266 85.7024 158.266 85.8646 158.459 85.9666C158.568 86.0145 158.689 86.0394 158.811 86.0394C158.933 86.0394 159.053 86.0145 159.163 85.9666Z" fill="#455A64"/>
<path d="M162.292 88.0391V87.8027C162.324 87.7598 162.367 87.7247 162.417 87.7007C162.525 87.6503 162.645 87.624 162.767 87.624C162.889 87.624 163.008 87.6503 163.116 87.7007C163.169 87.7219 163.213 87.7577 163.241 87.8027V88.0391C163.238 88.0781 163.222 88.1155 163.196 88.1473C163.171 88.1791 163.136 88.2042 163.095 88.2199C162.987 88.2681 162.867 88.2931 162.746 88.2931C162.625 88.2931 162.505 88.2681 162.397 88.2199C162.364 88.1996 162.337 88.1725 162.319 88.141C162.301 88.1095 162.292 88.0745 162.292 88.0391Z" fill="#37474F"/>
<path d="M163.116 87.9834C163.314 87.8861 163.314 87.7238 163.116 87.6265C163.008 87.5761 162.888 87.5498 162.766 87.5498C162.645 87.5498 162.525 87.5761 162.417 87.6265C162.376 87.6399 162.34 87.6642 162.315 87.6961C162.29 87.728 162.277 87.766 162.277 87.8049C162.277 87.8439 162.29 87.8819 162.315 87.9138C162.34 87.9457 162.376 87.97 162.417 87.9834C162.525 88.0338 162.645 88.0601 162.766 88.0601C162.888 88.0601 163.008 88.0338 163.116 87.9834Z" fill="#455A64"/>
<path d="M156.597 93.2361L155.455 92.652C155.438 92.6398 155.425 92.6242 155.416 92.6065C155.407 92.5888 155.402 92.5695 155.403 92.55V91.9705C155.386 91.7858 155.451 91.6024 155.586 91.4606C155.644 91.4112 155.72 91.3817 155.8 91.3775C155.88 91.3732 155.96 91.3945 156.024 91.4374C156.223 91.5763 156.384 91.7546 156.492 91.9582C156.601 92.1618 156.655 92.385 156.65 92.6103V93.1898C156.65 93.2315 156.629 93.25 156.597 93.2361Z" fill="#37474F"/>
<path d="M155.46 92.8234L156.592 93.4029C156.61 93.4168 156.624 93.4339 156.634 93.453C156.644 93.4722 156.649 93.4931 156.649 93.5142C156.618 93.9314 156.352 94.1354 156.023 93.9778C155.836 93.8467 155.684 93.6808 155.577 93.4918C155.47 93.3028 155.41 93.0953 155.403 92.8837C155.403 92.8281 155.429 92.8049 155.46 92.8234Z" fill="#37474F"/>
<path d="M155.935 94.2651C155.642 94.0898 155.406 93.8485 155.252 93.5659C155.098 93.2833 155.032 92.9695 155.059 92.6564C155.059 92.6355 155.068 92.6155 155.085 92.6007C155.101 92.5859 155.124 92.5776 155.147 92.5776C155.17 92.5787 155.192 92.5874 155.209 92.602C155.225 92.6165 155.235 92.6359 155.236 92.6564C155.209 92.9421 155.268 93.2288 155.407 93.4877C155.545 93.7465 155.758 93.9683 156.023 94.1307C156.084 94.1678 156.154 94.1904 156.227 94.1961C156.3 94.2018 156.374 94.1904 156.441 94.1631C156.551 94.0869 156.639 93.9881 156.697 93.8751C156.755 93.762 156.782 93.6382 156.774 93.5141C156.777 93.4936 156.788 93.4747 156.805 93.461C156.823 93.4473 156.845 93.4398 156.868 93.4399C156.891 93.4422 156.913 93.452 156.928 93.4674C156.943 93.4828 156.952 93.5027 156.952 93.5234C156.957 93.6743 156.921 93.8242 156.846 93.9599C156.772 94.0957 156.661 94.2132 156.524 94.3022C156.447 94.338 156.361 94.3571 156.274 94.3578C156.219 94.3562 156.165 94.3484 156.112 94.3346V94.84L156.357 94.9651C156.377 94.9758 156.392 94.9925 156.398 95.0122C156.405 95.0319 156.403 95.0531 156.394 95.0718C156.385 95.0829 156.373 95.0921 156.359 95.0985C156.346 95.1049 156.331 95.1085 156.315 95.1088C156.302 95.1135 156.287 95.1135 156.274 95.1088L155.695 94.8121C155.675 94.8015 155.66 94.7847 155.654 94.765C155.647 94.7454 155.649 94.7242 155.658 94.7055C155.67 94.6879 155.689 94.6751 155.712 94.6699C155.734 94.6647 155.758 94.6675 155.778 94.6777L155.94 94.7565V94.2929L155.935 94.2651Z" fill="#37474F"/>
<path opacity="0.3" d="M170.349 107.297L188.941 97.7561C189.115 97.6782 189.307 97.6377 189.502 97.6377C189.696 97.6377 189.888 97.6782 190.062 97.7561L200.278 102.999C200.369 103.029 200.447 103.082 200.502 103.152C200.557 103.222 200.586 103.306 200.586 103.391C200.586 103.476 200.557 103.56 200.502 103.63C200.447 103.7 200.369 103.753 200.278 103.783L181.822 113.254C181.669 113.325 181.499 113.362 181.327 113.362C181.154 113.362 180.985 113.325 180.832 113.254L170.349 107.876C170.281 107.856 170.222 107.817 170.18 107.765C170.138 107.713 170.116 107.65 170.116 107.587C170.116 107.523 170.138 107.46 170.18 107.408C170.222 107.356 170.281 107.317 170.349 107.297Z" fill="#780014"/>
<path d="M188.722 97.0377L171.22 106.022C171.045 106.091 170.9 106.208 170.806 106.355C170.712 106.503 170.674 106.674 170.699 106.843C170.699 107.008 170.747 107.171 170.838 107.316C170.929 107.46 171.061 107.581 171.22 107.668L180.644 112.503C180.85 112.594 181.078 112.642 181.308 112.642C181.539 112.642 181.767 112.594 181.973 112.503L199.475 103.519C199.623 103.44 199.744 103.327 199.824 103.191C199.904 103.055 199.941 102.902 199.929 102.749C199.943 102.581 199.909 102.412 199.83 102.259C199.75 102.105 199.628 101.973 199.475 101.873L190.057 97.0377C189.857 96.9257 189.625 96.8662 189.389 96.8662C189.153 96.8662 188.922 96.9257 188.722 97.0377Z" fill="#37474F"/>
<path d="M189.212 97.4032L198.896 102.373L181.306 111.399V112.641C181.538 112.646 181.768 112.598 181.973 112.502L199.475 103.518C199.623 103.44 199.744 103.326 199.824 103.19C199.904 103.054 199.941 102.901 199.929 102.748C199.943 102.58 199.909 102.411 199.83 102.258C199.75 102.105 199.628 101.972 199.475 101.872L190.057 97.037C189.805 96.8971 189.506 96.8412 189.212 96.8794V97.4032Z" fill="#263238"/>
<path d="M171.392 106.634L180.842 111.483C180.987 111.548 181.147 111.581 181.309 111.581C181.471 111.581 181.631 111.548 181.775 111.483L199.115 102.582C199.202 102.556 199.277 102.506 199.33 102.44C199.383 102.374 199.412 102.295 199.412 102.214C199.412 102.133 199.383 102.053 199.33 101.987C199.277 101.921 199.202 101.872 199.115 101.845L189.932 97.1259C189.769 97.0551 189.591 97.0183 189.41 97.0183C189.229 97.0183 189.051 97.0551 188.889 97.1259L171.418 106.092C171.354 106.109 171.297 106.144 171.256 106.191C171.215 106.238 171.191 106.295 171.189 106.355C171.186 106.414 171.204 106.473 171.24 106.523C171.277 106.573 171.33 106.612 171.392 106.634Z" fill="#455A64"/>
<path d="M193.514 105.711C193.44 105.753 193.377 105.81 193.332 105.878C193.286 105.946 193.26 106.022 193.254 106.101C193.251 106.127 193.256 106.153 193.269 106.177C193.282 106.201 193.302 106.221 193.327 106.235L193.509 106.332C193.538 106.347 193.57 106.354 193.603 106.354C193.636 106.354 193.668 106.347 193.697 106.332L195.308 105.503C195.383 105.461 195.446 105.405 195.491 105.338C195.536 105.271 195.563 105.196 195.569 105.118C195.572 105.092 195.567 105.066 195.555 105.042C195.543 105.019 195.525 104.999 195.501 104.983L195.314 104.886C195.285 104.872 195.253 104.864 195.22 104.864C195.187 104.864 195.155 104.872 195.126 104.886L193.514 105.711Z" fill="#455A64"/>
<path d="M193.697 105.809L195.308 104.979C195.454 104.905 195.569 104.979 195.569 105.099C195.563 105.177 195.536 105.253 195.491 105.32C195.446 105.387 195.383 105.443 195.308 105.484L193.697 106.314C193.551 106.388 193.436 106.314 193.436 106.193C193.442 106.116 193.469 106.04 193.514 105.973C193.559 105.906 193.622 105.85 193.697 105.809Z" fill="#37474F"/>
<path d="M196.331 104.265C196.256 104.307 196.193 104.364 196.148 104.432C196.103 104.499 196.076 104.576 196.07 104.654C196.067 104.68 196.072 104.707 196.085 104.731C196.098 104.754 196.118 104.774 196.143 104.789L196.325 104.886C196.354 104.9 196.386 104.908 196.419 104.908C196.452 104.908 196.484 104.9 196.513 104.886L198.125 104.056C198.199 104.015 198.262 103.959 198.307 103.892C198.353 103.825 198.379 103.749 198.385 103.671C198.389 103.646 198.385 103.62 198.374 103.597C198.363 103.573 198.345 103.553 198.323 103.537L198.13 103.44C198.101 103.425 198.069 103.418 198.036 103.418C198.003 103.418 197.971 103.425 197.942 103.44L196.331 104.265Z" fill="#455A64"/>
<path d="M196.513 104.362L198.125 103.533C198.271 103.458 198.385 103.533 198.385 103.653C198.379 103.731 198.353 103.807 198.307 103.874C198.262 103.94 198.199 103.997 198.125 104.038L196.513 104.868C196.372 104.942 196.252 104.868 196.252 104.747C196.26 104.67 196.287 104.594 196.332 104.528C196.377 104.461 196.439 104.404 196.513 104.362Z" fill="#37474F"/>
<path d="M188.43 97.719L172.3 105.999C172.238 106.017 172.185 106.052 172.147 106.098C172.109 106.145 172.089 106.201 172.089 106.258C172.089 106.316 172.109 106.372 172.147 106.418C172.185 106.465 172.238 106.5 172.3 106.518L180.847 110.904C181.003 110.974 181.175 111.011 181.35 111.011C181.525 111.011 181.698 110.974 181.854 110.904L198.119 102.559C198.344 102.443 198.391 102.271 198.244 102.132L198.213 102.1C198.185 102.078 198.153 102.059 198.119 102.044L195.715 100.807L195.559 100.728C195.511 100.705 195.457 100.693 195.402 100.693C195.348 100.693 195.294 100.705 195.246 100.728C195.196 100.751 195.14 100.762 195.084 100.762C195.028 100.762 194.973 100.751 194.923 100.728L192.117 99.2906C192.028 99.2396 192.023 99.1654 192.117 99.1237C192.211 99.082 192.205 99.0125 192.117 98.9707L189.765 97.7654L189.718 97.7376C189.52 97.644 189.3 97.5935 189.076 97.5903C188.852 97.587 188.631 97.6312 188.43 97.719Z" fill="black"/>
<path d="M195.246 101.043C195.294 101.02 195.348 101.008 195.403 101.008C195.457 101.008 195.511 101.02 195.559 101.043L195.715 101.122L198.12 102.355C198.153 102.373 198.184 102.393 198.213 102.415L198.245 102.447C198.208 102.488 198.162 102.521 198.109 102.545L181.843 110.889C181.688 110.96 181.515 110.997 181.34 110.997C181.165 110.997 180.993 110.96 180.837 110.889L172.289 106.504C172.236 106.477 172.189 106.443 172.149 106.402C172.189 106.363 172.237 106.33 172.289 106.305L188.42 98.0248C188.618 97.9356 188.836 97.8892 189.058 97.8892C189.28 97.8892 189.499 97.9356 189.697 98.0248L189.744 98.0527L192.034 99.2255V99.4944C192.036 99.514 192.044 99.5327 192.057 99.5489C192.07 99.565 192.087 99.5782 192.107 99.5871L194.912 101.024C194.962 101.05 195.019 101.066 195.077 101.069C195.135 101.072 195.193 101.063 195.246 101.043Z" fill="#263238"/>
<path d="M195.022 100.227L193.739 99.5688C193.697 99.5503 193.65 99.5408 193.603 99.5408C193.556 99.5408 193.51 99.5503 193.468 99.5688C193.395 99.6058 193.4 99.6661 193.468 99.7078L194.751 100.366C194.792 100.386 194.839 100.396 194.886 100.396C194.933 100.396 194.98 100.386 195.022 100.366C195.105 100.329 195.1 100.269 195.022 100.227Z" fill="#263238"/>
<path d="M193.134 99.2023C193.085 99.1818 193.031 99.1711 192.977 99.1711C192.923 99.1711 192.87 99.1818 192.821 99.2023C192.732 99.2485 192.732 99.3178 192.821 99.364C192.87 99.3845 192.923 99.3951 192.977 99.3951C193.031 99.3951 193.085 99.3845 193.134 99.364C193.151 99.3572 193.167 99.346 193.178 99.3316C193.188 99.3172 193.194 99.3004 193.194 99.2831C193.194 99.2659 193.188 99.249 193.178 99.2347C193.167 99.2203 193.151 99.2091 193.134 99.2023Z" fill="#263238"/>
<g opacity="0.15">
<path d="M180.67 101.701L183.079 100.464L185.212 109.179L182.798 110.417L180.67 101.701Z" fill="white"/>
<path d="M187.403 108.052L185.275 99.3369L188.43 97.7189C188.628 97.6297 188.847 97.5833 189.069 97.5833C189.291 97.5833 189.51 97.6297 189.708 97.7189L189.755 97.7467L191.173 98.4699L192.837 105.266L187.403 108.052Z" fill="white"/>
</g>
<path d="M145.515 68.7957L143.268 71.3639C143.157 71.2131 142.996 71.0973 142.807 71.0332C142.618 70.9692 142.411 70.9602 142.216 71.0077C142.021 71.0551 141.847 71.1564 141.721 71.2971C141.595 71.4377 141.522 71.6103 141.514 71.79C141.505 71.9698 141.561 72.1472 141.673 72.2969C141.786 72.4465 141.949 72.5605 142.139 72.6225C142.329 72.6844 142.536 72.6911 142.73 72.6416C142.925 72.592 143.097 72.4888 143.221 72.3467L145.239 70.0288L148.368 71.2202L146.386 73.515C146.331 73.4299 146.256 73.3557 146.167 73.2971C146.017 73.1938 145.836 73.1325 145.647 73.1207C145.457 73.109 145.268 73.1475 145.103 73.2313C144.939 73.3151 144.806 73.4405 144.721 73.5915C144.636 73.7426 144.604 73.9125 144.628 74.0799C144.652 74.2473 144.732 74.4046 144.856 74.5318C144.981 74.6591 145.145 74.7506 145.328 74.7949C145.512 74.8391 145.705 74.8341 145.885 74.7804C146.065 74.7266 146.223 74.6267 146.339 74.4932L149.667 70.6778L145.515 68.7957Z" fill="#780014"/>
<path opacity="0.5" d="M145.515 68.7957L143.268 71.3639C143.157 71.2131 142.996 71.0973 142.807 71.0332C142.618 70.9692 142.411 70.9602 142.216 71.0077C142.021 71.0551 141.847 71.1564 141.721 71.2971C141.595 71.4377 141.522 71.6103 141.514 71.79C141.505 71.9698 141.561 72.1472 141.673 72.2969C141.786 72.4465 141.949 72.5605 142.139 72.6225C142.329 72.6844 142.536 72.6911 142.73 72.6416C142.925 72.592 143.097 72.4888 143.221 72.3467L145.239 70.0288L148.368 71.2202L146.386 73.515C146.331 73.4299 146.256 73.3557 146.167 73.2971C146.017 73.1938 145.836 73.1325 145.647 73.1207C145.457 73.109 145.268 73.1475 145.103 73.2313C144.939 73.3151 144.806 73.4405 144.721 73.5915C144.636 73.7426 144.604 73.9125 144.628 74.0799C144.652 74.2473 144.732 74.4046 144.856 74.5318C144.981 74.6591 145.145 74.7506 145.328 74.7949C145.512 74.8391 145.705 74.8341 145.885 74.7804C146.065 74.7266 146.223 74.6267 146.339 74.4932L149.667 70.6778L145.515 68.7957Z" fill="white"/>
<path d="M154.751 76.4496C154.887 76.2649 155.065 76.1071 155.273 75.986C155.568 75.8225 155.887 75.6961 156.222 75.6105C156.668 75.501 157.101 75.3535 157.515 75.1701C157.722 75.0749 157.906 74.9438 158.056 74.7846C158.205 74.6254 158.318 74.4412 158.386 74.2429C158.167 74.3866 157.913 74.4834 157.645 74.5257C157.004 74.6277 156.258 74.3634 155.612 74.3449C154.647 74.3217 153.969 74.7204 153.244 75.3602C153.677 76.0092 154.094 76.6675 154.516 77.3212L155.518 78.8556L155.95 79.5649C155.694 79.5807 155.444 79.6472 155.22 79.7596C154.975 79.8852 154.778 80.0726 154.653 80.2979C154.528 80.5233 154.481 80.7766 154.518 81.0258C154.555 81.275 154.674 81.5088 154.86 81.6977C155.047 81.8867 155.292 82.0221 155.565 82.0871C155.838 82.152 156.127 82.1434 156.395 82.0625C156.662 81.9815 156.897 81.8318 157.069 81.6322C157.241 81.4327 157.342 81.1923 157.36 80.9415C157.378 80.6907 157.313 80.4407 157.171 80.2232L154.751 76.4496Z" fill="#780014"/>
<path d="M154 61.4617C154.252 61.4031 154.516 61.3937 154.772 61.4339C155.112 61.4903 155.442 61.5869 155.753 61.7213C156.164 61.9117 156.596 62.0669 157.041 62.1849C157.264 62.2406 157.498 62.2557 157.728 62.2294C157.958 62.2031 158.18 62.136 158.381 62.0319C158.111 62.0032 157.851 61.9225 157.619 61.7955C157.072 61.4849 156.723 60.8683 156.253 60.4464C155.56 59.8484 154.762 59.7371 153.734 59.7742C153.567 60.516 153.374 61.2484 153.213 61.9856C153.072 62.565 152.931 63.1445 152.785 63.7194C152.785 63.775 152.571 64.5028 152.571 64.5028C152.369 64.3615 152.134 64.2617 151.883 64.2108C151.607 64.1578 151.319 64.1789 151.056 64.2712C150.794 64.3635 150.568 64.523 150.407 64.7295C150.246 64.936 150.158 65.1803 150.153 65.4314C150.148 65.6825 150.227 65.9292 150.38 66.1404C150.533 66.3515 150.753 66.5176 151.013 66.6176C151.272 66.7176 151.558 66.7471 151.836 66.7024C152.114 66.6576 152.371 66.5406 152.574 66.3661C152.778 66.1916 152.918 65.9675 152.978 65.7221L154 61.4617Z" fill="#780014"/>
<path opacity="0.7" d="M154 61.4617C154.252 61.4031 154.516 61.3937 154.772 61.4339C155.112 61.4903 155.442 61.5869 155.753 61.7213C156.164 61.9117 156.596 62.0669 157.041 62.1849C157.264 62.2406 157.498 62.2557 157.728 62.2294C157.958 62.2031 158.18 62.136 158.381 62.0319C158.111 62.0032 157.851 61.9225 157.619 61.7955C157.072 61.4849 156.723 60.8683 156.253 60.4464C155.56 59.8484 154.762 59.7371 153.734 59.7742C153.567 60.516 153.374 61.2484 153.213 61.9856C153.072 62.565 152.931 63.1445 152.785 63.7194C152.785 63.775 152.571 64.5028 152.571 64.5028C152.369 64.3615 152.134 64.2617 151.883 64.2108C151.607 64.1578 151.319 64.1789 151.056 64.2712C150.794 64.3635 150.568 64.523 150.407 64.7295C150.246 64.936 150.158 65.1803 150.153 65.4314C150.148 65.6825 150.227 65.9292 150.38 66.1404C150.533 66.3515 150.753 66.5176 151.013 66.6176C151.272 66.7176 151.558 66.7471 151.836 66.7024C152.114 66.6576 152.371 66.5406 152.574 66.3661C152.778 66.1916 152.918 65.9675 152.978 65.7221L154 61.4617Z" fill="white"/>
<path d="M218.708 146.869C218.379 145.824 217.938 144.811 217.389 143.842C217.332 143.735 217.274 143.624 217.206 143.513C216.682 142.607 216.417 141.6 216.435 140.581C216.452 139.562 216.751 138.563 217.306 137.671L217.42 137.481C218.116 136.441 218.477 135.251 218.463 134.041C218.421 133.382 218.198 132.741 217.814 132.175C217.429 131.61 216.895 131.136 216.257 130.796C215.923 130.62 215.574 130.465 215.214 130.333C214.887 130.22 214.606 130.022 214.408 129.765C214.21 129.507 214.104 129.203 214.104 128.891V127.111L207.694 127.088V128.868C207.691 129.18 207.582 129.483 207.382 129.739C207.182 129.996 206.9 130.193 206.573 130.305C206.213 130.425 205.864 130.571 205.53 130.741C204.887 131.078 204.347 131.55 203.957 132.116C203.567 132.681 203.339 133.324 203.293 133.986C203.261 135.195 203.604 136.388 204.284 137.435L204.388 137.606C204.939 138.504 205.232 139.508 205.242 140.53C205.252 141.552 204.978 142.561 204.445 143.466C204.377 143.573 204.32 143.684 204.263 143.795C203.703 144.758 203.252 145.767 202.917 146.809C202.688 147.819 202.583 148.848 202.604 149.878L202.568 158.176C202.568 159.251 203.355 160.332 204.951 161.157C206.38 161.851 207.962 162.261 209.587 162.358C210.358 162.413 211.132 162.413 211.903 162.358C213.518 162.266 215.092 161.866 216.518 161.185C218.119 160.373 218.922 159.298 218.927 158.227L218.953 152.223C218.953 151.477 218.99 150.698 218.995 149.906C219.023 148.887 218.927 147.869 218.708 146.869Z" fill="#780014"/>
<path opacity="0.35" d="M218.708 146.869C218.379 145.824 217.938 144.811 217.389 143.842C217.332 143.735 217.274 143.624 217.206 143.513C216.682 142.607 216.417 141.6 216.435 140.581C216.452 139.562 216.751 138.563 217.306 137.671L217.42 137.481C218.116 136.441 218.477 135.251 218.463 134.041C218.421 133.382 218.198 132.741 217.814 132.175C217.429 131.61 216.895 131.136 216.257 130.796C215.923 130.62 215.574 130.465 215.214 130.333C214.887 130.22 214.606 130.022 214.408 129.765C214.21 129.507 214.104 129.203 214.104 128.891V127.111L207.694 127.088V128.868C207.691 129.18 207.582 129.483 207.382 129.739C207.182 129.996 206.9 130.193 206.573 130.305C206.213 130.425 205.864 130.571 205.53 130.741C204.887 131.078 204.347 131.55 203.957 132.116C203.567 132.681 203.339 133.324 203.293 133.986C203.261 135.195 203.604 136.388 204.284 137.435L204.388 137.606C204.939 138.504 205.232 139.508 205.242 140.53C205.252 141.552 204.978 142.561 204.445 143.466C204.377 143.573 204.32 143.684 204.263 143.795C203.703 144.758 203.252 145.767 202.917 146.809C202.688 147.819 202.583 148.848 202.604 149.878L202.568 158.176C202.568 159.251 203.355 160.332 204.951 161.157C206.38 161.851 207.962 162.261 209.587 162.358C210.358 162.413 211.132 162.413 211.903 162.358C213.518 162.266 215.092 161.866 216.518 161.185C218.119 160.373 218.922 159.298 218.927 158.227L218.953 152.223C218.953 151.477 218.99 150.698 218.995 149.906C219.023 148.887 218.927 147.869 218.708 146.869Z" fill="black"/>
<path d="M206.62 129.09V130.073C206.62 130.643 207.038 131.218 207.888 131.663C208.843 132.093 209.899 132.317 210.97 132.317C212.041 132.317 213.096 132.093 214.052 131.663C214.429 131.484 214.757 131.232 215.011 130.926C215.214 130.685 215.325 130.393 215.33 130.091V129.118C215.332 129.031 215.322 128.943 215.298 128.858C215.212 128.571 215.057 128.303 214.843 128.073C214.63 127.844 214.364 127.658 214.062 127.528L214 127.5C213.053 127.079 212.01 126.86 210.952 126.86C209.893 126.86 208.85 127.079 207.903 127.5C207.601 127.628 207.334 127.811 207.118 128.038C206.902 128.265 206.743 128.531 206.652 128.817C206.628 128.906 206.617 128.998 206.62 129.09Z" fill="#780014"/>
<path opacity="0.1" d="M206.62 129.09V130.073C206.62 130.643 207.038 131.218 207.888 131.663C208.843 132.093 209.899 132.317 210.97 132.317C212.041 132.317 213.096 132.093 214.052 131.663C214.429 131.484 214.757 131.232 215.011 130.926C215.214 130.685 215.325 130.393 215.33 130.091V129.118C215.332 129.031 215.322 128.943 215.298 128.858C215.212 128.571 215.057 128.303 214.843 128.073C214.63 127.844 214.364 127.658 214.062 127.528L214 127.5C213.053 127.079 212.01 126.86 210.952 126.86C209.893 126.86 208.85 127.079 207.903 127.5C207.601 127.628 207.334 127.811 207.118 128.038C206.902 128.265 206.743 128.531 206.652 128.817C206.628 128.906 206.617 128.998 206.62 129.09Z" fill="black"/>
<path opacity="0.2" d="M214.03 130.69C215.736 129.823 215.746 128.404 214.03 127.528C213.079 127.092 212.025 126.863 210.954 126.859C209.884 126.855 208.827 127.076 207.872 127.505C206.166 128.372 206.161 129.786 207.872 130.666C208.823 131.102 209.877 131.332 210.948 131.336C212.018 131.34 213.075 131.118 214.03 130.69Z" fill="black"/>
<path d="M206.62 127.973V128.548C206.621 128.64 206.631 128.731 206.652 128.821C206.741 129.107 206.898 129.373 207.112 129.601C207.326 129.828 207.592 130.013 207.893 130.142C208.728 130.547 209.659 130.771 210.61 130.796C211.801 130.872 212.993 130.652 214.052 130.161C214.427 129.98 214.754 129.731 215.011 129.428C215.154 129.258 215.251 129.062 215.298 128.854C215.323 128.767 215.335 128.678 215.335 128.589V127.996C215.335 127.416 214.917 126.846 214.067 126.406L213.838 126.299C212.905 125.918 211.888 125.728 210.862 125.743C209.836 125.758 208.826 125.978 207.908 126.387C207.038 126.828 206.62 127.398 206.62 127.973Z" fill="#780014"/>
<path opacity="0.1" d="M206.62 127.973V128.548C206.621 128.64 206.631 128.731 206.652 128.821C206.741 129.107 206.898 129.373 207.112 129.601C207.326 129.828 207.592 130.013 207.893 130.142C208.728 130.547 209.659 130.771 210.61 130.796C211.801 130.872 212.993 130.652 214.052 130.161C214.427 129.98 214.754 129.731 215.011 129.428C215.154 129.258 215.251 129.062 215.298 128.854C215.323 128.767 215.335 128.678 215.335 128.589V127.996C215.335 127.416 214.917 126.846 214.067 126.406L213.838 126.299C212.905 125.918 211.888 125.728 210.862 125.743C209.836 125.758 208.826 125.978 207.908 126.387C207.038 126.828 206.62 127.398 206.62 127.973Z" fill="black"/>
<path d="M206.62 127.954C206.62 129.183 208.56 130.184 210.964 130.193C213.369 130.203 215.324 129.211 215.329 127.982C215.335 126.754 213.389 125.748 210.985 125.743C208.581 125.738 206.62 126.721 206.62 127.954Z" fill="#780014"/>
<path d="M209.462 125.669V127.671C209.457 127.704 209.457 127.736 209.462 127.769C209.492 127.869 209.545 127.962 209.619 128.042C209.693 128.122 209.785 128.187 209.89 128.232C210.181 128.37 210.504 128.447 210.834 128.455C211.247 128.484 211.661 128.408 212.028 128.237C212.157 128.174 212.27 128.087 212.357 127.982C212.406 127.923 212.439 127.855 212.456 127.783C212.461 127.753 212.461 127.724 212.456 127.694V125.683C212.445 125.564 212.399 125.45 212.322 125.353C212.245 125.256 212.14 125.179 212.018 125.131L211.939 125.094C211.617 124.961 211.264 124.894 210.909 124.899C210.553 124.904 210.203 124.98 209.885 125.122C209.767 125.173 209.667 125.25 209.593 125.346C209.519 125.442 209.474 125.553 209.462 125.669Z" fill="#780014"/>
<path opacity="0.2" d="M209.462 125.669V127.671C209.457 127.704 209.457 127.736 209.462 127.769C209.492 127.869 209.545 127.962 209.619 128.042C209.693 128.122 209.785 128.187 209.89 128.232C210.181 128.37 210.504 128.447 210.834 128.455C211.247 128.484 211.661 128.408 212.028 128.237C212.157 128.174 212.27 128.087 212.357 127.982C212.406 127.923 212.439 127.855 212.456 127.783C212.461 127.753 212.461 127.724 212.456 127.694V125.683C212.445 125.564 212.399 125.45 212.322 125.353C212.245 125.256 212.14 125.179 212.018 125.131L211.939 125.094C211.617 124.961 211.264 124.894 210.909 124.899C210.553 124.904 210.203 124.98 209.885 125.122C209.767 125.173 209.667 125.25 209.593 125.346C209.519 125.442 209.474 125.553 209.462 125.669Z" fill="black"/>
<path d="M209.462 125.664C209.462 126.086 210.135 126.434 210.969 126.438C211.804 126.443 212.482 126.1 212.482 125.673C212.482 125.247 211.809 124.899 210.975 124.895C210.14 124.89 209.467 125.238 209.462 125.664Z" fill="#780014"/>
<path d="M0 147.156V146.178L76.2646 107.037L218.192 179.881V180.864L141.932 220L0 147.156Z" fill="#780014"/>
<path d="M141.932 219.022L218.192 179.881L76.2646 107.037L0 146.178L141.932 219.022Z" fill="#780014"/>
<path opacity="0.4" d="M141.932 219.022L218.192 179.881L76.2646 107.037L0 146.178L141.932 219.022Z" fill="white"/>
<path opacity="0.5" d="M118.512 195.921C132.772 195.921 144.331 189.987 144.331 182.667C144.331 175.347 132.772 169.413 118.512 169.413C104.252 169.413 92.6921 175.347 92.6921 182.667C92.6921 189.987 104.252 195.921 118.512 195.921Z" fill="#780014"/>
<path d="M88.8958 88.2246L129.187 91.2565C128.964 94.2318 128.931 97.2159 129.088 100.194C129.839 107.987 129.354 114.074 127.956 125.159C126.788 134.431 125.87 136.911 124.181 142.381C122.95 146.391 120.259 162.088 119.164 169.464C118.59 173.293 120.149 175.148 121.73 177.132C123.174 178.944 127.654 182.171 130.241 183.803C131.612 184.67 135.101 185.713 133.844 187.266C132.65 188.745 131.299 189.366 127.946 189.89C125.589 190.256 121.318 190.085 119.179 189.037C117.5 188.216 115.842 186.028 114.486 184.29C112.854 182.162 111.357 181.383 107.706 179.478C106.184 178.68 105.375 176.534 106.225 174.568C106.893 173.02 108.144 171.36 108.311 169.561C108.614 165.927 106.543 153.799 106.048 149.316C105.814 147.008 105.965 144.682 106.496 142.414C107.05 139.888 108.018 137.448 109.37 135.172L104.035 109.485C100.812 108.414 89.193 99.7819 88.8958 88.2246Z" fill="#B16668"/>
<path d="M103.534 109.707L108.968 134.811C107.874 136.822 106.965 138.909 106.251 141.051C105.458 143.777 105.338 146.822 106.627 153.568C109.125 155.788 119.602 156.085 121.568 154.958C122.313 150.916 124.118 143.883 124.796 141.802C125.474 139.72 127.033 136.943 127.925 131.524C128.816 126.105 129.427 119.637 129.88 111.766C130.334 103.894 130.318 96.1844 129.171 91.2658L88.8798 88.2339C88.8798 88.2339 88.1601 92.8327 91.6385 98.4839C95.1169 104.135 99.8261 108.178 103.534 109.707Z" fill="#37474F"/>
<path d="M111.373 111.993C116.749 109.884 121.391 107.784 122.7 103.259C118.241 108.359 112.661 108.873 109.735 108.502L104.52 114.214L106.768 124.603L108.974 134.802C108.974 134.802 107.894 136.777 107.018 138.914C106.872 139.271 106.731 139.633 106.601 139.989C106.47 140.346 106.356 140.699 106.257 141.042C105.982 142.008 105.807 142.995 105.735 143.99C106.095 144.2 106.5 144.342 106.924 144.407C107.349 144.471 107.784 144.457 108.202 144.366C113.01 143.253 115.503 138.506 115.602 136.267C115.816 131.32 113.85 128.979 113.443 127.542C113.036 126.105 113.443 122.98 112.499 121.052C111.555 119.123 109.057 119.411 109.057 119.411C109.057 119.411 108.922 118.173 108.922 117.269C108.922 116.365 108.577 113.111 111.373 111.993Z" fill="#263238"/>
<path d="M103.148 131.088C103.555 132.247 105.234 137.439 105.234 140.29C105.234 141.802 104.994 144.055 106.121 144.504C107.247 144.954 109.25 144.685 111.435 142.33C113.092 140.467 114.142 138.234 114.47 135.877C114.689 134.166 113.62 130.017 113.025 128.812C112.201 127.152 112.384 126.443 112.248 122.66C112.17 120.634 110.929 118.951 108.713 118.951C107.148 118.951 106.627 119.415 102.35 120.064C98.0739 120.713 82.9503 118.761 77.3181 121.112C65.5165 126.044 67.0966 133.782 67.0966 133.782C70.4395 137.685 77.1825 137.56 80.8904 136.693C86.1524 135.478 97.2604 130.073 99.8522 129.354C102.444 128.636 102.741 129.929 103.148 131.088Z" fill="#B16668"/>
<path d="M67.0236 134.083C69.1097 136.174 72.2387 137.658 77.0991 137.486C81.9595 137.314 88.0507 134.213 88.0507 134.213C88.0507 134.213 91.43 127.027 87.9568 119.429C78.4446 119.712 73.944 120.75 70.4082 124.719C66.8724 128.687 67.0236 130.796 67.0236 134.083Z" fill="#263238"/>
<path d="M88.8959 88.2246C92.0249 91.6274 99.0183 94.6221 107.738 95.9341C119.461 97.6957 127.842 93.185 129.187 91.2565C130.298 97.4315 121.182 109.248 109.735 108.521C106.819 111.956 103.669 115.229 100.301 118.321C96.0926 122.099 89.5217 127.75 87.3887 129.734C85.2558 131.719 75.9157 139.141 69.4386 135.761C62.9615 132.382 65.3187 127.064 66.4243 123.541C67.1283 121.288 70.5494 115.525 73.3186 111.386C76.0878 107.246 78.1686 104.01 79.6549 102.081C81.1411 100.153 81.9182 97.005 82.9508 94.8586C84.4996 91.6413 87.467 88.5816 88.8959 88.2246Z" fill="#37474F"/>
<path d="M130.731 22.5804C134.903 24.5182 139.357 26.3632 137.724 32.1952C136.431 36.8033 132.624 45.1757 129.224 52.3011C126.512 58.0079 126.616 65.4392 126.616 65.4392C123.576 65.7869 113.923 56.4178 114.215 51.5732C115.347 48.7917 117.5 46.6407 118.178 45.5466C120.937 40.9895 124.092 31.9449 124.092 31.9449C122.11 30.7303 110.763 22.6035 109.193 21.8803C107.149 20.9532 105.918 20.4247 104.817 19.9564C103.091 19.224 102.492 18.714 101.991 17.4484C101.282 15.6543 102.095 14.2033 101.808 12.4231C101.597 11.593 101.597 10.7313 101.808 9.90118C101.808 9.90118 101.725 8.89055 100.244 6.45207C99.6962 5.55271 99.6858 4.76924 100.463 4.48645C99.9101 3.22085 100.499 2.69236 101.203 2.65991C100.75 1.6771 100.442 0.773096 101.516 0.235332C101.626 0.179701 101.954 0.462491 102.398 1.16251C102.34 0.476399 103.102 -0.320975 103.535 0.133342C105.485 2.49301 105.699 2.58573 107.248 4.76924C108.567 6.6236 108.812 7.49051 109.443 11.1111C109.615 12.0847 109.756 14.3238 112.171 15.3113C113.459 15.8259 126.867 20.7863 130.731 22.5804Z" fill="#B16668"/>
<path d="M124.076 31.9219C126.903 33.7345 130.783 34.4392 130.783 34.4392C130.783 34.4392 128.373 35.3246 123.669 33.0484L124.076 31.9219Z" fill="#9A4A4D"/>
<path d="M127.378 81.0714C128.066 79.6064 127.602 77.5342 127.028 76.2593L124.807 71.934C129.24 67.4975 126.137 63.251 124.238 60.3814C121.584 56.7329 115.222 51.8977 115.222 51.8977C109.719 51.6126 104.202 51.6544 98.7055 52.0228C98.7055 52.0228 95.055 52.695 93.381 53.1169C90.7004 53.7891 89.2402 56.121 88.5935 60.8774C88.4215 62.1569 88.9065 66.3338 90.0798 69.9267L92.411 78.9249C91.94 79.3567 91.6009 79.8882 91.4257 80.4691C91.2504 81.0499 91.2449 81.661 91.4097 82.2442C88.9847 83.6814 88.8908 85.6794 88.8908 88.2245C97.6469 97.7374 122.356 99.4063 129.182 91.2564C130.606 88.6371 129.959 83.3708 127.378 81.0714Z" fill="#B16668"/>
<path d="M122.262 86.7688C122.177 86.6431 122.071 86.5291 121.949 86.4304C121.818 86.333 121.672 86.2542 121.542 86.1569C121.488 86.1216 121.444 86.0756 121.413 86.0225C121.382 85.9694 121.366 85.9107 121.365 85.8509C121.38 85.7909 121.408 85.7342 121.448 85.684C121.51 85.5933 121.591 85.5145 121.688 85.4522H121.725C121.73 85.5109 121.73 85.5698 121.725 85.6284C121.725 85.8185 121.688 86.0039 121.678 86.194C121.678 86.2357 121.725 86.3423 121.782 86.2821C121.929 86.1053 122.006 85.89 122.001 85.6701C122.014 85.5877 122.007 85.5039 121.981 85.424C121.955 85.3442 121.91 85.2701 121.85 85.2065C121.526 84.9052 121.078 85.3595 120.994 85.6377C120.875 86.0503 121.292 86.347 121.615 86.5648C121.777 86.6623 121.907 86.7968 121.991 86.9543C122.063 87.1233 122.101 87.302 122.105 87.4828C122.105 87.5801 122.33 87.7516 122.387 87.594C122.428 87.4559 122.439 87.3119 122.417 87.1703C122.396 87.0286 122.343 86.8922 122.262 86.7688Z" fill="#9A4A4D"/>
<path d="M98.9298 51.9395C101.506 54.3223 103.848 56.6171 110.116 55.7316C114.351 55.1336 114.413 52.8435 112.88 51.5315L114.199 51.5732C114.199 51.5732 117.328 53.117 120.551 55.0733C124.395 57.3913 127.706 59.2734 129.589 63.1444C130.409 64.8463 130.665 66.7206 130.329 68.5475C129.993 70.3745 129.078 72.0783 127.691 73.4593C127.934 74.701 127.817 75.9774 127.352 77.168C125.396 80.8211 105.131 84.6828 92.411 78.925C92.411 78.925 89.8035 73.6447 90.0747 69.9267C90.0747 69.9267 95.5036 69.9824 96.7552 64.206C98.0068 58.4297 95.9103 52.556 95.9103 52.556L98.9298 51.9395Z" fill="#780014"/>
<path opacity="0.35" d="M98.9298 51.9395C101.506 54.3223 103.848 56.6171 110.116 55.7316C114.351 55.1336 114.413 52.8435 112.88 51.5315L114.199 51.5732C114.199 51.5732 117.328 53.117 120.551 55.0733C124.395 57.3913 127.706 59.2734 129.589 63.1444C130.409 64.8463 130.665 66.7206 130.329 68.5475C129.993 70.3745 129.078 72.0783 127.691 73.4593C127.934 74.701 127.817 75.9774 127.352 77.168C125.396 80.8211 105.131 84.6828 92.411 78.925C92.411 78.925 89.8035 73.6447 90.0747 69.9267C90.0747 69.9267 95.5036 69.9824 96.7552 64.206C98.0068 58.4297 95.9103 52.556 95.9103 52.556L98.9298 51.9395Z" fill="black"/>
<path opacity="0.2" d="M116.337 71.8599C114.032 74.9428 109.855 75.768 105.683 75.1468C102.398 74.6508 99.0234 72.7083 98.0273 70.3718C98.3559 72.8335 99.6805 75.2627 105.172 76.2919C111.341 77.4462 115.388 74.5209 116.337 71.8599Z" fill="black"/>
<path d="M123.341 40.2523C123.701 39.0887 125.161 38.945 125.427 37.3873C125.693 35.8297 124.739 34.8051 123.284 34.1422C121.829 33.4793 121.511 32.2369 121.719 29.6269C121.928 27.0168 119.806 25.5195 117.396 25.2598C116.202 25.13 114.83 25.2598 113.975 24.5227C113.64 24.1595 113.359 23.759 113.141 23.3313C111.941 21.4769 109.787 20.7028 106.935 20.7816C105.656 20.8029 104.394 21.0487 103.222 21.5048C101.798 22.0564 101.089 22.52 99.6807 23.73C98.1162 23.5399 95.1801 23.9108 93.6261 25.1949C92.4996 26.0758 91.4149 27.0493 91.1281 29.0056C90.9038 30.5494 91.0863 31.4163 90.3667 32.2508C88.9012 33.9892 87.0082 34.0263 86.1946 35.4959C85.0317 37.5589 88.0981 39.2417 86.6327 41.7497C86.3268 42.2357 86.148 42.7767 86.1094 43.3325C86.0709 43.8884 86.1737 44.4448 86.4101 44.9605C86.6466 45.4762 87.0107 45.9379 87.4753 46.3114C87.94 46.685 88.4933 46.9607 89.0942 47.1181C90.4449 47.54 91.5713 46.9002 93.5009 47.489C95.4305 48.0777 95.5504 49.3758 98.0067 50.1917C100.02 50.8593 101.657 49.5195 103.295 49.3155C105.49 49.0374 104.802 49.7003 106.945 48.3883C107.681 47.9247 108.103 47.1737 108.844 46.7379C111.196 45.4167 111.973 46.0843 114.909 46.9419C115.67 47.1691 118.184 47.73 119.842 46.0147C120.824 44.8889 121.309 43.4821 121.203 42.0603C121.725 43.4511 125.375 43.3537 125.688 41.0961C125.534 41.334 125.289 41.5144 124.997 41.604C124.706 41.6936 124.387 41.6862 124.101 41.5834C123.815 41.4805 123.58 41.289 123.441 41.0444C123.301 40.7997 123.266 40.5183 123.341 40.2523Z" fill="#263238"/>
<path d="M100.009 48.8473C99.9359 47.5492 99.5812 44.2716 99.5812 44.2716C99.0597 45.4909 96.6087 45.5975 95.3571 44.1326C93.7665 42.2782 93.7091 40.0205 94.7104 38.6251C95.8212 37.0767 98.5591 36.9794 99.8472 39.302C101.662 39.5569 102.277 37.0814 100.723 34.8561C100.536 29.4507 108.848 31.0825 110.366 26.1963C111.8 26.3951 113.163 26.8844 114.351 27.6264C115.538 28.3683 116.517 29.3431 117.213 30.4752C117.891 31.662 118.016 32.3991 117.933 34.833C117.902 35.7601 118.668 36.8588 118.919 38.1105C120.05 43.8451 118.225 46.1631 116.144 47.3267C115.033 47.9479 113.578 48.3698 110.882 48.5691C110.882 48.5691 110.96 49.6447 111.039 50.3586C111.117 51.0725 111.206 51.3831 112.181 51.4805C112.509 51.5176 112.88 51.5315 112.88 51.5315C112.88 51.5315 117.448 55.0918 111.602 56.1674C102.872 57.7946 99.2266 53.1216 98.8042 51.9255C100.134 51.652 100.134 51.003 100.009 48.8473Z" fill="#B16668"/>
<path d="M96.7548 43.5206C96.7721 43.6765 96.8409 43.8244 96.9527 43.9455C97.0645 44.0667 97.2141 44.1557 97.3827 44.2013C97.5513 44.2469 97.7313 44.2471 97.9001 44.2018C98.0688 44.1565 98.2186 44.0678 98.3307 43.9468C98.4427 43.8259 98.5119 43.6782 98.5296 43.5223C98.5472 43.3664 98.5125 43.2093 98.4298 43.071C98.3471 42.9326 98.2202 42.8191 98.065 42.7449C97.9098 42.6706 97.7334 42.6389 97.5579 42.6537C97.4408 42.663 97.327 42.6929 97.223 42.7416C97.119 42.7904 97.0269 42.857 96.9522 42.9377C96.8775 43.0184 96.8215 43.1115 96.7876 43.2115C96.7537 43.3116 96.7426 43.4167 96.7548 43.5206Z" fill="#EBEBEB"/>
<path d="M108.056 42.3477L111.315 43.043C111.274 43.2366 111.189 43.4207 111.065 43.5844C110.942 43.748 110.783 43.8879 110.598 43.9957C110.412 44.1035 110.204 44.1769 109.986 44.2115C109.768 44.2462 109.544 44.2414 109.328 44.1974C108.888 44.0954 108.509 43.8456 108.272 43.5007C108.035 43.1557 107.957 42.7424 108.056 42.3477Z" fill="#9A4A4D"/>
<path d="M108.332 42.9923C108.756 42.9545 109.183 43.049 109.537 43.2595C109.892 43.4701 110.154 43.7836 110.277 44.1466C109.98 44.2427 109.657 44.2604 109.349 44.1976C109.038 44.1263 108.756 43.9798 108.533 43.7744C108.31 43.5689 108.156 43.3127 108.087 43.034C108.167 43.013 108.249 42.999 108.332 42.9923Z" fill="#F28F8F"/>
<path d="M116.259 33.47L113.85 32.6449C113.903 32.5029 113.987 32.372 114.099 32.2601C114.211 32.1482 114.347 32.0576 114.499 31.9939C114.651 31.9302 114.816 31.8946 114.984 31.8894C115.152 31.8841 115.32 31.9093 115.477 31.9634C115.799 32.0786 116.059 32.2987 116.204 32.5787C116.35 32.8588 116.369 33.1776 116.259 33.47Z" fill="#263238"/>
<path d="M104.708 34.439L106.976 33.2939C106.9 33.159 106.794 33.0393 106.664 32.9422C106.534 32.8451 106.383 32.7726 106.22 32.7292C106.058 32.6858 105.887 32.6724 105.718 32.6898C105.55 32.7072 105.387 32.755 105.24 32.8304C104.936 32.9871 104.712 33.2413 104.613 33.5405C104.514 33.8397 104.548 34.1613 104.708 34.439Z" fill="#263238"/>
<path d="M105.678 36.8545C105.819 37.1002 106.054 37.293 106.341 37.3984C106.627 37.5037 106.947 37.5147 107.242 37.4294C107.925 37.2717 108.416 36.7989 108.254 36.2704C108.17 35.9969 108.066 36.6227 106.981 36.836C106.006 37.026 105.563 36.5856 105.678 36.8545Z" fill="#263238"/>
<path d="M113.548 35.9221C113.638 36.1899 113.835 36.4192 114.102 36.5676C114.369 36.7159 114.687 36.7732 114.997 36.7288C115.701 36.6824 116.275 36.2652 116.223 35.7413C116.192 35.4632 115.967 36.0658 114.857 36.1029C113.834 36.14 113.485 35.6393 113.548 35.9221Z" fill="#263238"/>
<path d="M110.882 48.5693C106.778 48.472 102.126 47.2945 100.609 45.3242C100.609 45.3242 101.266 47.3223 102.956 48.1382C105.434 49.27 108.197 49.819 110.982 49.733L110.882 48.5693Z" fill="#9A4A4D"/>
<path d="M115.331 39.9974L111.868 41.3974L110.762 35.2039L115.331 39.9974Z" fill="#9A4A4D"/>
<path d="M103.712 5.05682C104.061 3.79585 103.425 3.36008 102.747 3.40644C103.044 2.42363 103.206 1.55208 102.116 1.13485C102.001 1.09312 101.73 1.39909 101.401 2.10838C101.309 1.76017 101.08 1.45275 100.755 1.24147C100.793 1.72436 100.935 2.1963 101.172 2.63224C100.468 2.66469 99.8786 3.19319 100.431 4.45879C99.6543 4.74158 99.6648 5.52504 100.212 6.42441C101.699 8.86289 101.777 9.87351 101.777 9.87351C101.568 10.7039 101.568 11.565 101.777 12.3954C102.069 14.1942 101.255 15.6406 101.965 17.4208C102.225 18.2422 102.83 18.9438 103.654 19.3817C103.78 19.1636 103.883 18.9354 103.962 18.7003C104.577 16.7856 103.513 14.4909 103.534 12.7478C103.617 11.9357 103.498 11.1175 103.185 10.351C103.185 10.351 103.117 9.38211 104.186 6.89727C104.593 5.98863 104.494 5.24225 103.712 5.05682Z" fill="#9A4A4D"/>
<path d="M100.958 21.3984C102.189 20.6706 103.133 19.9057 103.529 18.6725C104.145 16.7579 103.081 14.4631 103.102 12.72C103.184 11.908 103.065 11.0898 102.752 10.3233C102.752 10.3233 102.69 9.35439 103.759 6.86955C104.15 5.94237 104.051 5.20989 103.269 5.01519C103.618 3.75422 102.982 3.31845 102.309 3.36481C102.601 2.382 102.763 1.51045 101.673 1.09322C101.558 1.0515 101.287 1.35746 100.958 2.06676C100.922 1.40846 100.082 0.736254 99.7379 1.21375C98.2152 3.67541 98.0222 3.78667 96.8645 6.03972C95.8736 7.96362 95.7849 8.82126 95.6754 12.3121C95.6871 13.9925 94.9956 15.6167 93.7354 16.8692C92.0666 18.6447 81.7982 24.4071 74.1634 31.3842C71.8219 33.5213 70.6433 35.5565 73.449 41.1705C75.6549 45.5746 77.8348 48.588 83.4149 56.9882C84.4005 58.4671 85.2401 59.7419 86.5439 61.8652C87.8477 63.9884 87.9885 67.915 90.0797 69.9177C94.4342 69.9177 101.282 64.7255 97.193 52.3013C95.446 50.0946 93.9858 49.5801 93.1253 48.1661C90.5178 43.915 87.4513 40.1089 86.3457 37.5036C86.7421 37.142 92.7133 29.5669 94.6063 27.5086C96.4994 25.4502 99.4198 22.3117 100.958 21.3984Z" fill="#B16668"/>
<path d="M102.637 5.64087C102.058 6.66631 101.577 7.73323 101.198 8.83037C101.047 9.45158 100.791 10.7821 100.791 10.7821C100.742 10.0851 100.795 9.38552 100.948 8.70056C101.203 7.37006 102.637 5.64087 102.637 5.64087Z" fill="#9A4A4D"/>
<path d="M102.132 3.43896C101.579 4.48668 100.473 5.93308 100.207 6.70727C99.8459 7.8871 99.5981 9.09216 99.4668 10.3094C99.3374 9.05626 99.5044 7.79296 99.957 6.60065C100.432 5.3675 101.167 4.76947 102.132 3.43896Z" fill="#9A4A4D"/>
<path d="M100.958 2.07593C100.155 3.48988 98.8721 5.46477 98.6061 6.05353C98.2868 7.21919 98.043 8.4002 97.876 9.59072C97.8413 8.54508 97.9181 7.49887 98.1055 6.46612C98.3975 5.39059 100.958 2.07593 100.958 2.07593Z" fill="#9A4A4D"/>
<path d="M86.33 37.5172C85.4226 35.3801 82.8255 33.3449 81.5061 33.0065C83.2896 32.8906 86.1005 34.3973 87.2426 36.4185L86.33 37.5172Z" fill="#9A4A4D"/>
</svg>
