<svg width="220" height="220" viewBox="0 0 220 220" fill="none" xmlns="http://www.w3.org/2000/svg">
<path d="M87.2879 193.364C85.9271 192.833 55.2898 166.449 54.7157 164.649C54.4872 163.969 57.8039 158.933 61.9711 152.995C62.0124 152.931 62.0568 152.87 62.104 152.812C62.9598 151.583 78.4273 131.664 78.4273 131.664L97.4454 147.948L82.031 169.593L81.7546 169.947C81.7546 169.947 89.2811 185.688 89.7276 187.74C90.1741 189.792 88.6433 193.902 87.2879 193.364Z" fill="#EB9481"/>
<path d="M87.5641 193.787C86.1875 193.216 55.2312 166.352 54.6518 164.535C54.4286 163.843 57.8038 158.767 62.0454 152.755L82.0575 170.022C82.0575 170.022 89.6265 186.025 90.0623 188.089C90.4982 190.152 88.9355 194.336 87.5641 193.787Z" fill="#780014"/>
<path opacity="0.2" d="M87.5641 193.787C86.1875 193.216 55.2312 166.352 54.6518 164.535C54.4286 163.843 57.8038 158.767 62.0454 152.755L82.0575 170.022C82.0575 170.022 89.6265 186.025 90.0623 188.089C90.4982 190.152 88.9355 194.336 87.5641 193.787Z" fill="black"/>
<path d="M88.117 192.067C83.0303 187.426 62.1093 169.204 56.7568 165.049C56.7143 165.015 56.6877 165.049 56.7568 165.083C61.7053 169.799 82.7645 187.826 88.0851 192.158C88.1649 192.25 88.2074 192.164 88.117 192.067Z" fill="#263238"/>
<path d="M88.9725 185.162C88.4078 184.644 87.7489 184.258 87.0379 184.029C86.3268 183.8 85.5792 183.732 84.8425 183.831C83.5165 183.993 82.2998 184.7 81.446 185.803C81.446 185.837 81.4779 185.888 81.5098 185.854C82.5159 184.902 83.782 184.327 85.118 184.214C86.4541 184.102 87.7879 184.459 88.9193 185.231C88.9279 185.236 88.9378 185.237 88.9473 185.235C88.9568 185.233 88.9653 185.228 88.9715 185.22C88.9777 185.212 88.9812 185.202 88.9814 185.191C88.9815 185.181 88.9784 185.171 88.9725 185.162Z" fill="#263238"/>
<path d="M83.6522 172.32C81.5952 170.491 78.5973 169.187 75.9344 169.89C75.8334 169.919 75.8706 170.079 75.9344 170.096C78.5205 170.647 81.0439 171.496 83.4608 172.628C83.4989 172.655 83.5455 172.665 83.5903 172.656C83.6352 172.646 83.6747 172.618 83.7 172.577C83.7254 172.536 83.7346 172.486 83.7256 172.437C83.7167 172.389 83.6902 172.347 83.6522 172.32Z" fill="#263238"/>
<path d="M84.7525 174.389C82.6955 172.554 79.6977 171.251 77.0347 171.954C76.9337 171.954 76.9709 172.142 77.0347 172.16C79.62 172.714 82.1431 173.563 84.5612 174.692C84.5985 174.719 84.6444 174.729 84.6888 174.72C84.7332 174.711 84.7723 174.683 84.7977 174.643C84.8231 174.603 84.8326 174.553 84.8241 174.506C84.8156 174.458 84.7899 174.416 84.7525 174.389Z" fill="#263238"/>
<path d="M85.8473 176.452C83.7956 174.617 80.7978 173.314 78.1349 174.022C78.0286 174.022 78.0658 174.205 78.1349 174.222C80.7184 174.777 83.2397 175.626 85.656 176.754C85.6934 176.782 85.7393 176.792 85.7836 176.783C85.828 176.774 85.8672 176.746 85.8925 176.706C85.9179 176.666 85.9274 176.616 85.9189 176.569C85.9104 176.521 85.8847 176.479 85.8473 176.452Z" fill="#263238"/>
<path d="M86.9476 178.516C84.8959 176.681 81.8928 175.378 79.2298 176.086C79.1288 176.115 79.166 176.269 79.2298 176.286C81.8127 176.843 84.3338 177.692 86.7509 178.818C86.7883 178.846 86.8345 178.857 86.8793 178.849C86.9242 178.84 86.964 178.813 86.9901 178.773C87.0162 178.733 87.0264 178.683 87.0184 178.635C87.0104 178.586 86.985 178.544 86.9476 178.516Z" fill="#263238"/>
<path d="M62.0509 160.894C59.7175 158.876 56.7994 162.78 59.1381 164.798C61.4769 166.815 64.395 162.912 62.0509 160.894Z" fill="white"/>
<path d="M90.3708 168.313C90.0253 166.461 88.0108 166.226 86.6501 166.638C84.2949 167.387 82.1659 168.793 80.4791 170.713C80.4703 170.72 80.4631 170.729 80.4582 170.739C80.4533 170.75 80.4507 170.761 80.4507 170.773C80.4507 170.785 80.4533 170.796 80.4582 170.807C80.4631 170.817 80.4703 170.826 80.4791 170.833C80.4569 170.882 80.4457 170.937 80.4463 170.991C80.4469 171.046 80.4592 171.1 80.4824 171.149C80.5056 171.197 80.5389 171.24 80.5799 171.272C80.6208 171.305 80.6681 171.327 80.7182 171.336C83.0198 171.519 85.4648 172.022 87.7504 171.439C89.0845 171.102 90.7004 170.073 90.3708 168.313ZM84.2582 170.845C83.1208 170.782 81.9992 170.662 80.8618 170.65C82.0423 169.822 83.261 169.059 84.5134 168.364C85.1256 168.036 85.7578 167.754 86.4056 167.518C87.4102 167.169 90.8492 167.072 89.2333 169.684C88.3404 171.113 85.6136 170.919 84.2582 170.845Z" fill="#263238"/>
<path d="M74.6746 167.061C76.2692 168.93 78.5388 169.993 80.5214 171.239C80.568 171.263 80.6192 171.275 80.6709 171.273C80.7225 171.271 80.7731 171.257 80.8184 171.23C80.8636 171.203 80.9022 171.165 80.931 171.119C80.9598 171.073 80.9779 171.02 80.9838 170.964C80.9945 170.965 81.0052 170.964 81.0152 170.96C81.0253 170.956 81.0344 170.949 81.042 170.941C81.0495 170.933 81.0554 170.923 81.0591 170.912C81.0628 170.902 81.0643 170.89 81.0636 170.879C80.6699 168.278 79.6512 165.833 78.1082 163.786C77.1834 162.608 75.4028 161.585 74.143 162.9C72.8833 164.214 73.7497 165.969 74.6746 167.061ZM74.3875 164.7C74.4248 161.562 77.2153 163.728 77.8637 164.626C78.2726 165.213 78.6438 165.83 78.9746 166.472C79.6457 167.807 80.2525 169.179 80.7925 170.581C79.8464 169.907 78.8524 169.324 77.885 168.684C76.7103 167.924 74.3557 166.426 74.3875 164.7Z" fill="#263238"/>
<path d="M83.6733 167.667L63.3955 151.092C63.3955 151.092 72.963 133.733 79.1872 125.371C84.9118 117.644 95.4892 107.081 95.4839 104.223C95.4839 101.228 67.265 88.9112 64.2832 75.7995C61.7159 64.4883 67.5999 52.937 67.5999 52.937H91.3221C91.3221 52.937 91.5081 65.7457 92.0609 67.1003C92.417 67.9977 128.109 95.2498 127.854 105.635C127.439 122.879 83.6733 167.667 83.6733 167.667Z" fill="#37474F"/>
<path d="M89.0897 157.939C86.5649 155.939 83.9551 154.081 81.3347 152.224C78.7143 150.366 76.0725 148.554 73.3936 146.811C71.8788 145.828 70.3214 144.925 68.8065 143.953C68.7587 143.919 68.7055 144.004 68.7534 144.033C70.0716 144.965 71.3419 145.976 72.6548 146.891C73.9677 147.805 75.254 148.737 76.5562 149.646C79.1873 151.475 81.845 153.275 84.4867 155.087C85.9749 156.11 87.4898 157.082 89.0206 158.036C89.0844 158.099 89.1535 157.991 89.0897 157.939Z" fill="#263238"/>
<path d="M64.2886 75.7654C61.716 64.4541 67.6053 52.9028 67.6053 52.9028H83.2642L90.7056 100.108C82.5466 94.747 66.4944 85.4819 64.2886 75.7654Z" fill="#263238"/>
<path d="M98.7794 151.166C90.4929 160.682 83.6733 167.667 83.6733 167.667L63.3955 151.091C63.3955 151.091 72.963 133.739 79.1872 125.371C82.9079 120.364 88.6378 114.163 92.2203 109.636L98.7794 151.166Z" fill="#263238"/>
<path d="M73.2288 154.018L102.931 158.631L93.1611 166.718L76.402 164.095L73.2288 154.018Z" fill="#780014"/>
<path d="M65.5589 205.322H46.5461L139.776 128.121L146.511 137.746L65.5589 205.322Z" fill="#780014"/>
<path d="M124.803 81.7898L129.826 97.7478H137.002L131.979 81.7898H124.803Z" fill="#780014"/>
<path d="M128.216 97.7478L163.398 209.466H173.736L138.549 97.7478H128.216Z" fill="#780014"/>
<path d="M125.776 97.7478H139.776V94.6956H125.776V97.7478Z" fill="#780014"/>
<path d="M181.562 183.954C185.35 167.126 175.736 150.181 160.086 146.107C144.437 142.033 128.679 152.372 124.89 169.2C121.101 186.028 130.716 202.973 146.365 207.047C162.015 211.121 177.773 200.782 181.562 183.954Z" fill="#C7C7C7"/>
<path d="M178.356 183.092C181.706 168.163 173.169 153.141 159.286 149.537C145.403 145.934 131.432 155.115 128.082 170.043C124.731 184.972 133.268 199.995 147.151 203.598C161.034 207.201 175.005 198.02 178.356 183.092Z" fill="#263238"/>
<path d="M47.7952 100.96L58.3885 134.585H65.5589L54.9708 100.965L47.7952 100.96Z" fill="#780014"/>
<path d="M56.8047 134.688L67.3928 168.313H77.731L67.1429 134.688H56.8047Z" fill="#780014"/>
<path d="M34.6557 97.2736C31.9981 102.629 47.2157 103.767 53.7323 102.526C60.2488 101.286 69.1732 103.355 69.1732 99.4341C69.1732 95.5132 39.6414 87.277 34.6557 97.2736Z" fill="#263238"/>
<path d="M54.8433 135.699H68.8438V132.647H54.8433V135.699Z" fill="#780014"/>
<path d="M158.725 179.681C158.725 182.218 157.789 184.65 156.121 186.445C154.454 188.239 152.192 189.247 149.833 189.249L84.3537 198.708C83.7477 198.828 83.1258 198.92 82.4986 198.977C82.0043 199.023 81.51 199.046 80.9997 199.046C78.6092 199.09 76.2344 198.622 74.0138 197.668C71.7933 196.715 69.7716 195.296 68.0665 193.494C66.3614 191.692 65.0071 189.542 64.0827 187.171C63.1582 184.8 62.6821 182.255 62.6821 179.684C62.6821 177.113 63.1582 174.568 64.0827 172.197C65.0071 169.826 66.3614 167.676 68.0665 165.874C69.7716 164.072 71.7933 162.653 74.0138 161.699C76.2344 160.746 78.6092 160.278 80.9997 160.322C81.6531 160.321 82.306 160.357 82.9557 160.431H83.0302L83.854 160.545L149.833 170.107C151.001 170.107 152.159 170.355 153.238 170.836C154.318 171.318 155.299 172.023 156.124 172.912C156.95 173.801 157.605 174.857 158.051 176.018C158.498 177.18 158.727 178.424 158.725 179.681Z" fill="#A6A6A6"/>
<path d="M89.3756 188.623C93.9672 183.685 93.9672 175.68 89.3756 170.743C84.784 165.806 77.3396 165.806 72.7481 170.743C68.1565 175.68 68.1565 183.685 72.7481 188.623C77.3396 193.56 84.784 193.56 89.3756 188.623Z" fill="#C7C7C7"/>
<path d="M65.5643 205.321H46.5461V209.465H65.5643V205.321Z" fill="#780014"/>
<path d="M139.638 84.3389H119.642C119.008 84.3389 118.399 84.0679 117.951 83.5856C117.502 83.1032 117.25 82.449 117.25 81.7669C117.25 81.0847 117.502 80.4305 117.951 79.9482C118.399 79.4658 119.008 79.1948 119.642 79.1948H139.638C141.315 79.2036 142.978 78.8546 144.529 78.1678C146.08 77.481 147.489 76.4702 148.674 75.1939L165.656 56.9324C166.105 56.4504 166.714 56.1799 167.349 56.1804C167.983 56.181 168.591 56.4525 169.04 56.9353C169.488 57.4181 169.739 58.0726 169.739 58.7549C169.738 59.4372 169.486 60.0913 169.037 60.5733L152.055 78.8633C150.424 80.6123 148.487 81.9966 146.356 82.9364C144.224 83.8762 141.941 84.3529 139.638 84.3389Z" fill="#263238"/>
<path d="M134.28 84.3387H119.642C119.008 84.3387 118.399 84.0677 117.951 83.5854C117.502 83.103 117.25 82.4488 117.25 81.7667C117.25 81.0845 117.502 80.4303 117.951 79.948C118.399 79.4656 119.008 79.1946 119.642 79.1946H134.28C136.465 79.1946 138.564 77.8743 140.201 75.4738L140.265 75.3766L154.617 56.2635C155.025 55.7698 155.594 55.464 156.206 55.4092C156.818 55.3545 157.426 55.5552 157.905 55.9696C158.383 56.384 158.695 56.9805 158.775 57.6353C158.856 58.2902 158.699 58.9533 158.337 59.4871L144.018 78.5831C141.504 82.2582 137.958 84.3387 134.28 84.3387Z" fill="#263238"/>
<path d="M72.4156 209.466H40.9331V219.742H72.4156V209.466Z" fill="#263238"/>
<path d="M185.652 209.466H154.17V219.742H185.652V209.466Z" fill="#263238"/>
<path d="M101.628 34.5729C104.584 46.7472 108.193 60.0246 110.973 61.8593C117.622 66.2375 128.513 68.8152 135.683 70.1184C138.022 70.5413 140.759 53.5431 138.341 52.7943C136.523 52.257 120.173 48.9591 119.355 48.1875C118.69 47.5645 113.168 38.4709 107.762 30.3319C102.224 22.0385 99.7892 27.0111 101.628 34.5729Z" fill="#EB9481"/>
<path d="M145.416 70.3868C144.353 70.5354 144.443 71.1184 146.043 72.1415C147.643 73.1646 154.781 75.7423 153.734 78.3487C152.687 80.955 142.662 77.1484 140.116 75.2336C137.57 73.3189 134.083 69.2437 134.083 69.2437C136.172 69.5637 141.307 69.8209 145.416 70.3868Z" fill="#EB9481"/>
<path d="M137.639 52.6111C147.101 53.7542 151.146 55.2117 156.243 59.9157C156.821 60.4215 157.224 61.1223 157.386 61.9047C159.703 63.968 159.512 65.7627 159.512 65.7627C161.106 68.3977 160.671 70.1981 160.671 70.1981C160.671 70.1981 163.365 72.6558 162.265 74.6506C161.032 76.8968 157.481 73.0102 154.324 72.1528C147.074 70.1924 136.252 69.5865 134.126 69.2436L137.639 52.6111Z" fill="#EB9481"/>
<path d="M148.036 64.3628C150.162 64.9086 152.251 65.6114 154.287 66.4661C156.463 67.5475 158.561 68.8008 160.564 70.2156C160.57 70.2201 160.577 70.2233 160.584 70.225C160.591 70.2267 160.598 70.2269 160.606 70.2256C160.613 70.2243 160.62 70.2214 160.626 70.2172C160.632 70.2131 160.637 70.2077 160.641 70.2013C160.646 70.1949 160.649 70.1877 160.65 70.1801C160.652 70.1725 160.652 70.1646 160.651 70.1569C160.65 70.1492 160.647 70.1418 160.643 70.1352C160.639 70.1286 160.634 70.1229 160.628 70.1184C157.017 66.9623 152.668 64.9338 148.057 64.2542C147.951 64.2427 147.93 64.3342 148.036 64.3628Z" fill="#263238"/>
<path d="M148.802 56.8693C152.214 58.2525 154.202 59.5843 157.359 61.9105C157.359 61.9105 157.407 61.9105 157.386 61.8762C154.059 58.8298 152.528 58.1325 148.828 56.7322C148.695 56.6864 148.658 56.8179 148.802 56.8693Z" fill="#263238"/>
<path d="M104.849 48.8504L117.867 44.6379C117.867 44.6379 111.403 30.9204 106.215 25.0505C101.235 19.4377 99.4757 24.4789 100.294 29.7487C101.022 34.4413 104.849 48.8504 104.849 48.8504Z" fill="#780014"/>
<path d="M104.531 45.5982C106.295 44.838 108.166 44.3064 109.984 43.7177C111.802 43.129 113.753 42.6546 115.629 42.0945C115.682 42.0945 115.709 42.1745 115.656 42.1974C113.838 42.8261 112.052 43.5405 110.207 44.1007C108.348 44.7274 106.458 45.2445 104.547 45.6496C104.52 45.6553 104.504 45.6096 104.531 45.5982Z" fill="#263238"/>
<path opacity="0.1" d="M109.144 47.4613L104.85 48.8502C104.85 48.8502 101.023 34.4354 100.294 29.7543C99.5503 24.9875 100.922 20.4035 104.881 23.73L109.144 47.4613Z" fill="black"/>
<path d="M99.513 209.837L96.5258 211.717L82.9878 182.899L85.9697 181.024L99.513 209.837Z" fill="#C7C7C7"/>
<path d="M92.5023 213.157H107.789V208.391H92.5023V213.157Z" fill="#263238"/>
<path d="M125.446 208.014C124.069 208.494 84.8214 208.105 83.3384 207.065C82.7643 206.682 82.4826 200.532 82.3444 193.085V192.85C82.3125 191.319 73.3403 166.833 73.3403 166.833L98.9973 167.01L107.666 192.799V193.262C107.666 193.262 122.629 200.641 124.144 201.967C125.659 203.293 126.823 207.534 125.446 208.014Z" fill="#EB9481"/>
<path d="M125.903 208.162C124.511 208.643 84.7257 208.071 83.2215 207.019C82.6474 206.625 82.387 200.389 82.27 192.844L107.922 193.13C107.922 193.13 123.065 200.675 124.596 202.018C126.126 203.361 127.301 207.682 125.903 208.162Z" fill="#780014"/>
<path opacity="0.2" d="M125.903 208.162C124.511 208.643 84.7257 208.071 83.2215 207.019C82.6474 206.625 82.387 200.389 82.27 192.844L107.922 193.13C107.922 193.13 123.065 200.675 124.596 202.018C126.126 203.361 127.301 207.682 125.903 208.162Z" fill="black"/>
<path d="M125.356 206.442C118.691 206.167 91.774 205.75 85.1671 206.03C85.114 206.03 85.1087 206.07 85.1671 206.07C91.7687 206.499 118.685 206.682 125.356 206.556C125.494 206.556 125.494 206.447 125.356 206.442Z" fill="#263238"/>
<path d="M122.055 200.447C121.313 200.415 120.572 200.552 119.882 200.847C119.192 201.142 118.567 201.59 118.047 202.161C117.099 203.171 116.547 204.533 116.506 205.968C116.506 206.014 116.58 206.014 116.591 205.968C116.834 204.551 117.498 203.257 118.483 202.281C119.469 201.305 120.722 200.7 122.055 200.555C122.068 200.555 122.081 200.549 122.091 200.539C122.1 200.529 122.106 200.515 122.106 200.501C122.106 200.486 122.1 200.473 122.091 200.462C122.081 200.452 122.068 200.447 122.055 200.447Z" fill="#263238"/>
<path d="M110.5 193.879C107.842 193.805 104.722 194.771 103.058 197.097C102.989 197.183 103.112 197.286 103.191 197.24C105.532 195.961 107.993 194.953 110.532 194.234C110.568 194.22 110.599 194.194 110.62 194.16C110.641 194.125 110.65 194.084 110.646 194.043C110.643 194.002 110.626 193.963 110.6 193.934C110.573 193.904 110.538 193.885 110.5 193.879Z" fill="#263238"/>
<path d="M112.546 194.777C109.888 194.697 106.774 195.662 105.105 197.989C105.041 198.08 105.163 198.177 105.243 198.137C107.592 196.855 110.061 195.847 112.61 195.131C112.648 195.116 112.679 195.087 112.699 195.049C112.719 195.011 112.726 194.967 112.718 194.925C112.71 194.882 112.689 194.844 112.657 194.817C112.626 194.79 112.586 194.775 112.546 194.777Z" fill="#263238"/>
<path d="M114.597 195.668C111.94 195.588 108.82 196.559 107.156 198.88C107.092 198.971 107.209 199.068 107.289 199.028C109.639 197.745 112.111 196.737 114.661 196.022C114.699 196.007 114.731 195.978 114.75 195.94C114.77 195.902 114.777 195.858 114.769 195.816C114.762 195.773 114.74 195.735 114.709 195.708C114.677 195.681 114.638 195.666 114.597 195.668Z" fill="#263238"/>
<path d="M116.649 196.56C113.992 196.48 110.872 197.451 109.208 199.778C109.139 199.863 109.261 199.966 109.341 199.921C111.685 198.646 114.149 197.646 116.692 196.937C116.738 196.931 116.781 196.905 116.81 196.866C116.839 196.826 116.852 196.776 116.846 196.725C116.84 196.675 116.816 196.63 116.78 196.599C116.743 196.568 116.696 196.554 116.649 196.56Z" fill="#263238"/>
<path d="M86.9477 199.223C83.9552 199.189 83.902 204.195 86.8999 204.23C89.8977 204.264 89.9508 199.274 86.9477 199.223Z" fill="white"/>
<path d="M113.476 186.26C112.142 185.037 110.425 186.191 109.575 187.431C108.157 189.588 107.29 192.107 107.061 194.736C107.061 194.799 107.098 194.822 107.14 194.822C107.151 194.875 107.174 194.925 107.206 194.968C107.238 195.01 107.279 195.044 107.325 195.067C107.372 195.09 107.422 195.1 107.473 195.099C107.524 195.097 107.574 195.082 107.619 195.056C109.537 193.673 111.749 192.444 113.216 190.484C114.066 189.312 114.741 187.42 113.476 186.26ZM110.127 192.318C109.197 193.021 108.246 193.679 107.342 194.422C107.837 192.998 108.272 191.564 108.9 190.186C109.191 189.522 109.525 188.88 109.899 188.266C110.489 187.323 113.141 184.962 113.364 188.089C113.492 189.815 111.233 191.472 110.127 192.318Z" fill="#263238"/>
<path d="M100.432 195.708C102.75 196.125 105.158 195.445 107.443 195.096C107.493 195.084 107.54 195.06 107.58 195.024C107.619 194.989 107.651 194.944 107.671 194.893C107.691 194.843 107.7 194.787 107.696 194.732C107.693 194.677 107.677 194.624 107.651 194.576C107.659 194.569 107.667 194.56 107.671 194.55C107.676 194.539 107.679 194.528 107.679 194.516C107.679 194.505 107.676 194.493 107.671 194.483C107.667 194.472 107.659 194.463 107.651 194.456C105.845 192.664 103.632 191.414 101.235 190.833C99.8371 190.524 97.8439 190.901 97.61 192.77C97.3868 194.542 99.0611 195.462 100.432 195.708ZM98.8378 194.05C97.0625 191.558 100.502 191.41 101.527 191.684C102.188 191.875 102.836 192.112 103.467 192.393C104.786 192.964 106.003 193.719 107.257 194.422C106.12 194.519 105.004 194.719 103.877 194.862C102.516 195.034 99.8052 195.422 98.8378 194.079V194.05Z" fill="#263238"/>
<path d="M91.3223 52.9028C90.3746 59.7135 89.0397 66.4553 87.3252 73.0904C87.1179 73.8964 80.5907 78.4631 80.3462 79.2233C80.3462 79.2233 91.4074 117.335 93.2783 126.492C95.4683 137.18 107.098 190.724 107.098 190.724H81.9196C78.3052 181.737 75.112 172.562 72.352 163.232C70.4704 156.716 68.052 132.967 67.6746 131.11C65.8408 122.056 53.3233 81.8354 52.9193 80.5665C48.8691 68.5179 58.0433 52.9028 58.0433 52.9028H91.3223Z" fill="#37474F"/>
<path d="M85.5815 190.735H85.2785C83.8912 186.408 79.841 173.502 76.8325 160.357C74.2652 149.108 72.5803 137.271 71.8521 132.213C71.6448 130.732 71.5066 129.749 71.4428 129.498C71.294 128.852 70.1406 125.102 68.5513 119.918C64.2512 105.881 56.2358 79.7604 55.9115 75.3708C55.38 68.1862 59.6322 57.6523 61.7318 52.9141H62.0454C59.9618 57.5494 55.667 68.1634 56.1986 75.3479C56.5281 79.6975 64.5276 105.801 68.833 119.821C70.4276 125.017 71.5757 128.766 71.7298 129.424C71.7883 129.686 71.9212 130.618 72.1444 132.167C72.862 137.22 74.5523 149.045 77.1195 160.282C80.1333 173.531 84.2208 186.517 85.5815 190.735Z" fill="white"/>
<path d="M88.2073 190.735H87.9097C86.5968 186.346 82.7326 173.08 79.655 159.614C77.1621 148.708 75.2858 137.134 74.4886 132.179C74.2494 130.71 74.0899 129.738 74.0314 129.487C73.8826 128.841 72.7398 125.091 71.1452 119.907C66.8398 105.87 58.8297 79.7492 58.5002 75.3595C57.9686 68.175 62.2209 57.6411 64.3204 52.9028H64.634C62.5504 57.5382 58.2556 68.1521 58.7872 75.3367C59.1167 79.6863 67.1216 105.79 71.4216 119.81C73.0162 125.006 74.1643 128.755 74.3185 129.412C74.3769 129.669 74.5311 130.595 74.7756 132.121C75.5729 137.06 77.4332 148.628 79.9367 159.557C83.0302 173.108 86.9263 186.443 88.2073 190.735Z" fill="white"/>
<path d="M57.4742 52.5657C57.4742 52.7086 92.5073 68.1351 93.0069 67.9636C93.3631 67.8436 95.7709 56.338 97.5409 51.7941C98.8697 48.3647 107.316 34.4986 107.64 29.9432C108.049 24.279 104.127 20.0895 100.092 20.4781C78.3633 22.61 57.3785 52.0627 57.4742 52.5657Z" fill="#780014"/>
<path d="M104.722 31.2636C102.947 30.6291 99.5874 25.6051 99.8478 22.4901C99.8478 22.2729 100.911 21.1526 102.341 19.2722C103.212 18.129 104.153 16.8259 104.935 15.5742C105.094 15.317 111.047 22.7473 111.047 22.7473C109.648 24.0104 108.398 25.4539 107.326 27.0454C107.221 27.227 107.13 27.4183 107.055 27.617C107.043 27.6486 107.029 27.6792 107.013 27.7084C106.572 28.7715 106.619 31.938 104.722 31.2636Z" fill="#EB9481"/>
<path d="M111.063 22.7473C109.687 23.9956 108.457 25.4198 107.401 26.9883C106.172 25.8638 105.178 24.4731 104.484 22.907C103.79 21.3409 103.411 19.6349 103.372 17.9005C103.904 17.1403 104.467 16.3458 104.967 15.5742C105.094 15.3113 111.063 22.7473 111.063 22.7473Z" fill="#263238"/>
<path d="M103.904 6.14321C102.453 9.28109 102.591 19.1234 104.435 21.644C107.125 25.302 112.27 26.5309 115.348 22.8729C118.329 19.3235 117.936 6.50329 115.794 4.12559C112.658 0.627623 106.051 1.50783 103.904 6.14321Z" fill="#EB9481"/>
<path d="M112.094 13.6079C112.094 13.6079 112.046 13.6079 112.046 13.6651C112.046 14.3281 111.961 15.0883 111.403 15.2997C111.403 15.2997 111.403 15.3397 111.403 15.334C112.089 15.2426 112.201 14.2309 112.094 13.6079Z" fill="#263238"/>
<path d="M111.557 12.8935C110.563 12.7906 110.452 14.9283 111.371 15.0197C112.291 15.1112 112.386 12.9849 111.557 12.8935Z" fill="#263238"/>
<path d="M115.522 13.6936C115.522 13.6936 115.57 13.7279 115.57 13.7565C115.517 14.4138 115.57 15.1797 116.102 15.4369C116.102 15.4369 116.102 15.4769 116.102 15.4712C115.421 15.3283 115.374 14.3109 115.522 13.6936Z" fill="#263238"/>
<path d="M116.113 13.0364C117.107 13.0364 117.07 15.1569 116.15 15.174C115.23 15.1912 115.278 13.0535 116.113 13.0364Z" fill="#263238"/>
<path d="M110.851 11.9047C111.122 11.979 111.382 12.0019 111.658 12.0476C111.934 12.1504 112.233 12.1504 112.509 12.0476C112.588 11.9952 112.648 11.9164 112.681 11.8234C112.713 11.7304 112.716 11.6284 112.69 11.5332C112.609 11.3541 112.486 11.2008 112.333 11.0885C112.18 10.9763 112.002 10.9089 111.818 10.893C111.457 10.8079 111.079 10.8668 110.755 11.0588C110.689 11.1096 110.637 11.1784 110.605 11.2582C110.572 11.338 110.56 11.4257 110.57 11.5122C110.579 11.5987 110.611 11.6808 110.66 11.7498C110.71 11.8189 110.775 11.8724 110.851 11.9047Z" fill="#263238"/>
<path d="M116.936 12.0075C116.66 11.9389 116.405 11.8303 116.155 11.7388C115.87 11.6832 115.609 11.531 115.411 11.3044C115.358 11.2166 115.335 11.1124 115.345 11.0087C115.355 10.905 115.396 10.8078 115.464 10.7329C115.613 10.609 115.79 10.53 115.977 10.5039C116.164 10.4778 116.353 10.5055 116.527 10.5843C116.896 10.6868 117.217 10.9307 117.431 11.2701C117.481 11.3524 117.507 11.4494 117.506 11.548C117.504 11.6467 117.474 11.7424 117.42 11.8225C117.367 11.9026 117.292 11.9631 117.205 11.9962C117.119 12.0292 117.025 12.0331 116.936 12.0075Z" fill="#263238"/>
<path d="M111.913 17.6318C112.058 17.9023 112.252 18.1381 112.484 18.3249C112.716 18.5116 112.982 18.6454 113.264 18.7178C113.508 18.7836 113.761 18.8124 114.013 18.8035H114.162H114.295C114.328 18.8 114.359 18.7846 114.383 18.7597C114.407 18.7348 114.423 18.702 114.428 18.6664V18.5978V18.5406C114.465 18.0319 114.459 17.2546 114.459 17.2546C114.63 17.3575 115.491 17.8262 115.491 17.569C115.552 15.272 115.399 12.9742 115.034 10.7102C115.034 10.6416 114.917 10.6473 114.922 10.7102C114.847 12.8364 115.124 14.9626 115.087 17.1003C114.781 16.9233 114.454 16.7943 114.114 16.7173C114.045 16.7173 114.151 18.2206 114.114 18.432C113.724 18.4488 113.335 18.3816 112.97 18.2344C112.605 18.0872 112.271 17.8629 111.988 17.5747C111.935 17.5347 111.882 17.5747 111.913 17.6318Z" fill="#263238"/>
<path d="M113.748 18.5234C113.463 18.8769 113.096 19.1431 112.685 19.295C112.463 19.3693 112.226 19.3693 112.004 19.295C111.515 19.1235 111.531 18.6377 111.643 18.2319C111.704 18.0139 111.79 17.8047 111.898 17.6089C112.405 18.1228 113.055 18.444 113.748 18.5234Z" fill="#263238"/>
<path d="M112.711 19.2948C112.489 19.3691 112.252 19.3691 112.031 19.2948C111.542 19.1233 111.557 18.6375 111.669 18.2317C111.929 18.2561 112.173 18.3745 112.363 18.5676C112.552 18.7607 112.675 19.017 112.711 19.2948Z" fill="#FF9BBC"/>
<path d="M104.153 15.1796C105.796 15.1224 105.748 10.8014 105.748 10.8014C105.748 10.8014 108.262 10.3842 109.575 6.72618C109.575 6.72618 112.764 9.01243 115.464 8.53803C119.716 7.82358 119.716 1.90219 118.186 0.65618C115.985 -1.11567 111.919 1.26204 111.919 1.26204C111.919 1.26204 105.907 -0.71557 103.999 3.63403C103.214 3.67414 102.471 4.03229 101.921 4.63659C101.371 5.24088 101.054 6.04657 101.033 6.89193C100.741 10.087 102.904 15.2196 104.153 15.1796Z" fill="#263238"/>
<path d="M105.116 11.2871C106.331 11.0903 107.452 10.4674 108.305 9.51526C108.763 8.99397 109.098 8.36248 109.283 7.67346C109.468 6.98444 109.497 6.25787 109.368 5.55433C109.368 5.48003 109.463 5.45716 109.479 5.55433C109.65 6.28912 109.669 7.05525 109.535 7.79882C109.401 8.54239 109.117 9.24533 108.703 9.8582C108.285 10.4378 107.732 10.8891 107.101 11.167C106.469 11.4448 105.781 11.5395 105.105 11.4414C105.057 11.4071 105.046 11.2985 105.116 11.2871Z" fill="#263238"/>
<path d="M100.831 5.00031C101.692 3.85718 102.957 3.74287 104.228 3.85718C104.24 3.86117 104.25 3.86915 104.257 3.87995C104.265 3.89074 104.269 3.90379 104.269 3.91719C104.269 3.93059 104.265 3.94364 104.257 3.95444C104.25 3.96524 104.24 3.97321 104.228 3.97721C103.602 3.92981 102.976 4.06392 102.415 4.36554C101.854 4.66717 101.379 5.12523 101.039 5.6919C100.379 6.74357 100.507 8.09246 100.72 9.28131C101.151 11.5687 102.353 13.604 104.095 14.9969C104.098 14.9992 104.1 15.002 104.102 15.0052C104.104 15.0085 104.105 15.012 104.105 15.0158C104.106 15.0195 104.106 15.0233 104.105 15.0269C104.104 15.0305 104.102 15.034 104.1 15.037C104.098 15.04 104.095 15.0425 104.092 15.0444C104.089 15.0463 104.086 15.0476 104.083 15.0481C104.079 15.0486 104.076 15.0484 104.072 15.0475C104.069 15.0466 104.066 15.0449 104.063 15.0427C103.066 14.3278 102.215 13.4014 101.562 12.3203C100.909 11.2391 100.469 10.0261 100.268 8.75548C100.087 7.53233 100.039 6.03483 100.831 5.00031Z" fill="#263238"/>
<path d="M105.61 14.4194C105.61 14.4194 104.015 10.99 102.607 11.5616C101.198 12.1331 102.075 16.86 103.547 17.7173C103.727 17.8378 103.927 17.9187 104.136 17.9552C104.345 17.9917 104.559 17.9831 104.764 17.9299C104.97 17.8767 105.164 17.7799 105.335 17.6453C105.506 17.5107 105.65 17.3409 105.759 17.1457L105.61 14.4194Z" fill="#EB9481"/>
<path d="M102.893 12.8933C102.893 12.8933 102.861 12.8933 102.893 12.939C103.903 13.5735 104.323 14.7395 104.567 15.9112C104.521 15.7855 104.449 15.6723 104.358 15.5792C104.266 15.4862 104.157 15.4155 104.038 15.372C103.919 15.3286 103.792 15.3134 103.667 15.3275C103.542 15.3417 103.421 15.3848 103.313 15.4539C103.281 15.4539 103.313 15.5225 103.313 15.5225C103.51 15.4877 103.713 15.5195 103.893 15.6137C104.073 15.7079 104.221 15.8597 104.318 16.0483C104.48 16.3651 104.608 16.7007 104.7 17.0486C104.737 17.1572 104.918 17.1343 104.897 17.0086C105.131 15.5282 104.349 13.2991 102.893 12.8933Z" fill="#263238"/>
<path d="M108.894 13.3449C108.299 13.3449 108.618 12.1332 108.74 11.7159C108.83 11.2704 108.882 10.817 108.894 10.3613C108.904 10.8172 108.956 11.271 109.049 11.7159C109.171 12.1332 109.468 13.3449 108.894 13.3449Z" fill="white"/>
<path d="M108.039 14.6082C107.608 14.6082 107.842 13.7337 107.933 13.4307C107.995 13.109 108.031 12.7819 108.039 12.4534C108.047 12.7822 108.084 13.1095 108.15 13.4307C108.241 13.7051 108.475 14.6082 108.039 14.6082Z" fill="white"/>
<path d="M94.0542 32.4579C95.2661 42.1745 101.155 64.1282 104.563 67.4833C110.973 73.7991 127.418 76.9598 133.068 77.5428C135.428 77.7829 137.523 60.2531 136.167 57.9439C135.37 56.5836 114.757 54.3431 114.316 53.4572C113.875 52.5712 107.406 42.5689 101.735 32.0864C97.0414 23.473 93.0443 24.4789 94.0542 32.4579Z" fill="#EB9481"/>
<path d="M132.59 57.6469C132.59 57.6469 139.787 57.1439 144.507 57.0467C147.138 56.9953 151.662 57.3382 153.612 58.2527C156.53 59.6188 167.926 67.3292 166.247 70.3413C164.748 73.0676 155.712 65.1058 155.712 65.1058C155.712 65.1058 165.471 72.2789 163.074 75.1939C160.676 78.1088 151.619 67.6607 151.619 67.6607C151.619 67.6607 161.484 75.2739 158.572 77.8631C156.376 79.8235 147.67 70.85 147.67 70.85C147.67 70.85 156.105 77.4573 153.926 79.5777C151.513 81.9154 142.998 74.1765 142.998 74.1765C136.619 78.5604 131.899 77.8402 128.609 76.8971C127.812 76.6685 132.59 57.6469 132.59 57.6469Z" fill="#EB9481"/>
<path d="M152.523 62.391C153.697 63.1854 154.888 63.9856 155.993 64.8944C157.099 65.8032 158.173 66.752 159.183 67.7522C160.543 69.0476 161.758 70.5093 162.802 72.1075C160.751 69.4212 156.849 66.1061 155.744 65.1973C154.638 64.2886 153.586 63.3283 152.48 62.4195C152.432 62.4081 152.469 62.3681 152.523 62.391Z" fill="#263238"/>
<path d="M149.376 66.6204C150.832 67.712 152.315 68.7351 153.729 69.8897C155.143 71.0443 156.386 72.2674 157.705 73.5248C157.806 73.622 157.705 73.6506 157.62 73.5534C156.243 72.3589 154.887 71.3701 153.5 70.1869C152.113 69.0038 150.768 67.7635 149.333 66.6489C149.333 66.6204 149.333 66.6204 149.376 66.6204Z" fill="#263238"/>
<path d="M146.091 69.7241C148.364 71.3364 150.476 73.1962 152.395 75.274C152.49 75.3712 152.395 75.394 152.278 75.274C150.215 73.3878 148.61 71.896 146.043 69.787C146 69.7756 146.043 69.6898 146.091 69.7241Z" fill="#263238"/>
<path d="M164.423 66.2314C161.629 63.2875 158.395 60.8686 154.856 59.0755C154.287 58.7592 153.695 58.4934 153.086 58.281C149.923 57.5837 146.638 57.6523 143.407 57.5494C140.797 57.5151 138.182 57.5494 135.577 57.5951C133.037 57.2369 130.501 56.8559 127.971 56.452C125.441 56.0519 122.916 55.6518 120.402 55.166C118.361 54.7202 116.251 54.4687 114.3 53.6456C113.929 53.2855 113.615 52.8627 113.37 52.3939C111.972 50.1076 110.654 47.7357 109.357 45.3694C111.047 48.0214 112.509 50.9364 114.438 53.3713C116.362 54.12 118.457 54.3372 120.466 54.7316C125.441 55.5718 130.74 56.3434 135.588 57.0178C138.196 56.9721 140.804 56.9721 143.412 57.0178C146.824 57.1893 150.359 57.0178 153.671 58.0638C157.72 59.9845 161.371 62.7577 164.407 66.22L164.423 66.2314Z" fill="#263238"/>
<path d="M96.4885 49.1364L109.697 45.707C109.697 45.707 103.925 31.5894 99.0345 25.468C94.3411 19.5809 92.3319 24.5249 92.8847 29.8233C93.379 34.5272 96.4885 49.1364 96.4885 49.1364Z" fill="#780014"/>
<path d="M96.3346 45.8725C98.1312 45.2152 100.055 44.7865 101.873 44.3064C103.691 43.8263 105.684 43.4605 107.587 43.0146C107.64 43.0146 107.667 43.1004 107.587 43.1118C105.737 43.6434 103.914 44.2549 102.049 44.7065C100.16 45.2203 98.2472 45.6267 96.3187 45.9239C96.3187 45.9239 96.3027 45.8839 96.3346 45.8725Z" fill="#263238"/>
<path d="M93.5228 37.1959C93.7938 38.0361 94.0543 38.8763 94.3626 39.7108C94.0543 37.9161 93.7566 36.1157 93.5228 34.3095C93.5228 34.2989 93.5267 34.2888 93.5337 34.2812C93.5406 34.2737 93.5501 34.2695 93.56 34.2695C93.5698 34.2695 93.5793 34.2737 93.5863 34.2812C93.5932 34.2888 93.5972 34.2989 93.5972 34.3095C94.1819 36.773 94.6921 39.2707 95.1918 41.7399C95.6595 44.129 96.2017 46.5524 96.5153 48.9759L97.0468 48.9187C97.0651 48.9187 97.0827 48.9265 97.0957 48.9405C97.1086 48.9544 97.1159 48.9733 97.1159 48.993C97.1159 49.0127 97.1086 49.0316 97.0957 49.0455C97.0827 49.0595 97.0651 49.0673 97.0468 49.0673C96.8448 49.1245 96.6428 49.1988 96.4462 49.2673C96.4123 49.2784 96.3758 49.2751 96.3442 49.2581C96.3125 49.2411 96.2882 49.2117 96.2761 49.1759C95.601 46.7468 95.1758 44.1919 94.724 41.7056C94.6496 41.2998 94.5805 40.8882 94.5114 40.4767C94.0888 39.4193 93.7215 38.3374 93.4111 37.2359C93.4121 37.2225 93.4167 37.2096 93.4244 37.1989C93.4322 37.1883 93.4426 37.1803 93.4546 37.176C93.4665 37.1717 93.4793 37.1713 93.4915 37.1749C93.5036 37.1784 93.5145 37.1858 93.5228 37.1959Z" fill="#263238"/>
<path d="M109.213 45.8039L109.686 45.6381V45.701C109.155 44.7122 108.623 43.7005 108.092 42.6946C107.56 41.6886 107.092 40.6598 106.614 39.631C106.136 38.6022 105.662 37.5676 105.221 36.5217C104.78 35.4757 104.328 34.4298 103.93 33.3552C104.493 34.3383 104.993 35.3443 105.524 36.3502C106.056 37.3562 106.534 38.3793 107.023 39.4081C107.512 40.4369 107.975 41.4657 108.432 42.5059C108.889 43.5462 109.33 44.5922 109.739 45.661V45.7124H109.691L109.213 45.8039Z" fill="#263238"/>
<path d="M105.274 34.3552C105.49 34.8608 105.656 35.3896 105.769 35.9327C105.889 36.474 105.953 37.028 105.96 37.5846C105.742 37.0799 105.576 36.5509 105.466 36.007C105.343 35.4661 105.279 34.9119 105.274 34.3552Z" fill="#263238"/>
<path d="M0 219.736C70.4755 219.388 149.525 219.382 220 219.736C149.525 220.091 70.4755 220.085 0 219.736Z" fill="#263238"/>
</svg>
